<svg width="282" height="255" viewBox="0 0 282 255" fill="none" xmlns="http://www.w3.org/2000/svg">
<g clip-path="url(#clip0)">
<path d="M114.314 43.9901C98.8275 37.9529 82.9907 32.7906 66.9352 28.5908C79.0096 36.1592 131.376 69.539 146.994 81.2635C152.9 82.4009 159.375 84.9821 163.181 87.4757C166.987 89.9694 164.581 95.5254 162.918 100.644C161.256 105.762 157.362 113.331 154.169 112.456C150.975 111.581 138.551 108.562 135.182 108.212C133.213 107.994 128.051 107.862 122.189 107.731C120.658 111.187 118.514 115.518 116.589 119.543L116.852 120.068C129.057 128.774 134.876 142.555 138.026 157.079L138.332 158.348C138.595 158.041 138.857 157.735 139.119 157.473C141.219 162.985 143.319 168.541 145.025 174.228C145.857 176.984 146.25 178.603 146.032 179.915L146.557 179.697C147.782 179.215 150.538 180.79 151.588 181.797C153.119 183.196 155.044 186.784 156.837 190.896C157.712 187.571 159.375 184.859 162.743 182.278C159.9 171.21 177.399 153.317 186.455 148.067C186.674 148.242 186.936 148.417 187.199 148.635L187.242 148.548C189.955 138.267 195.204 128.861 199.404 119.062C201.81 113.462 205.092 108.694 207.979 103.444C209.335 100.95 208.898 99.9002 207.41 97.1878C205.748 94.0817 204.479 91.6318 202.467 88.7007C199.536 84.4571 196.648 81.001 194.68 77.9386C192.711 74.8763 199.754 75.62 207.148 76.7574C212.529 77.5886 224.078 80.2135 232.697 82.0509C229.853 78.9011 228.191 74.8325 227.928 70.589C227.841 69.4078 229.415 68.9265 230.159 69.6702C232.565 71.9889 235.54 73.3013 238.69 74.2638C235.978 65.9954 229.984 58.5582 223.553 52.871C217.56 47.5775 211.041 42.8527 204.742 37.9529L184.355 22.0723C180.768 19.2725 176.437 21.8536 177.049 26.3159C178.012 33.0969 178.143 40.0091 177.53 46.8338C154.213 27.7596 128.314 12.1853 100.577 0.592049C96.8589 -0.939133 93.884 4.0044 95.6339 7.02301C102.546 18.9662 108.758 31.3469 114.314 43.9901Z" fill="#F4F6F9"/>
<path d="M113.527 224.23C113.658 222.305 114.445 215.787 117.202 215.087C113.964 211.062 111.646 208.787 112.039 203.012C112.258 200.256 113.177 194.131 116.37 192.075C115.277 191.069 114.577 189.756 114.314 188.313C113.614 184.988 111.558 174.182 111.558 174.182C112.302 174.182 113.046 174.095 113.745 173.92L113.177 173.745C113.264 171.776 112.083 169.457 111.383 167.664C109.064 167.532 104.558 166.483 101.584 165.126C101.102 166.657 100.402 168.057 99.4836 169.37C97.6899 171.689 94.9338 171.382 92.1777 170.77C88.5903 169.939 88.1091 168.057 88.6778 164.558C89.0278 162.414 89.859 156.245 89.859 156.245L90.6465 156.158C84.7842 155.458 79.0095 149.989 81.1094 142.727C79.1845 140.54 78.2658 137.653 79.5782 133.934C79.4032 133.584 79.272 133.234 79.1407 132.884C78.0908 129.69 79.4032 125.534 81.1094 123.697L82.0281 124.353C81.1969 123.434 80.5407 122.297 80.1907 121.072C79.0533 115.779 83.1218 112.147 87.8029 111.579C91.7839 111.141 95.765 111.36 99.6586 112.279L99.4836 112.847L99.9211 112.672C100.577 110.616 101.19 108.735 101.627 107.379C100.752 107.379 99.9648 107.335 99.3086 107.291C93.7089 107.073 70.4786 108.56 64.0477 108.91C54.5981 109.435 45.4547 110.397 36.1801 111.797C36.0052 111.841 35.8739 111.841 35.6989 111.885C28.043 117.966 21.2621 125.097 15.5311 133.015C13.4312 135.903 16.3185 139.402 19.2934 139.577L73.0598 143.252C59.8479 154.627 47.8609 167.314 37.2739 181.138C35.2177 183.85 38.0176 187.788 41.0362 187.7C62.8227 187.263 84.5655 185.95 106.265 183.763C97.2087 196.231 89.859 209.924 84.5218 224.405C83.2531 227.817 86.9279 230.311 89.9028 229.786C97.6899 228.386 105.565 226.986 113.395 225.367C113.483 225.017 113.483 224.624 113.527 224.23Z" fill="#F4F6F9"/>
<path d="M110.857 159.263C110.857 159.263 108.758 157.906 107.883 156.506C106.658 154.538 105.695 152.919 105.17 150.644C104.339 147.188 104.733 140.845 106.745 137.87C102.502 136.864 92.702 133.364 94.2332 127.589C95.5894 122.47 104.689 123.477 108.539 124.395C110.332 124.833 114.226 126.714 116.413 129.339" stroke="#132144" stroke-width="3.06236" stroke-linecap="round" stroke-linejoin="round"/>
<path d="M99.7019 112.323C95.8083 111.405 91.7835 111.186 87.8462 111.623C83.2089 112.192 79.1403 115.823 80.234 121.117C81.0215 124.879 88.5024 131.31 94.0584 128.685" stroke="#132144" stroke-width="3.06236" stroke-linecap="round" stroke-linejoin="round"/>
<path d="M137.981 157.081C134.831 142.557 129.013 128.82 116.807 120.07" stroke="#132144" stroke-width="3.06236" stroke-linecap="round" stroke-linejoin="round"/>
<path d="M81.1087 123.699C79.4026 125.58 78.0901 129.693 79.1401 132.886C80.0588 135.73 82.8587 137.874 85.4835 139.011C88.7646 140.455 98.8705 141.986 99.4829 136.386" stroke="#132144" stroke-width="3.06236" stroke-linecap="round" stroke-linejoin="round"/>
<path d="M79.5776 133.98C76.9089 141.68 83.6899 145.792 89.2897 147.499C92.702 148.549 103.595 147.805 104.951 143.736" stroke="#132144" stroke-width="3.06236" stroke-linecap="round" stroke-linejoin="round"/>
<path d="M81.1088 142.727C78.9651 150.251 85.2649 155.851 91.3021 156.245C94.0145 156.42 96.3331 154.407 96.5081 151.695C96.5956 150.251 96.0706 148.851 95.0644 147.889" stroke="#132144" stroke-width="3.06236" stroke-linecap="round" stroke-linejoin="round"/>
<path d="M89.8586 116.828C92.1335 117.266 94.6272 117.791 96.5958 118.928C98.477 120.022 99.177 122.253 99.4832 123.653" stroke="#132144" stroke-width="3.06236" stroke-linecap="round" stroke-linejoin="round"/>
<path d="M113.22 173.702C113.308 171.733 112.126 169.415 111.426 167.621C108.452 167.446 103.989 167.096 101.583 165.215" stroke="#132144" stroke-width="3.06236" stroke-linecap="round" stroke-linejoin="round"/>
<path d="M105.914 154.758C105.52 157.076 103.858 159.133 102.939 161.32C101.889 163.814 101.145 167.182 99.4829 169.37C97.6892 171.688 94.9331 171.382 92.177 170.77C88.5896 169.938 88.1084 168.057 88.6771 164.557C89.0271 162.414 89.8583 156.245 89.8583 156.245" stroke="#132144" stroke-width="3.06236" stroke-linecap="round" stroke-linejoin="round"/>
<path d="M97.8648 120.068C98.871 116 100.096 112.019 101.54 108.125" stroke="#132144" stroke-width="3.06236" stroke-linecap="round" stroke-linejoin="round"/>
<path d="M113.482 126.193C116.107 120.243 119.782 113.419 121.926 108.125" stroke="#132144" stroke-width="3.06236" stroke-linecap="round" stroke-linejoin="round"/>
<path d="M146.994 81.2613C130.851 69.1431 75.5972 33.9696 65.8851 27.9324C59.2354 23.7763 46.8984 16.6891 43.3111 14.808C39.9862 13.058 33.074 13.058 29.9242 14.7205C23.2307 18.2203 18.4184 24.4325 15.0498 31.2572C11.9 37.4695 9.27509 43.9442 7.17518 50.5939C4.4628 59.256 2.80037 66.3869 2.10041 75.574C1.61918 82.0925 1.0067 88.5235 2.31915 94.9982C3.50034 100.86 4.98778 107.291 7.9189 112.497C10.5875 117.178 13.3874 117.091 17.981 115.997C24.1057 114.597 29.9242 112.716 36.2239 111.754C45.5422 110.354 54.6856 109.348 64.0914 108.866C70.5224 108.516 93.7526 107.029 99.3524 107.248C106.44 107.51 130.37 107.729 135.182 108.21C138.551 108.56 150.975 111.579 154.169 112.454C157.362 113.329 161.256 105.76 162.918 100.642C164.581 95.5231 167.031 89.9671 163.181 87.4735C159.331 84.9799 152.9 82.355 146.994 81.2613ZM146.994 81.2613C146.6 87.3423 142.838 101.079 138.594 108.648" stroke="#132144" stroke-width="3.06236" stroke-linecap="round" stroke-linejoin="round"/>
<path d="M44.6667 22.1172C46.6792 27.9794 48.6041 38.304 48.9103 44.4724C49.2603 51.4721 48.8228 58.5156 47.5979 65.4278C46.0229 73.6524 42.2606 84.5457 37.4046 94.5202C32.5485 104.495 23.6239 114.382 19.9053 115.607" stroke="#132144" stroke-width="3.06236" stroke-linecap="round" stroke-linejoin="round"/>
<path d="M43.7034 79.4666C43.7034 79.4666 16.7984 68.0921 15.7922 65.5547C15.0485 63.6735 16.6671 55.7114 18.2421 54.4427C20.1232 52.9553 32.5039 54.7052 35.4788 55.1864C37.8849 55.5801 48.647 57.1551 48.647 57.1551" stroke="#132144" stroke-width="3.06236" stroke-linecap="round" stroke-linejoin="round"/>
<path d="M19.1614 54.0508C22.4862 57.3319 20.3863 64.1128 15.7928 65.5128" stroke="#132144" stroke-width="3.06236" stroke-linecap="round" stroke-linejoin="round"/>
<path d="M111.602 174.141C116.808 174.009 121.883 170.597 126.214 167.885C130.938 164.91 135.576 161.672 139.119 157.473C141.219 162.985 143.319 168.541 145.025 174.228C146.994 180.834 146.557 181.097 140.651 185.253C134.438 189.496 127.395 192.296 119.958 193.434C119.958 193.434 115.452 193.565 114.402 188.315C113.658 184.946 111.602 174.141 111.602 174.141Z" stroke="#132144" stroke-width="3.06236" stroke-linecap="round" stroke-linejoin="round"/>
<path d="M116.414 192.074C113.22 194.174 112.301 200.255 112.083 203.011C111.645 208.786 113.964 211.061 117.245 215.086C114.489 215.786 113.701 222.304 113.57 224.229C113.22 229.216 113.483 234.247 114.445 239.147C115.145 242.647 117.507 249.559 120.657 252.753" stroke="#132144" stroke-width="3.06236" stroke-linecap="round" stroke-linejoin="round"/>
<path d="M146.512 179.697C147.737 179.216 150.493 180.791 151.543 181.797C155.611 185.559 162.392 204.458 162.917 208.308C163.18 210.233 162.917 218.239 159.111 214.389C157.099 212.377 155.918 205.552 155.918 203.015C155.961 192.953 156.049 187.397 162.699 182.234C159.855 171.166 177.354 153.273 186.41 148.023C188.466 149.467 191.835 152.529 195.028 154.148C199.928 156.598 207.059 158.042 212.528 158.392C218.871 158.785 230.639 159.267 242.058 157.692C242.933 160.36 242.758 165.523 243.676 168.148C244.376 170.204 250.151 180.747 251.945 185.341C254.001 190.59 266.469 216.62 267.738 219.683C270.275 225.764 273.294 231.145 276.181 236.963" stroke="#132144" stroke-width="3.06236" stroke-linecap="round" stroke-linejoin="round"/>
<path d="M196.603 177.508C194.46 184.945 194.416 196.801 188.423 202.925C186.104 205.288 183.391 205.55 183.741 209.925C184.048 213.906 185.141 221.431 180.242 223.837" stroke="#132144" stroke-width="3.06236" stroke-linecap="round" stroke-linejoin="round"/>
<path d="M201.853 217.191C206.228 217.191 210.603 217.498 215.021 217.498C217.559 217.498 230.639 217.191 230.639 217.191" stroke="#132144" stroke-width="3.06236" stroke-linecap="round" stroke-linejoin="round"/>
<path d="M223.727 213.691V220.954" stroke="#132144" stroke-width="3.06236" stroke-linecap="round" stroke-linejoin="round"/>
<path d="M218.478 212.812C219.615 217.712 219.003 222.743 218.478 227.687" stroke="#132144" stroke-width="3.06236" stroke-linecap="round" stroke-linejoin="round"/>
<path d="M184.092 155.066C182.955 158.96 177.617 169.11 180.374 172.872C184.005 177.859 195.86 163.729 199.535 162.679C199.667 168.803 201.81 177.947 208.81 179.128C213.141 179.872 218.084 177.903 221.934 176.065C225.697 174.184 229.284 172.041 232.74 169.678" stroke="#132144" stroke-width="3.06236" stroke-linecap="round" stroke-linejoin="round"/>
<path d="M187.198 148.549C189.91 138.268 195.16 128.862 199.36 119.063C201.766 113.463 205.047 108.694 207.935 103.445C209.291 100.951 208.853 99.9009 207.366 97.1885C205.703 94.0824 204.435 91.6325 202.422 88.7014C199.491 84.4579 196.604 81.0018 194.635 77.9394C192.667 74.877 199.71 75.6207 207.103 76.7582C214.497 77.8956 233.484 82.4017 240.658 83.6704C247.264 84.8516 255.708 87.6077 259.907 93.1637C263.057 97.3635 262.138 104.669 259.907 109.219C266.207 110.182 283.488 110.138 279.988 120.506C277.1 129.037 262.401 125.012 256.145 123.306C252.82 128.731 250.064 135.162 247.308 141.024C244.945 146.055 242.014 152.967 240.746 157.867" stroke="#132144" stroke-width="3.06236" stroke-linecap="round" stroke-linejoin="round"/>
<path d="M220.271 110.882C221.934 113.375 221.146 117.138 220.096 119.587C219.134 121.819 216.728 126.325 213.797 126.281C210.691 126.237 211.041 121.819 211.434 119.456C211.916 116.788 212.878 114.425 214.54 111.757C216.203 109.088 219.003 109 220.271 110.882Z" stroke="#132144" stroke-width="3.06236" stroke-linecap="round" stroke-linejoin="round"/>
<path d="M222.284 92.5508L224.34 96.5319" stroke="#132144" stroke-width="3.06236" stroke-linecap="round" stroke-linejoin="round"/>
<path d="M233.615 101.912L239.039 101.605" stroke="#132144" stroke-width="3.06236" stroke-linecap="round" stroke-linejoin="round"/>
<path d="M265.726 117.704C267.957 117.616 269.619 118.229 271.85 118.141" stroke="#132144" stroke-width="3.06236" stroke-linecap="round" stroke-linejoin="round"/>
<path d="M266.425 92.8985C267.913 90.5361 268.306 87.6487 267.475 84.9801C266.25 81.0428 262.75 79.0741 258.901 78.3741C256.494 77.9367 254.001 77.8054 251.595 77.3679C248.926 76.8867 246.345 76.2305 243.72 75.5743C238.908 74.3493 233.877 73.1681 230.202 69.6245C229.414 68.8808 227.883 69.362 227.971 70.5432C229.064 86.5113 246.345 90.6673 258.857 95.6109C257.457 96.7921 256.451 98.4108 255.969 100.161C254.744 104.273 256.363 108.604 255.401 112.76C255.182 113.81 256.319 114.904 257.326 114.248C259.513 112.848 261.569 111.316 263.538 109.567C266.294 109.829 269.006 110.223 271.675 110.748C273.162 104.71 271.981 96.3546 266.425 92.8985Z" fill="#132144"/>
<path d="M252.252 130.611C252.558 131.224 253.258 131.53 253.914 131.224C254.22 131.268 254.483 131.18 254.702 130.961C257.239 129.036 259.908 127.024 262.314 124.793C259.951 124.312 257.764 123.699 256.145 123.262C254.789 125.624 253.477 128.074 252.252 130.611Z" fill="#132144"/>
</g>
<defs>
<clipPath id="clip0">
<rect width="282" height="254.001" fill="white" transform="translate(0 0.285156)"/>
</clipPath>
</defs>
</svg>
