<svg width="278" height="241" viewBox="0 0 278 241" fill="none" xmlns="http://www.w3.org/2000/svg">
<g clip-path="url(#clip0)">
<path d="M17.2074 135.605C16.5554 147.87 17.4111 159.279 20.7523 167.918C23.1564 174.152 26.9459 180.305 31.7133 186.213C31.754 183.687 32.2838 181.201 33.3024 178.879C34.3619 176.23 36.3992 174.111 39.007 172.93L39.17 171.952C39.17 171.952 39.822 160.135 40.0664 155.246C40.4739 155.164 40.9629 155.123 41.4926 155.083L41.3703 154.594C41.3703 154.594 41.2074 147.504 40.2294 144.774L39.6182 144.366C33.0579 141.677 23.6861 138.865 17.2074 135.605Z" fill="#F4F6F9"/>
<path d="M269.879 136.503C271.387 113.44 271.672 89.2769 261.282 67.4773C250.728 45.3516 227.421 29.0936 204.847 15.5248C181.458 1.46709 160.677 1.46709 140.752 0.44841C120.827 -0.570266 86.5178 3.3007 68.0187 19.5995C49.5195 35.8983 40.6367 44.2515 30.8574 71.3482C25.9677 85.1207 22.2597 99.26 19.7742 113.644C27.5161 116.74 37.4991 124.319 42.0221 126.153C46.0968 126.723 50.2122 127.009 54.3684 126.927C58.8506 126.886 65.4923 126.153 69.73 124.523C73.764 122.975 77.7979 120.611 81.6282 119.063C85.6214 117.433 90.1036 120.448 88.1477 124.564C86.3956 128.231 82.9728 130.839 78.8166 133.039C74.6604 135.24 71.2784 136.34 70.2597 140.863C69.6893 143.226 70.0153 153.087 70.0968 155.898C70.5042 155.98 70.9524 156.061 71.4007 156.143C71.8489 161.236 72.7046 172.808 72.7046 172.808V173.297C73.8047 173.746 74.8234 174.397 75.7606 175.212C80.528 179.572 83.8693 188.129 85.8659 194.16C86.0696 194.73 86.3141 195.423 86.5178 196.197C92.1816 195.138 101.105 197.175 103.509 199.212C103.632 199.335 103.754 199.416 103.876 199.538C106.728 195.301 109.988 191.593 111.007 190.085C116.385 181.895 127.102 172.727 135.251 167.389C142.341 162.744 150.246 157.773 156.358 152.272C162.674 146.608 159.862 141.474 160.677 134.302C160.718 134.017 161.289 134.099 162.348 134.384V105.82C162.348 96.2447 163.204 74.4043 163.204 74.4043C163.204 74.4043 157.132 72.4892 151.469 70.737C145.805 68.9849 138.552 67.681 132.317 66.5808C132.317 66.5808 141.037 59.3279 145.438 56.1496C151.469 51.8304 157.336 47.5927 163.978 44.0885C164.711 43.7218 165.445 43.3143 166.219 42.9476C164.711 42.4993 163.367 41.7659 162.593 40.462C162.47 40.2175 162.389 39.9323 162.389 39.6471C162.389 38.7099 163.122 37.9357 164.059 37.9357C173.024 37.8134 179.38 30.1122 187.815 28.0749C191.075 27.26 194.701 27.3007 197.757 28.6046C200.813 29.9085 202.769 32.4756 204.44 35.2056C209.207 33.7387 214.219 35.8168 217.601 39.4841C221.716 43.9662 224.08 50.2005 225.221 56.0681C225.669 58.4722 225.954 60.917 226.076 63.3618C231.17 64.136 235.937 65.9289 237.73 70.4111C241.071 78.7642 231.985 81.535 224.487 81.2498C223.509 86.3431 222.165 91.4365 220.861 96.4077C220.494 97.6301 219.312 97.8338 218.416 97.3448C218.864 108.224 219.312 121.752 219.312 130.472V131.002C219.598 130.88 219.842 130.757 220.127 130.635C222.613 136.095 222.735 144.082 227.34 148.075C235.244 154.88 246.368 161.155 254.722 167.756C257.533 169.997 260.263 172.279 262.83 174.723C267.353 162.418 269.024 149.257 269.879 136.503Z" fill="#F4F6F9"/>
<path d="M25.6013 238.861C25.6013 212.009 26.9867 195.995 36.3585 195.995C31.8764 193.591 30.0835 186.297 33.221 178.84C37.0105 169.876 47.075 171.587 54.9799 171.18C61.092 170.854 71.1972 171.058 75.6387 175.132C80.4061 179.492 83.7473 188.049 85.7439 194.08C86.4774 196.362 88.0665 200.396 86.2736 202.677C84.6845 204.633 81.6692 203.207 81.5877 200.64C81.2618 192.98 99.8017 196.076 103.428 199.132C106.892 202.066 108.685 207.282 107.747 211.723C107.177 214.494 105.058 218.773 101.676 216.328C92.8339 210.053 108.481 193.632 110.885 190.005C116.263 181.815 126.98 172.647 135.129 167.309C142.219 162.664 150.124 157.693 156.236 152.192C162.552 146.528 159.741 141.394 160.555 134.222C160.678 133.082 169.194 137.604 181.866 137.604C194.538 137.604 209.207 135.567 220.005 130.637C222.491 136.097 222.613 144.083 227.218 148.076C235.123 154.881 246.246 161.156 254.6 167.757C262.831 174.236 270.043 181.326 275.829 190.046" stroke="#1E2022" stroke-width="2.85229" stroke-linecap="round" stroke-linejoin="round"/>
<path d="M162.674 152.232C162.43 151.54 162.104 150.847 161.9 150.154C163.652 155.003 170.661 165.068 174.857 158.752C177.791 154.27 181.01 148.85 183.088 142.738C190.341 152.681 200.569 161.319 205.458 160.626C211.448 159.73 219.435 149.828 221.717 144.735" stroke="#1E2022" stroke-width="2.85229" stroke-linecap="round" stroke-linejoin="round"/>
<path d="M194.905 220.035C196.413 214.982 197.757 209.359 196.82 204.184C195.924 199.131 190.545 187.885 184.026 187.885C178.973 189.311 190.993 196.279 194.987 195.016C200.528 193.264 198.98 186.907 197.757 182.466C194.824 171.546 186.552 166.656 184.433 152.68" stroke="#1E2022" stroke-width="2.85229" stroke-linecap="round" stroke-linejoin="round"/>
<path d="M134.395 193.547C140.915 195.299 161.94 195.951 161.94 195.951" stroke="#1E2022" stroke-width="2.85229" stroke-linecap="round" stroke-linejoin="round"/>
<path d="M137.411 203.494C137.411 203.494 137.941 193.388 140.263 189.477" stroke="#1E2022" stroke-width="2.85229" stroke-linecap="round" stroke-linejoin="round"/>
<path d="M142.015 212.005C142.015 212.005 142.667 196.358 146.131 189.309" stroke="#1E2022" stroke-width="2.85229" stroke-linecap="round" stroke-linejoin="round"/>
<path d="M162.267 133.406V105.738C162.267 96.1628 163.122 74.3224 163.122 74.3224C163.122 74.3224 157.051 72.4072 151.387 70.6551C145.723 68.903 138.47 67.5991 132.236 66.4989C132.236 66.4989 140.956 59.246 145.357 56.0677C151.387 51.7485 157.255 47.5108 163.897 44.0066C174.817 38.2612 187.897 32.4752 200.08 36.6314C210.43 40.1356 214.749 52.319 214.708 62.5057C221.513 62.9132 234.43 62.302 237.649 70.3699C242.212 81.7383 223.672 82.757 217.56 79.7417C217.56 79.7417 219.231 113.765 219.231 130.431" stroke="#1E2022" stroke-width="2.85229" stroke-linecap="round" stroke-linejoin="round"/>
<path d="M184.474 59.371L184.841 55.2148" stroke="#1E2022" stroke-width="2.85229" stroke-linecap="round" stroke-linejoin="round"/>
<path d="M175.061 58.8398L175.428 54.6836" stroke="#1E2022" stroke-width="2.85229" stroke-linecap="round" stroke-linejoin="round"/>
<path d="M222.573 73.5465C224.732 72.0797 226.484 71.7944 229.255 71.8759" stroke="#1E2022" stroke-width="2.85229" stroke-linecap="round" stroke-linejoin="round"/>
<path d="M177.75 79.456C180.114 79.5782 182.396 78.6411 184.026 76.9297" stroke="#1E2022" stroke-width="2.85229" stroke-linecap="round" stroke-linejoin="round"/>
<path d="M4.98297 122.039C-1.08834 116.253 3.39383 113.238 9.87261 115.153C14.3548 116.538 18.7147 118.168 22.9932 120.002C34.8505 125.177 41.2071 126.97 54.3276 126.888C58.8098 126.847 65.4516 126.114 69.6893 124.484C73.7232 122.936 77.7572 120.572 81.5874 119.024C85.5806 117.394 90.0628 120.409 88.1069 124.525C86.3548 128.192 82.932 130.8 78.7758 133C74.6196 135.201 71.2376 136.301 70.1782 140.783C69.5263 143.513 70.056 155.778 70.056 155.778" stroke="#1E2022" stroke-width="2.85229" stroke-linecap="round" stroke-linejoin="round"/>
<path d="M40.5962 145.18C41.6149 147.91 41.3296 154.592 41.3296 154.592" stroke="#1E2022" stroke-width="2.85229" stroke-linecap="round" stroke-linejoin="round"/>
<path d="M26.7013 132.96C26.7013 132.96 22.6673 131.371 18.7556 129.863C14.8439 128.355 11.1359 125.788 9.66902 127.092C7.10196 129.374 13.0103 133.204 14.4772 134.101C21.8524 138.624 35.6656 142.25 42.7556 145.836" stroke="#1E2022" stroke-width="2.85229" stroke-linecap="round" stroke-linejoin="round"/>
<path d="M9.01742 128.516C6.32812 127.375 3.55732 125.297 4.77973 122.648C6.00214 120 9.50638 120.692 11.7882 121.507C17.5336 123.545 21.2415 125.867 27.0276 127.497" stroke="#1E2022" stroke-width="2.85229" stroke-linecap="round" stroke-linejoin="round"/>
<path d="M9.91357 115.152C13.4993 105.536 34.7693 123.261 42.0222 126.154" stroke="#1E2022" stroke-width="2.85229" stroke-linecap="round" stroke-linejoin="round"/>
<path d="M39.1294 171.951C39.1294 171.951 39.7813 160.135 40.0258 155.245C44.3043 154.634 54.0836 154.552 58.4027 154.756C63.0072 155.001 66.7559 155.204 71.2788 156.06C71.727 161.154 72.5827 172.726 72.5827 172.726" stroke="#1E2022" stroke-width="2.85229" stroke-linecap="round" stroke-linejoin="round"/>
<path d="M224.365 81.2504C221.635 81.1281 219.15 80.6392 217.52 79.8242C217.52 79.8242 217.887 87.4847 218.294 97.3454C219.19 97.8752 220.413 97.6714 220.739 96.4083C222.083 91.4371 223.387 86.3437 224.365 81.2504Z" fill="#1E2022"/>
<path d="M163.163 38.0984C162.348 38.5466 162.063 39.5653 162.511 40.3802C164.263 43.3547 168.949 43.3547 171.964 43.8845C175.835 44.6179 179.788 45.0254 183.74 45.0661C189.526 45.1069 195.394 44.0474 200.487 41.3581C200.202 45.9218 202.402 50.3225 204.725 54.3972C208.188 60.3463 210.552 66.8658 211.652 73.6705C211.896 75.2189 214.015 75.1374 214.708 74.078C216.908 70.8182 217.927 66.825 218.253 62.7096C220.82 62.7911 223.387 62.9948 225.913 63.3208C225.791 60.876 225.506 58.4311 225.058 56.0271C223.917 50.1188 221.553 43.9252 217.438 39.443C214.056 35.735 209.044 33.6977 204.277 35.1646C202.606 32.3938 200.691 29.9082 197.594 28.5636C194.497 27.2189 190.912 27.2189 187.652 28.0339C179.258 30.0712 172.861 37.7724 163.896 37.8946C163.652 37.8946 163.407 37.9354 163.163 38.0984Z" fill="#1E2022"/>
<path d="M56.3245 140.538C56.6914 140.253 57.1399 140.171 57.5884 140.253" stroke="#1E2022" stroke-width="2.85229" stroke-linecap="round" stroke-linejoin="round"/>
<circle cx="15.1785" cy="79.6624" r="0.865539" fill="#39BEE8"/>
<circle cx="24.9909" cy="38.9699" r="1.44257" fill="#FF9F67"/>
<circle cx="84.4467" cy="59.4621" r="1.44257" fill="#B3DB64"/>
<path fill-rule="evenodd" clip-rule="evenodd" d="M71.6544 58.4335C72.1581 59.2763 72.6088 60.1462 73.0064 61.043C73.0548 61.1523 73.0575 61.2627 73.0145 61.3743C72.9715 61.4858 72.8953 61.5658 72.7861 61.6143C72.7855 61.6145 72.7849 61.6148 72.7843 61.6151C72.7836 61.6153 72.783 61.6156 72.7824 61.6158C72.6734 61.663 72.5636 61.6649 72.453 61.6217C72.3424 61.5784 72.263 61.5025 72.2148 61.3939C71.8465 60.563 71.4309 59.7562 70.968 58.9734C70.949 58.9413 70.93 58.9094 70.9111 58.8778C70.8498 58.7752 70.8337 58.6659 70.8629 58.5499C70.8921 58.434 70.958 58.3454 71.0606 58.2841C71.1099 58.2546 71.1629 58.2357 71.2197 58.2273C71.2765 58.219 71.3328 58.2218 71.3884 58.2358C71.4441 58.2498 71.495 58.274 71.5411 58.3082C71.5871 58.3425 71.6249 58.3843 71.6544 58.4335ZM73.4911 63.5088C73.4905 63.5089 73.4898 63.5091 73.4892 63.5093C73.4886 63.5095 73.4879 63.5097 73.4873 63.51C73.374 63.5456 73.2896 63.6159 73.2342 63.7209C73.1788 63.826 73.1684 63.9353 73.2029 64.049C73.4792 64.9569 73.6987 65.8776 73.8614 66.811C73.8818 66.928 73.9404 67.0209 74.0372 67.0896C74.1341 67.1584 74.2411 67.1831 74.3583 67.1638C74.3589 67.1637 74.3596 67.1636 74.3602 67.1635C74.3609 67.1634 74.3615 67.1633 74.3622 67.1631C74.48 67.1426 74.5732 67.0834 74.642 66.9857C74.7108 66.8879 74.7349 66.7801 74.7144 66.6623C74.5456 65.694 74.3179 64.7389 74.0313 63.7969C73.9965 63.6825 73.9263 63.5972 73.8209 63.5409C73.7154 63.4847 73.6055 63.474 73.4911 63.5088ZM74.5864 69.1727C74.5857 69.1728 74.5851 69.1728 74.5844 69.1728C74.5837 69.1729 74.5831 69.1729 74.5824 69.173C74.4638 69.1799 74.3649 69.2276 74.2856 69.316C74.2063 69.4044 74.1696 69.508 74.1754 69.6266C74.2222 70.5695 74.2111 71.5127 74.142 72.4562C74.1334 72.5747 74.1676 72.679 74.2448 72.7693C74.3221 72.8595 74.4198 72.9095 74.5382 72.9193C74.5389 72.9193 74.5395 72.9194 74.5402 72.9195C74.5409 72.9195 74.5415 72.9196 74.5422 72.9196C74.6614 72.9283 74.7663 72.8936 74.8567 72.8155C74.9472 72.7373 74.9968 72.6387 75.0056 72.5194C75.0772 71.5406 75.0888 70.562 75.0402 69.5837C75.0343 69.4643 74.987 69.3644 74.8984 69.2842C74.8098 69.204 74.7058 69.1668 74.5864 69.1727ZM73.7638 75.2615C73.7868 75.1449 73.8474 75.0533 73.9458 74.9867C74.0441 74.9201 74.1517 74.8977 74.2684 74.9196C74.2691 74.9198 74.2697 74.9199 74.2703 74.92C74.271 74.9201 74.2716 74.9202 74.2722 74.9204C74.3895 74.9435 74.4815 75.0047 74.5481 75.1039C74.6147 75.2032 74.6364 75.3115 74.6133 75.4288C74.5622 75.6885 74.5068 75.9476 74.4471 76.206C74.2845 76.9102 74.0917 77.6041 73.8687 78.2874C73.8316 78.4011 73.7597 78.485 73.6531 78.5391C73.5465 78.5932 73.4364 78.6018 73.3228 78.5647L73.319 78.5634C73.2065 78.5255 73.1235 78.4535 73.0702 78.3474C73.0169 78.2412 73.0087 78.1317 73.0455 78.0188C73.2607 77.3597 73.4466 76.6905 73.6035 76.0112C73.661 75.762 73.7144 75.5121 73.7638 75.2615ZM72.0049 80.6527C72.0552 80.5451 72.1361 80.4708 72.2476 80.4298C72.3591 80.3888 72.4688 80.393 72.5769 80.4424C72.5775 80.4426 72.5781 80.4429 72.5787 80.4432C72.5793 80.4435 72.5799 80.4438 72.5805 80.444C72.6888 80.4947 72.7633 80.5762 72.804 80.6886C72.8447 80.801 72.8398 80.9114 72.7891 81.0196C72.3733 81.9084 71.9046 82.7681 71.3832 83.5986C71.3197 83.6999 71.2296 83.7638 71.1131 83.7905C70.9965 83.8171 70.8876 83.7987 70.7864 83.7351C70.7858 83.7348 70.7852 83.7344 70.7847 83.7341C70.7841 83.7337 70.7836 83.7333 70.783 83.733C70.683 83.6689 70.62 83.5789 70.5941 83.463C70.5681 83.3471 70.5867 83.2389 70.6499 83.1383C71.1524 82.3378 71.6041 81.5093 72.0049 80.6527ZM68.9993 85.4376C69.0743 85.3456 69.1708 85.2932 69.2888 85.2806C69.4069 85.268 69.5123 85.2987 69.6051 85.3728C69.6056 85.3732 69.6061 85.3736 69.6066 85.3741C69.6071 85.3745 69.6076 85.3749 69.6082 85.3753C69.7008 85.4508 69.7532 85.5479 69.7654 85.6668C69.7776 85.7857 69.7459 85.8915 69.6705 85.9842C69.0518 86.744 68.3885 87.4639 67.6805 88.1438C67.5943 88.2266 67.4915 88.2667 67.372 88.2643C67.2525 88.2619 67.1514 88.2176 67.0686 88.1314C67.0682 88.131 67.0677 88.1305 67.0673 88.13C67.0668 88.1295 67.0664 88.129 67.0659 88.1285C66.9845 88.0422 66.9452 87.9396 66.9481 87.8209C66.9511 87.7022 66.9953 87.6018 67.081 87.5195C67.7634 86.8641 68.4029 86.1701 68.9993 85.4376ZM64.9227 89.3526C65.0177 89.2814 65.124 89.2538 65.2417 89.2701C65.3594 89.2864 65.4543 89.3417 65.5264 89.436C65.5268 89.4366 65.5272 89.4371 65.5276 89.4376C65.528 89.4381 65.5284 89.4386 65.5288 89.4392C65.6005 89.5348 65.6279 89.6418 65.611 89.7601C65.5941 89.8785 65.5379 89.9735 65.4423 90.0453C64.6575 90.634 63.8399 91.173 62.9895 91.6625C62.8859 91.7221 62.7763 91.7364 62.6609 91.7053C62.5455 91.6742 62.4579 91.6068 62.3983 91.5032L62.3964 91.4998C62.3381 91.3963 62.3246 91.2873 62.356 91.1727C62.3874 91.0582 62.4546 90.9713 62.5576 90.912C63.3776 90.4401 64.1659 89.9203 64.9227 89.3526ZM43.6863 92.992C43.7058 93.0446 43.7147 93.099 43.713 93.1551C43.7114 93.2112 43.6993 93.265 43.6767 93.3164C43.6762 93.3175 43.6757 93.3186 43.6752 93.3197C43.6747 93.3209 43.6742 93.322 43.6737 93.3231C43.6238 93.4317 43.5427 93.5068 43.4306 93.5483C43.3185 93.5898 43.2082 93.5856 43.0995 93.5357C42.1815 93.1138 41.3349 92.5953 40.5596 91.9802C40.5147 91.9445 40.4782 91.9016 40.4503 91.8514C40.4225 91.8013 40.4052 91.7476 40.3987 91.6906C40.3921 91.6336 40.3967 91.5775 40.4124 91.5223C40.4282 91.467 40.4539 91.417 40.4896 91.372C40.4904 91.3709 40.4912 91.3699 40.4921 91.3689C40.4929 91.3679 40.4937 91.3668 40.4946 91.3658C40.5696 91.2747 40.6658 91.223 40.7831 91.2106C40.9005 91.1981 41.0054 91.2286 41.0978 91.3019C41.8185 91.8738 42.6063 92.3561 43.4611 92.7489C43.5133 92.7729 43.5588 92.806 43.5979 92.8481C43.6369 92.8902 43.6664 92.9382 43.6863 92.992ZM60.0205 92.172C60.1298 92.1257 60.2397 92.1245 60.35 92.1686C60.4603 92.2127 60.5391 92.2892 60.5864 92.3981L60.588 92.4017C60.6346 92.5118 60.6355 92.6222 60.5907 92.7331C60.5458 92.8439 60.4684 92.9226 60.3583 92.9693C59.6091 93.2867 58.8463 93.5654 58.0699 93.8053C58.0658 93.8066 58.0617 93.8078 58.0576 93.8089C58.0534 93.81 58.0493 93.8111 58.0451 93.8121L57.5464 93.9344C57.4302 93.9628 57.3211 93.9461 57.2188 93.8841C57.1166 93.8221 57.0513 93.7331 57.0228 93.6169C57.0226 93.6162 57.0225 93.6155 57.0223 93.6147C57.0221 93.614 57.0219 93.6132 57.0218 93.6125C56.9947 93.4969 57.0123 93.3886 57.0743 93.2875C57.1364 93.1864 57.225 93.1217 57.3403 93.0934L57.8265 92.9742C58.5708 92.7438 59.3021 92.4764 60.0205 92.172ZM48.8875 94.0155C49.006 94.0224 49.1049 94.0699 49.1843 94.158C49.2637 94.2462 49.3006 94.3495 49.295 94.4681C49.295 94.4688 49.295 94.4696 49.2949 94.4704C49.2949 94.4711 49.2949 94.4719 49.2948 94.4726C49.2879 94.592 49.2399 94.6914 49.1506 94.771C49.0614 94.8505 48.9571 94.8868 48.8377 94.88C47.8072 94.8206 46.831 94.6869 45.909 94.4787C45.7924 94.4524 45.7021 94.3886 45.6383 94.2876C45.5745 94.1865 45.5557 94.0776 45.582 93.961C45.5823 93.96 45.5825 93.959 45.5827 93.958C45.583 93.957 45.5832 93.956 45.5834 93.955C45.5966 93.9003 45.6196 93.85 45.6525 93.8042C45.6853 93.7584 45.7255 93.7204 45.7731 93.6904C45.8217 93.6597 45.8742 93.6395 45.9308 93.6297C45.9874 93.62 46.0437 93.6214 46.0997 93.6341C46.9753 93.8318 47.9045 93.9589 48.8875 94.0155ZM54.5516 93.6655C54.6691 93.6463 54.7763 93.6714 54.8731 93.7406C54.9699 93.8098 55.0283 93.9031 55.0482 94.0205L55.0486 94.0231C55.0679 94.1411 55.0426 94.2486 54.9727 94.3456C54.9029 94.4427 54.809 94.5008 54.691 94.5201C53.6844 94.6843 52.7149 94.7977 51.7826 94.8604C51.6634 94.8685 51.5587 94.8331 51.4687 94.7545C51.3787 94.6758 51.3297 94.5768 51.3216 94.4576L51.3214 94.454C51.3144 94.3354 51.3502 94.2315 51.4288 94.1423C51.5073 94.0531 51.6059 94.0045 51.7245 93.9965C52.6295 93.9356 53.5719 93.8253 54.5516 93.6655Z" fill="#0D0938"/>
<path d="M73.0064 61.043L73.2736 60.9246V60.9246L73.0064 61.043ZM73.0145 61.3743L73.2872 61.4795V61.4795L73.0145 61.3743ZM72.7861 61.6143L72.6676 61.3471L72.6664 61.3476L72.7861 61.6143ZM72.7824 61.6158L72.6708 61.3457L72.6664 61.3476L72.7824 61.6158ZM72.453 61.6217L72.5594 61.3495L72.5594 61.3495L72.453 61.6217ZM72.2148 61.3939L71.9476 61.5124V61.5124L72.2148 61.3939ZM70.968 58.9734L70.7164 59.1222L70.7164 59.1222L70.968 58.9734ZM70.9111 58.8778L70.6603 59.0277L70.6603 59.0277L70.9111 58.8778ZM70.8629 58.5499L70.5795 58.4786L70.5795 58.4786L70.8629 58.5499ZM71.0606 58.2841L71.2106 58.5349L71.2106 58.5349L71.0606 58.2841ZM71.2197 58.2273L71.2623 58.5165L71.2623 58.5165L71.2197 58.2273ZM71.3884 58.2358L71.4598 57.9524L71.4598 57.9524L71.3884 58.2358ZM71.5411 58.3082L71.7155 58.0737L71.7154 58.0737L71.5411 58.3082ZM73.4892 63.5093L73.402 63.2304L73.4015 63.2305L73.4892 63.5093ZM73.4873 63.51L73.5749 63.7888L73.5786 63.7876L73.4873 63.51ZM73.2342 63.7209L73.4927 63.8573L73.4927 63.8573L73.2342 63.7209ZM73.2029 64.049L72.9233 64.134V64.134L73.2029 64.049ZM73.8614 66.811L74.1493 66.7608L74.1493 66.7608L73.8614 66.811ZM74.0372 67.0896L74.2064 66.8513L74.2064 66.8513L74.0372 67.0896ZM74.3583 67.1638L74.4058 67.4522L74.4063 67.4521L74.3583 67.1638ZM74.3602 67.1635L74.3119 66.8752L74.3115 66.8753L74.3602 67.1635ZM74.3622 67.1631L74.312 66.8752L74.3116 66.8753L74.3622 67.1631ZM74.642 66.9857L74.8811 67.1538L74.8811 67.1538L74.642 66.9857ZM74.7144 66.6623L75.0023 66.6121V66.6121L74.7144 66.6623ZM74.0313 63.7969L74.3109 63.7118V63.7118L74.0313 63.7969ZM73.8209 63.5409L73.9584 63.2831L73.9584 63.2831L73.8209 63.5409ZM74.5844 69.1728L74.567 68.8811L74.5844 69.1728ZM74.5824 69.173L74.5996 69.4648L74.6036 69.4645L74.5824 69.173ZM74.2856 69.316L74.5031 69.5112L74.2856 69.316ZM74.1754 69.6266L74.4674 69.6121L74.4674 69.6121L74.1754 69.6266ZM74.142 72.4562L73.8505 72.4349V72.4349L74.142 72.4562ZM74.2448 72.7693L74.0227 72.9593L74.0228 72.9593L74.2448 72.7693ZM74.5382 72.9193L74.5142 73.2106L74.515 73.2106L74.5382 72.9193ZM74.5402 72.9195L74.5168 73.2108L74.5168 73.2108L74.5402 72.9195ZM74.5422 72.9196L74.5635 72.6281L74.5635 72.6281L74.5422 72.9196ZM74.8567 72.8155L75.0478 73.0367H75.0478L74.8567 72.8155ZM75.0056 72.5194L75.2971 72.5408V72.5408L75.0056 72.5194ZM75.0402 69.5837L75.3321 69.5692V69.5692L75.0402 69.5837ZM74.8984 69.2842L74.7022 69.5009L74.7023 69.5009L74.8984 69.2842ZM73.9458 74.9867L74.1097 75.2287L74.1097 75.2287L73.9458 74.9867ZM74.2684 74.9196L74.3235 74.6326L74.3223 74.6324L74.2684 74.9196ZM74.2703 74.92L74.2149 75.207L74.2153 75.207L74.2703 74.92ZM74.2722 74.9204L74.3287 74.6336L74.3277 74.6334L74.2722 74.9204ZM74.5481 75.1039L74.3054 75.2668L74.3054 75.2668L74.5481 75.1039ZM74.6133 75.4288L74.9001 75.4853V75.4853L74.6133 75.4288ZM74.4471 76.206L74.1623 76.1402V76.1402L74.4471 76.206ZM73.8687 78.2874L74.1465 78.3781L74.1465 78.3781L73.8687 78.2874ZM73.6531 78.5391L73.7855 78.7997L73.7855 78.7997L73.6531 78.5391ZM73.3228 78.5647L73.229 78.8415L73.2321 78.8425L73.3228 78.5647ZM73.319 78.5634L73.4128 78.2866L73.4122 78.2864L73.319 78.5634ZM73.0702 78.3474L72.809 78.4785V78.4785L73.0702 78.3474ZM73.0455 78.0188L73.3234 78.1095V78.1095L73.0455 78.0188ZM73.6035 76.0112L73.8882 76.077L73.8882 76.077L73.6035 76.0112ZM72.2476 80.4298L72.3485 80.7042L72.3485 80.7041L72.2476 80.4298ZM72.5769 80.4424L72.4554 80.7082L72.4564 80.7086L72.5769 80.4424ZM72.5805 80.444L72.7044 80.1793L72.7042 80.1792L72.5805 80.444ZM72.804 80.6886L72.5292 80.7882L72.5292 80.7882L72.804 80.6886ZM72.7891 81.0196L73.0538 81.1435L73.0539 81.1435L72.7891 81.0196ZM71.3832 83.5986L71.1357 83.4432V83.4432L71.3832 83.5986ZM71.1131 83.7905L71.0479 83.5056H71.0479L71.1131 83.7905ZM70.7864 83.7351L70.6306 83.9824L70.631 83.9827L70.7864 83.7351ZM70.7847 83.7341L70.9419 83.4876L70.9418 83.4876L70.7847 83.7341ZM70.783 83.733L70.9452 83.4897L70.9407 83.4869L70.783 83.733ZM70.5941 83.463L70.3089 83.5269L70.3089 83.5269L70.5941 83.463ZM70.6499 83.1383L70.8974 83.2937L70.8974 83.2937L70.6499 83.1383ZM69.2888 85.2806L69.2578 84.99H69.2577L69.2888 85.2806ZM69.6051 85.3728L69.7881 85.145L69.7875 85.1445L69.6051 85.3728ZM69.6066 85.3741L69.4224 85.6009L69.4224 85.601L69.6066 85.3741ZM69.6082 85.3753L69.7927 85.1487L69.7914 85.1476L69.6082 85.3753ZM69.7654 85.6668L69.4747 85.6966V85.6966L69.7654 85.6668ZM69.6705 85.9842L69.8971 86.1687L69.8971 86.1687L69.6705 85.9842ZM67.6805 88.1438L67.883 88.3546L67.883 88.3546L67.6805 88.1438ZM67.372 88.2643L67.3661 88.5565H67.3661L67.372 88.2643ZM67.0686 88.1314L66.8571 88.3331L66.8578 88.3339L67.0686 88.1314ZM67.0673 88.13L66.8548 88.3307L66.8549 88.3308L67.0673 88.13ZM67.0659 88.1285L67.2812 87.9309L67.2785 87.928L67.0659 88.1285ZM66.9481 87.8209L67.2403 87.8282V87.8281L66.9481 87.8209ZM67.081 87.5195L67.2834 87.7303L67.2834 87.7303L67.081 87.5195ZM65.2417 89.2701L65.2017 89.5596H65.2017L65.2417 89.2701ZM65.5264 89.436L65.2942 89.6135L65.2943 89.6136L65.5264 89.436ZM65.5276 89.4376L65.2945 89.6139L65.2945 89.6139L65.5276 89.4376ZM65.5288 89.4392L65.2947 89.6142L65.295 89.6146L65.5288 89.4392ZM65.4423 90.0453L65.6176 90.2791L65.6176 90.2791L65.4423 90.0453ZM62.9895 91.6625L63.1353 91.9158L63.1353 91.9158L62.9895 91.6625ZM62.6609 91.7053L62.7369 91.4231L62.7369 91.4231L62.6609 91.7053ZM62.3983 91.5032L62.1434 91.6462L62.145 91.649L62.3983 91.5032ZM62.3964 91.4998L62.6513 91.3568L62.651 91.3563L62.3964 91.4998ZM62.356 91.1727L62.6379 91.25L62.356 91.1727ZM62.5576 90.912L62.4118 90.6587L62.4118 90.6587L62.5576 90.912ZM43.713 93.1551L44.0052 93.1637L43.713 93.1551ZM43.6767 93.3164L43.9443 93.434L43.9443 93.4338L43.6767 93.3164ZM43.6737 93.3231L43.9392 93.4451L43.9393 93.445L43.6737 93.3231ZM43.4306 93.5483L43.5321 93.8224L43.5321 93.8224L43.4306 93.5483ZM43.0995 93.5357L42.9775 93.8013L42.9775 93.8013L43.0995 93.5357ZM40.5596 91.9802L40.7413 91.7513L40.7413 91.7512L40.5596 91.9802ZM40.4503 91.8514L40.7058 91.7094L40.7058 91.7094L40.4503 91.8514ZM40.3987 91.6906L40.689 91.6572L40.689 91.6572L40.3987 91.6906ZM40.4124 91.5223L40.6935 91.6025L40.6935 91.6025L40.4124 91.5223ZM40.4896 91.372L40.2609 91.19L40.2607 91.1903L40.4896 91.372ZM40.4946 91.3658L40.269 91.18L40.2687 91.1803L40.4946 91.3658ZM40.7831 91.2106L40.7524 90.9199H40.7524L40.7831 91.2106ZM41.0978 91.3019L40.9162 91.5309L40.9162 91.5309L41.0978 91.3019ZM43.4611 92.7489L43.5832 92.4834L43.5831 92.4834L43.4611 92.7489ZM43.5979 92.8481L43.8123 92.6494L43.8122 92.6494L43.5979 92.8481ZM60.35 92.1686L60.2416 92.44L60.2416 92.44L60.35 92.1686ZM60.5864 92.3981L60.8551 92.283L60.8545 92.2816L60.5864 92.3981ZM60.588 92.4017L60.8571 92.2877L60.8567 92.2866L60.588 92.4017ZM60.5907 92.7331L60.3198 92.6234V92.6234L60.5907 92.7331ZM60.3583 92.9693L60.4723 93.2384L60.4723 93.2384L60.3583 92.9693ZM58.0699 93.8053L58.1561 94.0846L58.1562 94.0845L58.0699 93.8053ZM58.0576 93.8089L58.1356 94.0906L58.1357 94.0905L58.0576 93.8089ZM58.0451 93.8121L57.9757 93.5283L57.9756 93.5283L58.0451 93.8121ZM57.5464 93.9344L57.6159 94.2183L57.6159 94.2183L57.5464 93.9344ZM57.2188 93.8841L57.0673 94.134L57.2188 93.8841ZM57.0228 93.6169L56.7389 93.6862L56.739 93.6865L57.0228 93.6169ZM57.0223 93.6147L57.3067 93.5474L57.3063 93.5458L57.0223 93.6147ZM57.0218 93.6125L56.7372 93.679L56.7373 93.6798L57.0218 93.6125ZM57.0743 93.2875L57.3234 93.4403L57.0743 93.2875ZM57.3403 93.0934L57.2707 92.8095L57.2707 92.8095L57.3403 93.0934ZM57.8265 92.9742L57.8961 93.2581L57.9046 93.256L57.913 93.2534L57.8265 92.9742ZM49.1843 94.158L48.9671 94.3536L48.9671 94.3536L49.1843 94.158ZM49.295 94.4681L49.0031 94.4543L49.003 94.4562L49.295 94.4681ZM49.2949 94.4704L49.5868 94.4856V94.4856L49.2949 94.4704ZM49.2948 94.4726L49.0031 94.4541L49.003 94.4558L49.2948 94.4726ZM49.1506 94.771L49.3451 94.9892V94.9892L49.1506 94.771ZM48.8377 94.88L48.8209 95.1717H48.8209L48.8377 94.88ZM45.909 94.4787L45.8446 94.7638H45.8446L45.909 94.4787ZM45.6383 94.2876L45.3912 94.4436L45.6383 94.2876ZM45.582 93.961L45.297 93.8964L45.2969 93.8967L45.582 93.961ZM45.5827 93.958L45.2981 93.8916L45.298 93.8922L45.5827 93.958ZM45.5834 93.955L45.2993 93.8866L45.2992 93.8868L45.5834 93.955ZM45.6525 93.8042L45.89 93.9744L45.89 93.9744L45.6525 93.8042ZM45.7731 93.6904L45.6171 93.4433L45.6171 93.4433L45.7731 93.6904ZM45.9308 93.6297L45.9804 93.9178L45.9805 93.9178L45.9308 93.6297ZM46.0997 93.6341L46.0353 93.9192L46.0353 93.9192L46.0997 93.6341ZM54.8731 93.7406L55.0431 93.5028L55.0431 93.5028L54.8731 93.7406ZM55.0482 94.0205L55.3365 93.9723L55.3363 93.9717L55.0482 94.0205ZM55.0486 94.0231L55.3371 93.976L55.3369 93.9749L55.0486 94.0231ZM54.9727 94.3456L55.21 94.5163L55.21 94.5163L54.9727 94.3456ZM54.691 94.5201L54.7381 94.8085H54.7381L54.691 94.5201ZM51.7826 94.8604L51.8022 95.1521H51.8023L51.7826 94.8604ZM51.4687 94.7545L51.661 94.5344L51.4687 94.7545ZM51.3216 94.4576L51.0299 94.4757L51.03 94.4772L51.3216 94.4576ZM51.3214 94.454L51.0296 94.4712L51.0297 94.4721L51.3214 94.454ZM51.7245 93.9965L51.7049 93.7049H51.7049L51.7245 93.9965ZM71.4035 58.5835C71.9012 59.4161 72.3464 60.2754 72.7392 61.1615L73.2736 60.9246C72.8712 60.0169 72.415 59.1365 71.9052 58.2836L71.4035 58.5835ZM72.7392 61.1615C72.7562 61.1999 72.757 61.2299 72.7418 61.2691L73.2872 61.4795C73.3581 61.2956 73.3534 61.1047 73.2736 60.9246L72.7392 61.1615ZM72.7418 61.2691C72.7267 61.3083 72.706 61.33 72.6676 61.3471L72.9045 61.8815C73.0847 61.8016 73.2163 61.6633 73.2872 61.4795L72.7418 61.2691ZM72.6664 61.3476C72.6662 61.3477 72.6672 61.3473 72.6686 61.3466L72.8999 61.8835C72.9025 61.8824 72.9047 61.8814 72.9057 61.8809L72.6664 61.3476ZM72.6686 61.3466C72.6704 61.3459 72.6718 61.3453 72.6708 61.3457L72.894 61.886C72.8943 61.8859 72.8969 61.8848 72.8999 61.8835L72.6686 61.3466ZM72.6664 61.3476C72.6281 61.3641 72.5982 61.3647 72.5594 61.3495L72.3466 61.8939C72.529 61.9652 72.7187 61.9618 72.8985 61.8841L72.6664 61.3476ZM72.5594 61.3495C72.5205 61.3343 72.4989 61.3136 72.482 61.2755L71.9476 61.5124C72.027 61.6914 72.1642 61.8226 72.3466 61.8939L72.5594 61.3495ZM72.482 61.2755C72.1091 60.4342 71.6882 59.6172 71.2196 58.8246L70.7164 59.1222C71.1735 59.8952 71.5839 60.6919 71.9476 61.5124L72.482 61.2755ZM71.2196 58.8246C71.2003 58.7921 71.1812 58.7598 71.162 58.7278L70.6603 59.0277C70.6789 59.0589 70.6976 59.0904 70.7164 59.1222L71.2196 58.8246ZM71.162 58.7278C71.1404 58.6917 71.1361 58.6621 71.1463 58.6213L70.5795 58.4786C70.5314 58.6697 70.5592 58.8586 70.6603 59.0277L71.162 58.7278ZM71.1463 58.6213C71.1566 58.5806 71.1745 58.5565 71.2106 58.5349L70.9107 58.0332C70.7415 58.1343 70.6276 58.2875 70.5795 58.4786L71.1463 58.6213ZM71.2106 58.5349C71.2269 58.5252 71.2434 58.5193 71.2623 58.5165L71.1772 57.9382C71.0824 57.9521 70.9929 57.984 70.9107 58.0332L71.2106 58.5349ZM71.2623 58.5165C71.2811 58.5137 71.2986 58.5146 71.3171 58.5193L71.4598 57.9524C71.3669 57.929 71.272 57.9242 71.1772 57.9382L71.2623 58.5165ZM71.3171 58.5193C71.3355 58.5239 71.3514 58.5314 71.3667 58.5428L71.7154 58.0737C71.6386 58.0165 71.5527 57.9758 71.4598 57.9524L71.3171 58.5193ZM71.3667 58.5428C71.3819 58.5541 71.3937 58.5672 71.4035 58.5835L71.9052 58.2836C71.8561 58.2014 71.7923 58.1309 71.7155 58.0737L71.3667 58.5428ZM73.4069 63.2289C73.4045 63.2296 73.4024 63.2303 73.402 63.2304L73.5764 63.7883C73.5773 63.788 73.5764 63.7883 73.5753 63.7886L73.4069 63.2289ZM73.4015 63.2305C73.3998 63.2311 73.3984 63.2315 73.3976 63.2318C73.3971 63.2319 73.3968 63.2321 73.3965 63.2321C73.3964 63.2322 73.3963 63.2322 73.3962 63.2322C73.3961 63.2323 73.3961 63.2323 73.396 63.2323L73.5786 63.7876C73.5801 63.7871 73.5785 63.7876 73.5769 63.7881L73.4015 63.2305ZM73.3997 63.2311C73.2129 63.2898 73.0671 63.4114 72.9757 63.5846L73.4927 63.8573C73.5122 63.8204 73.5351 63.8013 73.5749 63.7888L73.3997 63.2311ZM72.9757 63.5846C72.8843 63.7578 72.8663 63.9467 72.9233 64.134L73.4826 63.9639C73.4704 63.924 73.4733 63.8942 73.4927 63.8573L72.9757 63.5846ZM72.9233 64.134C73.1961 65.0306 73.4128 65.9396 73.5734 66.8612L74.1493 66.7608C73.9846 65.8156 73.7623 64.8833 73.4826 63.9639L72.9233 64.134ZM73.5734 66.8611C73.6071 67.0541 73.7083 67.2146 73.868 67.3279L74.2064 66.8513C74.1724 66.8272 74.1565 66.8019 74.1493 66.7608L73.5734 66.8611ZM73.868 67.3279C74.0277 67.4413 74.2126 67.484 74.4058 67.4522L74.3107 66.8754C74.2696 66.8822 74.2405 66.8755 74.2064 66.8513L73.868 67.3279ZM74.4063 67.4521C74.4072 67.452 74.408 67.4518 74.4089 67.4517L74.3115 66.8753C74.3111 66.8754 74.3107 66.8754 74.3102 66.8755L74.4063 67.4521ZM74.4085 67.4517C74.4091 67.4516 74.4108 67.4513 74.4128 67.451L74.3116 66.8753L74.3119 66.8752L74.4085 67.4517ZM74.4124 67.4511C74.6065 67.4172 74.7677 67.315 74.8811 67.1538L74.4029 66.8175C74.3787 66.8519 74.3534 66.868 74.312 66.8752L74.4124 67.4511ZM74.8811 67.1538C74.9944 66.9926 75.0361 66.8063 75.0023 66.6121L74.4264 66.7125C74.4337 66.7539 74.4271 66.7832 74.4029 66.8175L74.8811 67.1538ZM75.0023 66.6121C74.8315 65.632 74.601 64.6652 74.3109 63.7118L73.7517 63.882C74.0348 64.8125 74.2597 65.756 74.4264 66.7125L75.0023 66.6121ZM74.3109 63.7118C74.2535 63.5233 74.1323 63.3758 73.9584 63.2831L73.6833 63.7988C73.7204 63.8186 73.7394 63.8418 73.7517 63.882L74.3109 63.7118ZM73.9584 63.2831C73.7845 63.1903 73.5945 63.1718 73.406 63.2291L73.5762 63.7884C73.6164 63.7761 73.6462 63.779 73.6833 63.7988L73.9584 63.2831ZM74.5709 68.8809C74.5703 68.8809 74.5688 68.881 74.567 68.8811L74.6018 69.4646L74.6018 69.4646L74.5709 68.8809ZM74.567 68.8811C74.5651 68.8812 74.5631 68.8813 74.5612 68.8815L74.6036 69.4645C74.603 69.4645 74.6024 69.4646 74.6018 69.4646L74.567 68.8811ZM74.5652 68.8812C74.3698 68.8927 74.1988 68.9751 74.068 69.1209L74.5031 69.5112C74.531 69.4802 74.5579 69.4672 74.5996 69.4647L74.5652 68.8812ZM74.068 69.1209C73.9373 69.2666 73.8738 69.4455 73.8835 69.6411L74.4674 69.6121C74.4653 69.5704 74.4753 69.5423 74.5031 69.5112L74.068 69.1209ZM73.8835 69.6411C73.9297 70.572 73.9187 71.5033 73.8505 72.4349L74.4335 72.4776C74.5035 71.5222 74.5147 70.567 74.4674 69.6121L73.8835 69.6411ZM73.8505 72.4349C73.8362 72.6302 73.8954 72.8105 74.0227 72.9593L74.4669 72.5793C74.4398 72.5476 74.4305 72.5192 74.4335 72.4775L73.8505 72.4349ZM74.0228 72.9593C74.1501 73.1081 74.319 73.1945 74.5142 73.2106L74.5622 72.628C74.5207 72.6246 74.494 72.611 74.4669 72.5793L74.0228 72.9593ZM74.515 73.2106C74.5155 73.2107 74.5161 73.2107 74.5168 73.2108L74.5636 72.6281C74.563 72.6281 74.5622 72.628 74.5615 72.6279L74.515 73.2106ZM74.5168 73.2108C74.5187 73.2109 74.5204 73.2111 74.5209 73.2111L74.5635 72.6281L74.5636 72.6281L74.5168 73.2108ZM74.5209 73.2111C74.7174 73.2255 74.8986 73.1655 75.0478 73.0367L74.6657 72.5943C74.6339 72.6218 74.6054 72.6312 74.5635 72.6281L74.5209 73.2111ZM75.0478 73.0367C75.1969 72.9079 75.2827 72.7373 75.2971 72.5408L74.7141 72.4981C74.711 72.54 74.6975 72.5668 74.6657 72.5943L75.0478 73.0367ZM75.2971 72.5408C75.3696 71.5501 75.3813 70.5595 75.3321 69.5692L74.7483 69.5982C74.7963 70.5646 74.7849 71.5312 74.7141 72.4981L75.2971 72.5408ZM75.3321 69.5692C75.3224 69.3724 75.2407 69.1998 75.0946 69.0675L74.7023 69.5009C74.7334 69.5291 74.7462 69.5562 74.7483 69.5982L75.3321 69.5692ZM75.0946 69.0676C74.9485 68.9353 74.7687 68.871 74.5719 68.8808L74.6009 69.4646C74.6429 69.4626 74.6711 69.4726 74.7022 69.5009L75.0946 69.0676ZM74.0506 75.318C74.0586 75.277 74.0751 75.2521 74.1097 75.2287L73.7818 74.7447C73.6197 74.8546 73.5149 75.0128 73.4771 75.205L74.0506 75.318ZM74.1097 75.2287C74.1442 75.2053 74.1735 75.1992 74.2145 75.2069L74.3223 74.6324C74.1298 74.5963 73.944 74.6349 73.7818 74.7447L74.1097 75.2287ZM74.2134 75.2067C74.2138 75.2068 74.2142 75.2068 74.2149 75.207L74.3257 74.633C74.3251 74.6329 74.3243 74.6328 74.3235 74.6326L74.2134 75.2067ZM74.2153 75.207C74.2157 75.2071 74.2162 75.2072 74.2168 75.2073L74.3277 74.6334C74.3271 74.6333 74.3262 74.6331 74.3254 74.633L74.2153 75.207ZM74.2158 75.2071C74.257 75.2153 74.282 75.2319 74.3054 75.2668L74.7908 74.9411C74.681 74.7775 74.5221 74.6717 74.3287 74.6336L74.2158 75.2071ZM74.3054 75.2668C74.3288 75.3017 74.3347 75.3311 74.3266 75.3723L74.9001 75.4853C74.9382 75.2919 74.9006 75.1047 74.7908 74.9411L74.3054 75.2668ZM74.3266 75.3723C74.276 75.6289 74.2213 75.8849 74.1623 76.1402L74.7319 76.2717C74.7923 76.0102 74.8483 75.7481 74.9001 75.4853L74.3266 75.3723ZM74.1623 76.1402C74.0017 76.8361 73.8112 77.5216 73.5908 78.1968L74.1465 78.3781C74.3722 77.6865 74.5674 76.9844 74.7319 76.2717L74.1623 76.1402ZM73.5908 78.1967C73.5778 78.2367 73.5583 78.2595 73.5208 78.2785L73.7855 78.7997C73.9612 78.7105 74.0853 78.5655 74.1465 78.3781L73.5908 78.1967ZM73.5208 78.2785C73.4833 78.2976 73.4534 78.2999 73.4135 78.2868L73.2321 78.8425C73.4194 78.9037 73.6098 78.8889 73.7855 78.7997L73.5208 78.2785ZM73.4165 78.2879L73.4128 78.2866L73.2253 78.8402L73.229 78.8415L73.4165 78.2879ZM73.4122 78.2864C73.3727 78.2731 73.3501 78.2535 73.3314 78.2162L72.809 78.4785C72.8969 78.6536 73.0402 78.778 73.2258 78.8404L73.4122 78.2864ZM73.3314 78.2162C73.3127 78.1789 73.3104 78.1491 73.3234 78.1095L72.7677 77.9281C72.7069 78.1143 72.7211 78.3035 72.809 78.4785L73.3314 78.2162ZM73.3234 78.1095C73.5412 77.4421 73.7295 76.7646 73.8882 76.077L73.3187 75.9455C73.1638 76.6164 72.9801 77.2773 72.7677 77.9281L73.3234 78.1095ZM73.8882 76.077C73.9465 75.8247 74.0006 75.5717 74.0506 75.318L73.4771 75.205C73.4283 75.4525 73.3755 75.6993 73.3187 75.9455L73.8882 76.077ZM72.2696 80.7765C72.2873 80.7388 72.3093 80.7185 72.3485 80.7042L72.1468 80.1555C71.963 80.2231 71.8231 80.3514 71.7402 80.5288L72.2696 80.7765ZM72.3485 80.7041C72.3876 80.6897 72.4175 80.6909 72.4554 80.7082L72.6983 80.1765C72.5202 80.0952 72.3305 80.0879 72.1467 80.1555L72.3485 80.7041ZM72.4564 80.7086L72.4566 80.7087L72.7008 80.1777C72.7007 80.1776 72.7007 80.1776 72.7005 80.1775C72.7004 80.1775 72.7001 80.1773 72.6999 80.1772C72.6993 80.177 72.6984 80.1766 72.6974 80.1761L72.4564 80.7086ZM72.4566 80.7087L72.4568 80.7088L72.7042 80.1792C72.7041 80.1792 72.7041 80.1792 72.7039 80.1791C72.7038 80.179 72.7035 80.1789 72.7032 80.1788C72.7027 80.1785 72.7018 80.1781 72.7008 80.1777L72.4566 80.7087ZM72.4566 80.7088C72.4947 80.7266 72.5149 80.7487 72.5292 80.7882L73.0788 80.589C73.0116 80.4038 72.8828 80.2628 72.7044 80.1793L72.4566 80.7088ZM72.5292 80.7882C72.5436 80.8278 72.5422 80.8577 72.5244 80.8958L73.0539 81.1435C73.1374 80.965 73.1459 80.7743 73.0788 80.589L72.5292 80.7882ZM72.5244 80.8958C72.1136 81.7737 71.6507 82.6228 71.1357 83.4432L71.6308 83.754C72.1585 82.9133 72.6329 82.0431 73.0538 81.1435L72.5244 80.8958ZM71.1357 83.4432C71.1133 83.4788 71.0889 83.4962 71.0479 83.5056L71.1782 84.0754C71.3703 84.0315 71.526 83.9209 71.6308 83.754L71.1357 83.4432ZM71.0479 83.5056C71.0069 83.5149 70.9774 83.5099 70.9418 83.4876L70.631 83.9827C70.7979 84.0874 70.9861 84.1193 71.1782 84.0754L71.0479 83.5056ZM70.9421 83.4878L70.9419 83.4876L70.6275 83.9805C70.6286 83.9812 70.6297 83.9818 70.6306 83.9824L70.9421 83.4878ZM70.9418 83.4876C70.9431 83.4885 70.9442 83.4892 70.9451 83.4898L70.6209 83.9762C70.6229 83.9775 70.6251 83.9789 70.6275 83.9805L70.9418 83.4876ZM70.9407 83.4869C70.9055 83.4644 70.8884 83.4399 70.8793 83.3992L70.3089 83.5269C70.3517 83.7179 70.4605 83.8734 70.6254 83.9791L70.9407 83.4869ZM70.8793 83.3992C70.8702 83.3585 70.8752 83.329 70.8974 83.2937L70.4024 82.9829C70.2982 83.1487 70.2661 83.3358 70.3089 83.5269L70.8793 83.3992ZM70.8974 83.2937C71.4063 82.483 71.8637 81.644 72.2696 80.7765L71.7402 80.5288C71.3444 81.3746 70.8985 82.1926 70.4023 82.9829L70.8974 83.2937ZM69.2259 85.6222C69.2523 85.5899 69.2785 85.5756 69.3199 85.5712L69.2577 84.99C69.0631 85.0108 68.8963 85.1013 68.7727 85.2531L69.2259 85.6222ZM69.3199 85.5712C69.3614 85.5668 69.39 85.5751 69.4226 85.6011L69.7875 85.1445C69.6346 85.0223 69.4524 84.9692 69.2578 84.99L69.3199 85.5712ZM69.422 85.6006L69.4224 85.6009L69.7908 85.1472C69.7896 85.1462 69.7885 85.1453 69.7881 85.145L69.422 85.6006ZM69.4224 85.601C69.4234 85.6018 69.4244 85.6026 69.4249 85.603L69.7914 85.1476L69.7908 85.1471L69.4224 85.601ZM69.4236 85.602C69.4562 85.6285 69.4704 85.6548 69.4747 85.6966L70.0562 85.6371C70.0361 85.4411 69.9455 85.2731 69.7927 85.1487L69.4236 85.602ZM69.4747 85.6966C69.4789 85.7384 69.4704 85.7671 69.4438 85.7996L69.8971 86.1687C70.0215 86.0159 70.0762 85.8331 70.0562 85.6371L69.4747 85.6966ZM69.4438 85.7996C68.8327 86.5502 68.1774 87.2613 67.4781 87.933L67.883 88.3546C68.5995 87.6664 69.2709 86.9378 69.8971 86.1687L69.4438 85.7996ZM67.4781 87.933C67.4478 87.9621 67.4199 87.973 67.3779 87.9721L67.3661 88.5565C67.5631 88.5605 67.7409 88.4911 67.883 88.3546L67.4781 87.933ZM67.3779 87.9721C67.3359 87.9713 67.3085 87.9593 67.2794 87.929L66.8578 88.3339C66.9943 88.476 67.1691 88.5526 67.3661 88.5565L67.3779 87.9721ZM67.2801 87.9297L67.2797 87.9292L66.8549 88.3308C66.8558 88.3318 66.8567 88.3327 66.8571 88.3331L67.2801 87.9297ZM67.2797 87.9293C67.2805 87.9301 67.281 87.9307 67.2812 87.9309L66.8506 88.3262C66.8517 88.3274 66.8532 88.329 66.8548 88.3307L67.2797 87.9293ZM67.2785 87.928C67.2499 87.8977 67.2393 87.8698 67.2403 87.8282L66.6559 87.8137C66.6511 88.0094 66.719 88.1866 66.8533 88.3291L67.2785 87.928ZM67.2403 87.8281C67.2413 87.7865 67.2534 87.7592 67.2834 87.7303L66.8785 87.3087C66.7373 87.4443 66.6608 87.618 66.6559 87.8137L67.2403 87.8281ZM67.2834 87.7303C67.9745 87.0666 68.622 86.3639 69.226 85.6222L68.7727 85.2531C68.1838 85.9763 67.5524 86.6615 66.8785 87.3087L67.2834 87.7303ZM65.0981 89.5864C65.1314 89.5614 65.1604 89.5539 65.2017 89.5596L65.2817 88.9806C65.0877 88.9538 64.9039 89.0013 64.7473 89.1188L65.0981 89.5864ZM65.2017 89.5596C65.243 89.5653 65.2689 89.5804 65.2942 89.6135L65.7586 89.2585C65.6397 89.1029 65.4757 89.0074 65.2817 88.9806L65.2017 89.5596ZM65.2943 89.6136L65.2945 89.6139L65.7607 89.2613C65.7598 89.2601 65.7589 89.2589 65.7585 89.2584L65.2943 89.6136ZM65.2945 89.6139L65.2947 89.6142L65.7628 89.2641C65.762 89.263 65.7612 89.262 65.7607 89.2613L65.2945 89.6139ZM65.295 89.6146C65.3202 89.6482 65.3276 89.6772 65.3217 89.7188L65.9004 89.8015C65.9282 89.6064 65.8808 89.4214 65.7626 89.2638L65.295 89.6146ZM65.3217 89.7188C65.3158 89.7604 65.3005 89.7863 65.2669 89.8115L65.6176 90.2791C65.7753 90.1608 65.8725 89.9965 65.9004 89.8015L65.3217 89.7188ZM65.2669 89.8115C64.4915 90.3931 63.6838 90.9256 62.8437 91.4092L63.1353 91.9158C63.9959 91.4204 64.8234 90.8749 65.6176 90.2791L65.2669 89.8115ZM62.8437 91.4092C62.8073 91.4301 62.7775 91.434 62.7369 91.4231L62.5849 91.9875C62.7752 92.0387 62.9645 92.0141 63.1353 91.9158L62.8437 91.4092ZM62.7369 91.4231C62.6963 91.4121 62.6726 91.3938 62.6516 91.3574L62.145 91.649C62.2433 91.8198 62.3946 91.9362 62.5849 91.9875L62.7369 91.4231ZM62.6532 91.3603L62.6513 91.3568L62.1415 91.6427L62.1434 91.6462L62.6532 91.3603ZM62.651 91.3563C62.6305 91.3199 62.6269 91.2903 62.6379 91.25L62.0742 91.0954C62.0224 91.2843 62.0456 91.4727 62.1418 91.6433L62.651 91.3563ZM62.6379 91.25C62.6489 91.2098 62.6672 91.1862 62.7034 91.1654L62.4118 90.6587C62.2421 90.7564 62.126 90.9066 62.0742 91.0954L62.6379 91.25ZM62.7034 91.1654C63.5336 90.6875 64.3319 90.1612 65.0981 89.5864L64.7473 89.1188C64 89.6794 63.2215 90.1927 62.4118 90.6587L62.7034 91.1654ZM43.4122 93.0935C43.4187 93.1109 43.4214 93.1279 43.4209 93.1465L44.0052 93.1637C44.008 93.0701 43.9929 92.9783 43.9604 92.8905L43.4122 93.0935ZM43.4209 93.1465C43.4203 93.1651 43.4166 93.1819 43.4091 93.1989L43.9443 93.4338C43.982 93.3481 44.0024 93.2574 44.0052 93.1637L43.4209 93.1465ZM43.4091 93.1987C43.4089 93.1993 43.4087 93.1997 43.4086 93.2L43.9418 93.4394C43.9427 93.4375 43.9435 93.4356 43.9443 93.434L43.4091 93.1987ZM43.4086 93.2C43.4086 93.2 43.4086 93.2001 43.4085 93.2003C43.4084 93.2005 43.4082 93.2008 43.408 93.2012L43.9393 93.445C43.9399 93.4436 43.9408 93.4417 43.9418 93.4394L43.4086 93.2ZM43.4081 93.201C43.3906 93.2392 43.3686 93.2596 43.3291 93.2742L43.5321 93.8224C43.7169 93.754 43.857 93.6242 43.9392 93.4451L43.4081 93.201ZM43.3292 93.2742C43.2897 93.2888 43.2598 93.2877 43.2216 93.2701L42.9775 93.8013C43.1566 93.8835 43.3473 93.8908 43.5321 93.8224L43.3292 93.2742ZM43.2216 93.2701C42.3243 92.8578 41.4978 92.3515 40.7413 91.7513L40.378 92.2092C41.1719 92.8391 42.0386 93.3698 42.9775 93.8013L43.2216 93.2701ZM40.7413 91.7512C40.7264 91.7394 40.715 91.7261 40.7058 91.7094L40.1949 91.9934C40.2414 92.0772 40.3029 92.1496 40.378 92.2092L40.7413 91.7512ZM40.7058 91.7094C40.6966 91.6928 40.6912 91.6761 40.689 91.6572L40.1083 91.724C40.1193 91.8192 40.1483 91.9097 40.1949 91.9934L40.7058 91.7094ZM40.689 91.6572C40.6868 91.6383 40.6883 91.6208 40.6935 91.6025L40.1314 91.442C40.1051 91.5341 40.0973 91.6289 40.1083 91.724L40.689 91.6572ZM40.6935 91.6025C40.6987 91.5842 40.7067 91.5686 40.7185 91.5537L40.2607 91.1903C40.2011 91.2653 40.1577 91.3499 40.1314 91.442L40.6935 91.6025ZM40.7183 91.554C40.7186 91.5536 40.7189 91.5532 40.7193 91.5527L40.2649 91.1851C40.2636 91.1866 40.2623 91.1883 40.2609 91.19L40.7183 91.554ZM40.7193 91.5527C40.7197 91.5523 40.72 91.5518 40.7205 91.5513L40.2687 91.1803C40.2674 91.1819 40.2662 91.1835 40.2649 91.1851L40.7193 91.5527ZM40.7202 91.5516C40.7465 91.5197 40.7727 91.5056 40.8139 91.5012L40.7524 90.9199C40.5589 90.9404 40.3927 91.0298 40.269 91.18L40.7202 91.5516ZM40.8139 91.5012C40.8551 91.4968 40.8837 91.5051 40.9162 91.5309L41.2795 91.073C41.1271 90.952 40.9459 90.8994 40.7524 90.9199L40.8139 91.5012ZM40.9162 91.5309C41.6556 92.1176 42.4635 92.6121 43.339 93.0145L43.5831 92.4834C42.7491 92.1001 41.9815 91.6299 41.2795 91.073L40.9162 91.5309ZM43.339 93.0145C43.3563 93.0225 43.3705 93.0328 43.3835 93.0467L43.8122 92.6494C43.7471 92.5792 43.6702 92.5234 43.5832 92.4834L43.339 93.0145ZM43.3835 93.0467C43.3964 93.0607 43.4056 93.0756 43.4122 93.0935L43.9604 92.8905C43.9271 92.8007 43.8774 92.7197 43.8123 92.6494L43.3835 93.0467ZM60.1345 92.4411C60.1729 92.4248 60.2028 92.4245 60.2416 92.44L60.4584 91.8972C60.2765 91.8245 60.0868 91.8265 59.9064 91.9029L60.1345 92.4411ZM60.2416 92.44C60.2803 92.4555 60.3018 92.4763 60.3184 92.5146L60.8545 92.2816C60.7765 92.102 60.6403 91.9698 60.4584 91.8972L60.2416 92.44ZM60.3178 92.5132L60.3193 92.5168L60.8567 92.2866L60.8551 92.283L60.3178 92.5132ZM60.3189 92.5158C60.3353 92.5545 60.3355 92.5844 60.3198 92.6234L60.8616 92.8427C60.9355 92.6601 60.934 92.4692 60.8571 92.2877L60.3189 92.5158ZM60.3198 92.6234C60.304 92.6624 60.2829 92.6838 60.2443 92.7001L60.4723 93.2384C60.6538 93.1615 60.7877 93.0254 60.8616 92.8427L60.3198 92.6234ZM60.2443 92.7001C59.5041 93.0137 58.7506 93.289 57.9836 93.5261L58.1562 94.0845C58.942 93.8417 59.7141 93.5596 60.4723 93.2384L60.2443 92.7001ZM57.9837 93.526C57.9824 93.5264 57.981 93.5268 57.9794 93.5273L58.1357 94.0905C58.1424 94.0887 58.1492 94.0867 58.1561 94.0846L57.9837 93.526ZM57.9795 93.5273C57.9781 93.5276 57.9768 93.528 57.9757 93.5283L58.1146 94.096C58.1217 94.0943 58.1287 94.0925 58.1356 94.0906L57.9795 93.5273ZM57.9756 93.5283L57.4768 93.6505L57.6159 94.2183L58.1147 94.096L57.9756 93.5283ZM57.4768 93.6505C57.436 93.6605 57.4063 93.656 57.3704 93.6342L57.0673 94.134C57.2358 94.2362 57.4245 94.2652 57.6159 94.2183L57.4768 93.6505ZM57.3704 93.6342C57.3344 93.6124 57.3167 93.5882 57.3067 93.5474L56.739 93.6865C56.7859 93.8779 56.8988 94.0318 57.0673 94.134L57.3704 93.6342ZM57.3068 93.5477L57.3067 93.5474L56.7379 93.682C56.7383 93.6838 56.7387 93.6853 56.7389 93.6862L57.3068 93.5477ZM57.3063 93.5458L57.3062 93.5452L56.7373 93.6798C56.7375 93.6804 56.7379 93.682 56.7383 93.6836L57.3063 93.5458ZM57.3063 93.5459C57.2969 93.5054 57.3016 93.4759 57.3234 93.4403L56.8252 93.1346C56.7229 93.3014 56.6926 93.4885 56.7372 93.679L57.3063 93.5459ZM57.3234 93.4403C57.3452 93.4048 57.3694 93.3872 57.4098 93.3773L57.2707 92.8095C57.0807 92.8561 56.9275 92.9679 56.8252 93.1346L57.3234 93.4403ZM57.4098 93.3773L57.8961 93.2581L57.757 92.6904L57.2707 92.8095L57.4098 93.3773ZM57.913 93.2534C58.6666 93.0201 59.4071 92.7493 60.1345 92.4411L59.9065 91.9029C59.1971 92.2035 58.475 92.4675 57.7401 92.6951L57.913 93.2534ZM48.8707 94.3073C48.9123 94.3097 48.9392 94.3226 48.9671 94.3536L49.4015 93.9624C49.2705 93.8171 49.0996 93.735 48.9043 93.7237L48.8707 94.3073ZM48.9671 94.3536C48.995 94.3846 49.0051 94.4127 49.0031 94.4543L49.587 94.4818C49.5962 94.2864 49.5324 94.1078 49.4015 93.9624L48.9671 94.3536ZM49.003 94.4562C49.0031 94.4551 49.0031 94.4543 49.0031 94.4551L49.5868 94.4856C49.5868 94.4849 49.587 94.4826 49.5871 94.4799L49.003 94.4562ZM49.0031 94.4551C49.003 94.456 49.0031 94.4552 49.0031 94.4541L49.5865 94.4912C49.5867 94.4885 49.5868 94.4862 49.5868 94.4856L49.0031 94.4551ZM49.003 94.4558C49.0006 94.4978 48.9876 94.5248 48.9562 94.5527L49.3451 94.9892C49.4922 94.8581 49.5753 94.6862 49.5866 94.4894L49.003 94.4558ZM48.9562 94.5527C48.9248 94.5807 48.8965 94.5906 48.8545 94.5882L48.8209 95.1717C49.0177 95.1831 49.1979 95.1203 49.3451 94.9892L48.9562 94.5527ZM48.8545 94.5882C47.8386 94.5297 46.8784 94.3979 45.9734 94.1936L45.8446 94.7638C46.7836 94.9758 47.7759 95.1116 48.8209 95.1717L48.8545 94.5882ZM45.9734 94.1936C45.9324 94.1843 45.9079 94.167 45.8854 94.1315L45.3912 94.4436C45.4964 94.6102 45.6524 94.7204 45.8446 94.7638L45.9734 94.1936ZM45.8854 94.1315C45.863 94.096 45.8579 94.0664 45.8671 94.0254L45.2969 93.8967C45.2535 94.0889 45.286 94.277 45.3912 94.4436L45.8854 94.1315ZM45.8671 94.0257C45.8671 94.0255 45.8672 94.0253 45.8675 94.0239L45.298 93.8922C45.2978 93.8928 45.2974 93.8946 45.297 93.8964L45.8671 94.0257ZM45.8673 94.0245C45.8674 94.0241 45.8675 94.0237 45.8676 94.0233L45.2992 93.8868C45.2989 93.8884 45.2985 93.89 45.2981 93.8916L45.8673 94.0245ZM45.8676 94.0235C45.872 94.0053 45.8791 93.9896 45.89 93.9744L45.4149 93.6339C45.3601 93.7103 45.3213 93.7952 45.2993 93.8866L45.8676 94.0235ZM45.89 93.9744C45.9009 93.9593 45.9134 93.9474 45.9292 93.9375L45.6171 93.4433C45.5376 93.4935 45.4697 93.5575 45.4149 93.6339L45.89 93.9744ZM45.9292 93.9375C45.9453 93.9273 45.9617 93.921 45.9804 93.9178L45.8812 93.3417C45.7868 93.358 45.6981 93.3921 45.6171 93.4433L45.9292 93.9375ZM45.9805 93.9178C45.9992 93.9145 46.0167 93.915 46.0353 93.9192L46.1641 93.349C46.0706 93.3279 45.9756 93.3254 45.8812 93.3417L45.9805 93.9178ZM46.0353 93.9192C46.928 94.1207 47.8732 94.2499 48.8707 94.3073L48.9043 93.7237C47.9358 93.668 47.0226 93.5428 46.1641 93.349L46.0353 93.9192ZM54.5987 93.9539C54.64 93.9472 54.6691 93.954 54.7031 93.9783L55.0431 93.5028C54.8834 93.3887 54.6983 93.3454 54.5046 93.377L54.5987 93.9539ZM54.7031 93.9783C54.7372 94.0027 54.753 94.028 54.76 94.0693L55.3363 93.9717C55.3036 93.7782 55.2027 93.617 55.0431 93.5028L54.7031 93.9783ZM54.7599 94.0686L54.7603 94.0712L55.3369 93.9749L55.3365 93.9723L54.7599 94.0686ZM54.7602 94.0701C54.7669 94.1116 54.7601 94.1408 54.7355 94.1749L55.21 94.5163C55.3251 94.3564 55.3688 94.1705 55.3371 93.976L54.7602 94.0701ZM54.7355 94.1749C54.711 94.209 54.6855 94.2248 54.644 94.2316L54.7381 94.8085C54.9326 94.7768 55.0949 94.6763 55.21 94.5163L54.7355 94.1749ZM54.644 94.2316C53.6456 94.3944 52.6853 94.5068 51.763 94.5688L51.8023 95.1521C52.7445 95.0887 53.7231 94.9741 54.7381 94.8085L54.644 94.2316ZM51.763 94.5688C51.7211 94.5717 51.6927 94.5621 51.661 94.5344L51.2764 94.9746C51.4248 95.1042 51.6056 95.1653 51.8022 95.1521L51.763 94.5688ZM51.661 94.5344C51.6294 94.5067 51.6161 94.4799 51.6132 94.4379L51.03 94.4772C51.0432 94.6738 51.128 94.8449 51.2764 94.9746L51.661 94.5344ZM51.6133 94.4394L51.6131 94.4359L51.0297 94.4721L51.0299 94.4757L51.6133 94.4394ZM51.6132 94.4368C51.6107 94.3951 51.6204 94.3668 51.648 94.3355L51.2095 93.9491C51.0799 94.0961 51.0181 94.2756 51.0296 94.4712L51.6132 94.4368ZM51.648 94.3355C51.6756 94.3042 51.7025 94.291 51.7441 94.2882L51.7049 93.7049C51.5094 93.7181 51.339 93.802 51.2095 93.9491L51.648 94.3355ZM51.7441 94.2882C52.6591 94.2266 53.6107 94.1151 54.5987 93.9539L54.5046 93.377C53.5331 93.5355 52.5999 93.6447 51.7049 93.7049L51.7441 94.2882Z" fill="black"/>
<rect x="58.8093" y="71.5" width="5.1633" height="1.16904" rx="0.584522" transform="rotate(40 58.8093 71.5)" fill="#0D0938" stroke="black" stroke-width="0.584542"/>
<rect x="60.2688" y="68.6758" width="5.1633" height="1.16904" rx="0.584522" transform="rotate(20 60.2688 68.6758)" fill="#0D0938" stroke="black" stroke-width="0.584542"/>
<rect width="5.1633" height="1.16904" rx="0.584522" transform="matrix(0.358368 0.93358 0.93358 -0.358368 55.3267 73.8203)" fill="#0D0938" stroke="black" stroke-width="0.584542"/>
<rect x="37.6611" y="51.8398" width="5.1633" height="1.16904" rx="0.584522" transform="rotate(-148 37.6611 51.8398)" fill="#0D0938" stroke="black" stroke-width="0.584542"/>
<rect x="36.6089" y="54.8438" width="5.1633" height="1.16904" rx="0.584522" transform="rotate(-168 36.6089 54.8438)" fill="#0D0938" stroke="black" stroke-width="0.584542"/>
<rect width="5.1633" height="1.16904" rx="0.584522" transform="matrix(-0.48481 -0.87462 -0.87462 0.48481 40.7869 49.0625)" fill="#0D0938" stroke="black" stroke-width="0.584542"/>
<path fill-rule="evenodd" clip-rule="evenodd" d="M67.7249 35.9739C71.9857 33.8029 77.1996 35.497 79.3706 39.7578C81.5416 44.0185 79.8474 49.2325 75.5867 51.4035L54.9513 61.9177C53.1051 62.8584 50.8723 61.7678 50.4793 59.7334C50.3695 59.1652 50.0276 58.6686 49.5359 58.3633L48.668 57.8244C47.603 57.1632 47.1059 55.8758 47.45 54.6704L48.217 51.9841C48.413 51.2977 48.0827 50.5703 47.4368 50.2662C45.7931 49.4923 45.7568 47.1672 47.3756 46.3424L67.7249 35.9739Z" fill="#FCBD01"/>
<path fill-rule="evenodd" clip-rule="evenodd" d="M80.7031 35.78L85.7349 45.6555C86.1799 46.5289 86.251 47.4317 85.948 48.3639C85.6451 49.2962 85.057 49.9848 84.1836 50.4298L56.1531 64.7121C55.7169 64.9343 55.2789 64.938 54.8391 64.7232C54.3992 64.5083 54.1329 64.1606 54.04 63.68L53.4021 60.378C53.3878 60.3037 53.3485 60.2467 53.2842 60.2068L50.5468 58.5071C50.0657 58.2084 49.9029 57.7867 50.0584 57.2422L51.4417 52.3971C51.4821 52.2558 51.4358 52.1538 51.3028 52.0911L48.5985 50.8179C48.045 50.5573 47.7634 50.1211 47.7539 49.5094C47.7444 48.8977 48.0121 48.4529 48.5573 48.1752L75.9287 34.2287C76.8021 33.7837 77.7049 33.7127 78.6372 34.0156C79.5694 34.3185 80.2581 34.9066 80.7031 35.78ZM79.9318 36.1725C79.5953 35.5122 79.0747 35.0675 78.3698 34.8385C77.665 34.6095 76.9824 34.6632 76.322 34.9997L48.9505 48.9461C48.7261 49.0605 48.6159 49.2435 48.6198 49.4953C48.6238 49.7472 48.7397 49.9267 48.9675 50.034L51.6718 51.3072C52.2486 51.5788 52.4496 52.0212 52.2745 52.6343L50.8911 57.4793C50.8553 57.6049 50.8928 57.7021 51.0038 57.771L53.7411 59.4706C54.0198 59.6436 54.1902 59.8912 54.2524 60.2132L54.8904 63.5152C54.9286 63.713 55.0382 63.8562 55.2193 63.9446C55.4004 64.0331 55.5807 64.0315 55.7602 63.94L83.7907 49.6578C84.4511 49.3213 84.8957 48.8007 85.1248 48.0958C85.3538 47.391 85.3001 46.7084 84.9636 46.048L79.9318 36.1725Z" fill="#0D0938"/>
<path d="M85.7349 45.6555L85.4745 45.7882L85.7349 45.6555ZM85.948 48.3639L85.6701 48.2736L85.6701 48.2736L85.948 48.3639ZM56.1531 64.7121L56.0204 64.4517L56.0204 64.4517L56.1531 64.7121ZM54.8391 64.7232L54.9674 64.4605L54.9674 64.4605L54.8391 64.7232ZM54.04 63.68L53.7531 63.7354L53.7531 63.7354L54.04 63.68ZM53.4021 60.378L53.1151 60.4334L53.1151 60.4334L53.4021 60.378ZM53.2842 60.2068L53.13 60.4551L53.13 60.4551L53.2842 60.2068ZM50.5468 58.5071L50.701 58.2588L50.701 58.2588L50.5468 58.5071ZM50.0584 57.2422L50.3394 57.3224L50.3394 57.3224L50.0584 57.2422ZM51.4417 52.3971L51.7228 52.4774L51.4417 52.3971ZM51.3028 52.0911L51.1783 52.3556L51.1783 52.3556L51.3028 52.0911ZM48.5985 50.8179L48.474 51.0823L48.474 51.0823L48.5985 50.8179ZM47.7539 49.5094L47.4617 49.514L47.4617 49.514L47.7539 49.5094ZM48.5573 48.1752L48.4246 47.9148L48.5573 48.1752ZM75.9287 34.2287L75.7961 33.9683L75.7961 33.9683L75.9287 34.2287ZM78.6372 34.0156L78.7275 33.7376L78.7275 33.7376L78.6372 34.0156ZM78.3698 34.8385L78.2795 35.1165L78.2795 35.1165L78.3698 34.8385ZM76.322 34.9997L76.4547 35.2601L76.4547 35.2601L76.322 34.9997ZM48.9505 48.9461L48.8179 48.6857L48.9505 48.9461ZM48.9675 50.034L48.843 50.2984L48.843 50.2984L48.9675 50.034ZM51.6718 51.3072L51.5473 51.5717L51.5473 51.5717L51.6718 51.3072ZM52.2745 52.6343L51.9935 52.5541L51.9935 52.5541L52.2745 52.6343ZM50.8911 57.4793L50.6101 57.3991L50.6101 57.3991L50.8911 57.4793ZM51.0038 57.771L50.8496 58.0193L50.8496 58.0193L51.0038 57.771ZM53.7411 59.4706L53.8953 59.2223L53.8953 59.2223L53.7411 59.4706ZM54.2524 60.2132L54.5394 60.1578L54.5394 60.1578L54.2524 60.2132ZM54.8904 63.5152L54.6034 63.5706L54.6034 63.5706L54.8904 63.5152ZM55.2193 63.9446L55.091 64.2072L55.2193 63.9446ZM85.1248 48.0958L84.8468 48.0055L84.8468 48.0055L85.1248 48.0958ZM84.9636 46.048L85.224 45.9153L84.9636 46.048ZM80.4427 35.9127L85.4745 45.7882L85.9953 45.5228L80.9635 35.6473L80.4427 35.9127ZM85.4745 45.7882C85.8843 46.5925 85.949 47.4151 85.6701 48.2736L86.226 48.4542C86.5529 47.4483 86.4755 46.4652 85.9953 45.5228L85.4745 45.7882ZM85.6701 48.2736C85.3911 49.1321 84.8552 49.7596 84.0509 50.1694L84.3163 50.6902C85.2588 50.21 85.8992 49.4602 86.226 48.4542L85.6701 48.2736ZM84.0509 50.1694L56.0204 64.4517L56.2858 64.9725L84.3163 50.6902L84.0509 50.1694ZM56.0204 64.4517C55.6661 64.6322 55.3247 64.6351 54.9674 64.4605L54.7108 64.9858C55.2332 65.2409 55.7678 65.2364 56.2858 64.9725L56.0204 64.4517ZM54.9674 64.4605C54.61 64.286 54.4024 64.015 54.327 63.6245L53.7531 63.7354C53.8633 64.3062 54.1885 64.7306 54.7108 64.9858L54.9674 64.4605ZM54.327 63.6245L53.6891 60.3225L53.1151 60.4334L53.7531 63.7354L54.327 63.6245ZM53.6891 60.3226C53.6593 60.1683 53.5718 60.0413 53.4384 59.9585L53.13 60.4551C53.1309 60.4556 53.1299 60.4551 53.1279 60.4532C53.1259 60.4514 53.1235 60.4487 53.1211 60.4452C53.1188 60.4418 53.1171 60.4386 53.1161 60.436C53.1151 60.4335 53.115 60.4325 53.1151 60.4334L53.6891 60.3226ZM53.4384 59.9585L50.701 58.2588L50.3927 58.7554L53.13 60.4551L53.4384 59.9585ZM50.701 58.2588C50.5006 58.1344 50.3898 57.9995 50.3365 57.8616C50.2832 57.7236 50.2746 57.5493 50.3394 57.3224L49.7773 57.1619C49.6866 57.4796 49.6817 57.7884 49.7912 58.0721C49.9008 58.3559 50.112 58.5812 50.3927 58.7554L50.701 58.2588ZM50.3394 57.3224L51.7228 52.4774L51.1607 52.3169L49.7773 57.1619L50.3394 57.3224ZM51.7228 52.4774C51.7559 52.3611 51.7631 52.2254 51.7034 52.0938C51.6436 51.9621 51.5366 51.8782 51.4273 51.8267L51.1783 52.3556C51.1901 52.3612 51.1919 52.3639 51.1886 52.3608C51.1846 52.3571 51.1772 52.3487 51.1711 52.3355C51.1651 52.3222 51.1637 52.3111 51.1636 52.3056C51.1634 52.3011 51.1643 52.3043 51.1607 52.3169L51.7228 52.4774ZM51.4273 51.8267L48.723 50.5535L48.474 51.0823L51.1783 52.3556L51.4273 51.8267ZM48.723 50.5535C48.4868 50.4422 48.3239 50.3013 48.2178 50.1368C48.1116 49.9723 48.0502 49.7659 48.0461 49.5048L47.4617 49.514C47.4671 49.8646 47.5513 50.1821 47.7266 50.4538C47.902 50.7255 48.1567 50.933 48.474 51.0823L48.723 50.5535ZM48.0461 49.5048C48.0421 49.2438 48.097 49.0355 48.198 48.8678C48.299 48.7001 48.4573 48.5541 48.69 48.4356L48.4246 47.9148C48.1121 48.074 47.864 48.2893 47.6972 48.5663C47.5304 48.8433 47.4562 49.1633 47.4617 49.514L48.0461 49.5048ZM48.69 48.4356L76.0614 34.4891L75.7961 33.9683L48.4246 47.9148L48.69 48.4356ZM76.0614 34.4891C76.8658 34.0793 77.6884 34.0146 78.5469 34.2935L78.7275 33.7376C77.7215 33.4107 76.7385 33.4881 75.7961 33.9683L76.0614 34.4891ZM78.5469 34.2935C79.4054 34.5725 80.0329 35.1084 80.4427 35.9127L80.9635 35.6473C80.4833 34.7049 79.7335 34.0645 78.7275 33.7376L78.5469 34.2935ZM80.1922 36.0399C79.8206 35.3104 79.2387 34.8135 78.4601 34.5605L78.2795 35.1165C78.9106 35.3215 79.3701 35.714 79.6714 36.3052L80.1922 36.0399ZM78.4601 34.5605C77.6816 34.3076 76.9188 34.3676 76.1893 34.7392L76.4547 35.2601C77.046 34.9588 77.6484 34.9114 78.2795 35.1165L78.4601 34.5605ZM76.1893 34.7392L48.8179 48.6857L49.0832 49.2065L76.4547 35.2601L76.1893 34.7392ZM48.8179 48.6857C48.6658 48.7632 48.5372 48.8722 48.4492 49.0184C48.3612 49.1646 48.3249 49.3292 48.3276 49.4999L48.9121 49.4908C48.9108 49.4097 48.9277 49.3568 48.95 49.3199C48.9722 49.2831 49.0109 49.2434 49.0832 49.2065L48.8179 48.6857ZM48.3276 49.4999C48.3303 49.6706 48.3716 49.834 48.4642 49.9774C48.5567 50.1207 48.6886 50.2257 48.843 50.2984L49.092 49.7696C49.0186 49.735 48.9786 49.6966 48.9553 49.6604C48.9319 49.6242 48.9133 49.5719 48.9121 49.4908L48.3276 49.4999ZM48.843 50.2984L51.5473 51.5717L51.7963 51.0428L49.092 49.7696L48.843 50.2984ZM51.5473 51.5717C51.7929 51.6873 51.9252 51.823 51.989 51.9636C52.0528 52.1041 52.068 52.2931 51.9935 52.5541L52.5555 52.7145C52.6561 52.3624 52.6583 52.0236 52.5212 51.7218C52.3842 51.42 52.1276 51.1988 51.7963 51.0428L51.5473 51.5717ZM51.9935 52.5541L50.6101 57.3991L51.1722 57.5596L52.5555 52.7145L51.9935 52.5541ZM50.6101 57.3991C50.5792 57.5073 50.5728 57.6302 50.6198 57.7517C50.6667 57.8732 50.754 57.9599 50.8496 58.0193L51.1579 57.5227C51.1499 57.5177 51.1493 57.516 51.1522 57.5193C51.1555 57.523 51.1609 57.5304 51.1651 57.5411C51.1692 57.5519 51.1702 57.561 51.1703 57.566C51.1703 57.5703 51.1696 57.5686 51.1722 57.5596L50.6101 57.3991ZM50.8496 58.0193L53.587 59.7189L53.8953 59.2223L51.1579 57.5227L50.8496 58.0193ZM53.587 59.7189C53.7964 59.849 53.9187 60.0266 53.9655 60.2686L54.5394 60.1578C54.4617 59.7557 54.2432 59.4383 53.8953 59.2223L53.587 59.7189ZM53.9655 60.2686L54.6034 63.5706L55.1773 63.4597L54.5394 60.1578L53.9655 60.2686ZM54.6034 63.5706C54.659 63.8586 54.8274 64.0785 55.091 64.2072L55.3476 63.682C55.249 63.6339 55.1981 63.5674 55.1773 63.4597L54.6034 63.5706ZM55.091 64.2072C55.3546 64.336 55.6315 64.3336 55.8929 64.2005L55.6275 63.6796C55.5298 63.7294 55.4461 63.7301 55.3476 63.682L55.091 64.2072ZM55.8929 64.2005L83.9234 49.9182L83.658 49.3974L55.6275 63.6796L55.8929 64.2005ZM83.9234 49.9182C84.6528 49.5465 85.1498 48.9647 85.4027 48.1861L84.8468 48.0055C84.6417 48.6366 84.2493 49.0961 83.658 49.3974L83.9234 49.9182ZM85.4027 48.1861C85.6557 47.4076 85.5957 46.6447 85.224 45.9153L84.7032 46.1807C85.0045 46.772 85.0519 47.3744 84.8468 48.0055L85.4027 48.1861ZM85.224 45.9153L80.1922 36.0399L79.6714 36.3052L84.7032 46.1807L85.224 45.9153Z" fill="black"/>
<rect x="74.3315" y="35.5117" width="17.3171" height="0.865853" transform="rotate(63 74.3315 35.5117)" fill="#0D0938" stroke="black" stroke-width="0.584542"/>
<path fill-rule="evenodd" clip-rule="evenodd" d="M36.6836 93.2988L25.3243 100.862C24.6875 101.286 23.8274 101.113 23.4034 100.477C23.2988 100.32 23.2274 100.143 23.1936 99.9576L20.7432 86.5325L31.9729 60.077C32.1374 59.6896 32.5182 59.4389 32.9381 59.4417L36.0524 59.4625C36.4727 59.4653 36.8495 59.7215 37.0072 60.1115L38.7435 64.4084C38.9584 64.9401 39.5626 65.1966 40.0943 64.9818L43.604 63.564C43.9305 63.4321 44.3012 63.4746 44.5891 63.6768L47.4972 65.7202C47.8983 66.002 48.0477 66.5266 47.8557 66.979L36.6836 93.2988Z" fill="#FCBD01"/>
<path fill-rule="evenodd" clip-rule="evenodd" d="M39.2322 95.3939L27.8728 102.957C27.4549 103.235 26.9998 103.325 26.5075 103.226C26.0152 103.128 25.6299 102.869 25.3516 102.451C25.213 102.243 25.1212 102.016 25.0763 101.77L22.6026 88.2174L33.883 61.6425C34.1393 61.0388 34.5948 60.7392 35.2496 60.7435L38.3639 60.7643C39.0201 60.7687 39.4712 61.0753 39.7172 61.6841L41.4535 65.9809C41.6046 66.3547 41.867 66.4661 42.2408 66.3151L45.7504 64.8974C46.2451 64.6975 46.7105 64.7509 47.1466 65.0573L50.0547 67.1007C50.7041 67.557 50.8735 68.151 50.5629 68.8828L39.3401 95.322L39.2322 95.3939ZM25.9286 101.615L23.5015 88.317L34.6805 61.9808C34.7864 61.7314 34.9743 61.6076 35.2443 61.6094L38.3586 61.6302C38.6283 61.632 38.8137 61.7581 38.9149 62.0085L40.6512 66.3053C40.8034 66.682 41.0664 66.9496 41.44 67.1083C41.8137 67.2669 42.1889 67.2701 42.5656 67.1179L46.0752 65.7002C46.2787 65.618 46.4701 65.6398 46.6493 65.7658L49.5574 67.8091C49.825 67.9971 49.8946 68.2423 49.7663 68.5445L38.6449 94.745L27.3934 102.236C26.865 102.588 26.4247 102.5 26.0728 101.971C26.0001 101.862 25.9521 101.743 25.9286 101.615Z" fill="#0D0938"/>
<path d="M27.8728 102.957L27.7109 102.714L27.8728 102.957ZM26.5075 103.226L26.565 102.94L26.565 102.94L26.5075 103.226ZM25.3516 102.451L25.1084 102.613L25.1084 102.613L25.3516 102.451ZM25.0763 101.77L24.7888 101.822L24.7888 101.822L25.0763 101.77ZM22.6026 88.2174L22.3336 88.1032L22.2994 88.1838L22.3151 88.2699L22.6026 88.2174ZM33.883 61.6425L34.1521 61.7567L34.1521 61.7567L33.883 61.6425ZM35.2496 60.7435L35.2477 61.0358L35.2477 61.0358L35.2496 60.7435ZM38.3639 60.7643L38.3619 61.0566L38.3619 61.0566L38.3639 60.7643ZM39.7172 61.6841L39.4462 61.7936L39.4462 61.7936L39.7172 61.6841ZM41.4535 65.9809L41.1825 66.0904L41.1825 66.0904L41.4535 65.9809ZM42.2408 66.3151L42.3503 66.5861L42.3503 66.5861L42.2408 66.3151ZM45.7504 64.8974L45.8599 65.1684L45.8599 65.1684L45.7504 64.8974ZM47.1466 65.0573L47.3146 64.8182L47.3146 64.8182L47.1466 65.0573ZM50.0547 67.1007L49.8867 67.3398L49.8867 67.3398L50.0547 67.1007ZM39.3401 95.322L39.5021 95.5653L39.5749 95.5168L39.6091 95.4362L39.3401 95.322ZM23.5015 88.317L23.2324 88.2028L23.1982 88.2834L23.2139 88.3695L23.5015 88.317ZM34.6805 61.9808L34.4115 61.8666L34.6805 61.9808ZM35.2443 61.6094L35.2424 61.9016L35.2424 61.9016L35.2443 61.6094ZM38.3586 61.6302L38.3566 61.9224L38.3566 61.9224L38.3586 61.6302ZM38.9149 62.0085L38.6439 62.118L38.6439 62.118L38.9149 62.0085ZM40.6512 66.3053L40.3802 66.4148L40.3802 66.4148L40.6512 66.3053ZM42.5656 67.1179L42.675 67.3889L42.675 67.3889L42.5656 67.1179ZM46.0752 65.7002L45.9657 65.4292L45.9657 65.4292L46.0752 65.7002ZM46.6493 65.7658L46.8173 65.5266L46.8173 65.5266L46.6493 65.7658ZM49.5574 67.8091L49.3894 68.0483L49.5574 67.8091ZM49.7663 68.5445L50.0354 68.6587L50.0354 68.6587L49.7663 68.5445ZM38.6449 94.745L38.8068 94.9883L38.8797 94.9398L38.9139 94.8592L38.6449 94.745ZM27.3934 102.236L27.2315 101.993L27.2315 101.993L27.3934 102.236ZM26.0728 101.971L26.316 101.809L26.316 101.809L26.0728 101.971ZM39.0702 95.1506L27.7109 102.714L28.0348 103.2L39.3942 95.6372L39.0702 95.1506ZM27.7109 102.714C27.3575 102.949 26.9813 103.023 26.565 102.94L26.45 103.513C27.0183 103.627 27.5524 103.522 28.0348 103.2L27.7109 102.714ZM26.565 102.94C26.1487 102.856 25.8302 102.643 25.5949 102.289L25.1084 102.613C25.4296 103.096 25.8818 103.399 26.45 103.513L26.565 102.94ZM25.5949 102.289C25.4783 102.114 25.4016 101.924 25.3638 101.718L24.7888 101.822C24.8408 102.108 24.9477 102.372 25.1084 102.613L25.5949 102.289ZM25.3638 101.718L22.8902 88.1649L22.3151 88.2699L24.7888 101.822L25.3638 101.718ZM22.8717 88.3316L34.1521 61.7567L33.614 61.5283L22.3336 88.1032L22.8717 88.3316ZM34.1521 61.7567C34.2623 61.497 34.4069 61.3214 34.5775 61.2092C34.748 61.097 34.9663 61.0339 35.2477 61.0358L35.2516 60.4513C34.8782 60.4488 34.5412 60.5333 34.2562 60.7208C33.9713 60.9083 33.76 61.1843 33.614 61.5283L34.1521 61.7567ZM35.2477 61.0358L38.3619 61.0566L38.3658 60.4721L35.2516 60.4513L35.2477 61.0358ZM38.3619 61.0566C38.644 61.0585 38.8614 61.1247 39.0301 61.2393C39.1987 61.3539 39.3404 61.5318 39.4462 61.7936L39.9882 61.5746C39.8479 61.2276 39.6411 60.9478 39.3586 60.7558C39.0762 60.5639 38.7399 60.4746 38.3658 60.4721L38.3619 61.0566ZM39.4462 61.7936L41.1825 66.0904L41.7245 65.8714L39.9882 61.5746L39.4462 61.7936ZM41.1825 66.0904C41.2749 66.3191 41.4217 66.5172 41.6494 66.6138C41.8771 66.7105 42.1216 66.6785 42.3503 66.5861L42.1313 66.0441C41.9862 66.1027 41.9125 66.0905 41.8778 66.0758C41.8431 66.061 41.7831 66.0165 41.7245 65.8714L41.1825 66.0904ZM42.3503 66.5861L45.8599 65.1684L45.6409 64.6264L42.1313 66.0441L42.3503 66.5861ZM45.8599 65.1684C46.2627 65.0056 46.6236 65.0471 46.9786 65.2965L47.3146 64.8182C46.7973 64.4547 46.2274 64.3895 45.6409 64.6264L45.8599 65.1684ZM46.9786 65.2965L49.8867 67.3398L50.2228 66.8615L47.3146 64.8182L46.9786 65.2965ZM49.8867 67.3398C50.1725 67.5406 50.3261 67.7524 50.3877 67.9686C50.4494 68.1849 50.4306 68.4463 50.2938 68.7686L50.8319 68.997C51.0057 68.5875 51.0576 68.1861 50.9499 67.8083C50.8422 67.4305 50.5864 67.117 50.2228 66.8615L49.8867 67.3398ZM50.2938 68.7686L39.0711 95.2078L39.6091 95.4362L50.8319 68.997L50.2938 68.7686ZM39.1781 95.0788L39.0702 95.1506L39.3942 95.6372L39.5021 95.5653L39.1781 95.0788ZM26.2161 101.562L23.789 88.2646L23.2139 88.3695L25.641 101.667L26.2161 101.562ZM23.7705 88.4312L34.9495 62.095L34.4115 61.8666L23.2324 88.2028L23.7705 88.4312ZM34.9495 62.095C34.9846 62.0124 35.0249 61.9692 35.0617 61.9449C35.0984 61.9207 35.1535 61.901 35.2424 61.9016L35.2463 61.3171C35.0652 61.3159 34.8913 61.3572 34.7401 61.4568C34.589 61.5564 34.4823 61.6999 34.4115 61.8666L34.9495 62.095ZM35.2424 61.9016L38.3566 61.9224L38.3605 61.3379L35.2463 61.3171L35.2424 61.9016ZM38.3566 61.9224C38.4454 61.923 38.4997 61.9434 38.5355 61.9678C38.5714 61.9921 38.6105 62.0353 38.6439 62.118L39.1858 61.899C39.1181 61.7312 39.0139 61.5861 38.8643 61.4844C38.7146 61.3827 38.5414 61.3391 38.3605 61.3379L38.3566 61.9224ZM38.6439 62.118L40.3802 66.4148L40.9222 66.1958L39.1858 61.899L38.6439 62.118ZM40.3802 66.4148C40.5615 66.8633 40.8807 67.1884 41.3258 67.3773L41.5542 66.8392C41.252 66.7109 41.0454 66.5007 40.9222 66.1958L40.3802 66.4148ZM41.3258 67.3773C41.7709 67.5662 42.2265 67.5701 42.675 67.3889L42.4561 66.8469C42.1512 66.9701 41.8565 66.9675 41.5542 66.8392L41.3258 67.3773ZM42.675 67.3889L46.1847 65.9712L45.9657 65.4292L42.4561 66.8469L42.675 67.3889ZM46.1847 65.9712C46.2965 65.926 46.3833 65.9361 46.4813 66.0049L46.8173 65.5266C46.5568 65.3436 46.2609 65.3099 45.9657 65.4292L46.1847 65.9712ZM46.4813 66.0049L49.3894 68.0483L49.7254 67.57L46.8173 65.5266L46.4813 66.0049ZM49.3894 68.0483C49.4841 68.1148 49.5173 68.1722 49.5292 68.2138C49.5411 68.2557 49.543 68.3226 49.4973 68.4303L50.0354 68.6587C50.118 68.4641 50.1492 68.2574 50.0915 68.0541C50.0337 67.8507 49.8983 67.6914 49.7254 67.57L49.3894 68.0483ZM49.4973 68.4303L38.3758 94.6308L38.9139 94.8592L50.0354 68.6587L49.4973 68.4303ZM38.4829 94.5018L27.2315 101.993L27.5554 102.48L38.8068 94.9883L38.4829 94.5018ZM27.2315 101.993C27.0047 102.144 26.8417 102.171 26.7244 102.147C26.6071 102.124 26.467 102.036 26.316 101.809L25.8295 102.133C26.0305 102.435 26.2865 102.656 26.6094 102.721C26.9323 102.785 27.2537 102.681 27.5554 102.48L27.2315 101.993ZM26.316 101.809C26.2655 101.733 26.2325 101.652 26.2161 101.562L25.641 101.667C25.6717 101.835 25.7348 101.991 25.8295 102.133L26.316 101.809Z" fill="black"/>
<rect x="24.7524" y="95.5352" width="8.36991" height="0.865853" transform="rotate(23 24.7524 95.5352)" fill="#0D0938" stroke="black" stroke-width="0.584542"/>
<rect x="26.3069" y="88.9023" width="14.4309" height="0.865853" rx="0.432926" transform="rotate(23 26.3069 88.9023)" fill="#0D0938" stroke="black" stroke-width="0.584542"/>
</g>
<defs>
<clipPath id="clip0">
<rect width="276.591" height="240" fill="white" transform="translate(0.70459 0.285156)"/>
</clipPath>
</defs>
</svg>
