<svg width="226" height="278" viewBox="0 0 226 278" fill="none" xmlns="http://www.w3.org/2000/svg">
<g clip-path="url(#clip0)">
<path d="M1.45429 74.6185C1.69656 82.2499 2.54449 89.962 3.55393 97.553C4.56337 105.265 5.89583 112.977 8.39925 120.326C13.2042 134.418 22.5314 145.804 30.6877 158.039C33.1104 161.632 35.3311 165.387 37.3096 169.264C44.2546 162.48 50.392 155.414 57.9426 149.156C60.3653 147.137 65.9374 142.413 68.6427 140.434C68.6427 139.505 68.6427 138.577 68.6427 137.608C68.6831 135.508 68.7234 133.368 68.8042 131.188C63.1917 122.183 57.7407 112.856 57.0543 103.246C56.5294 96.0994 57.4984 88.9526 59.9211 82.2499C60.7287 79.9484 61.7381 77.6872 62.9494 75.5068C58.7502 72.8823 55.843 66.8256 59.6788 62.7475C61.8592 60.446 65.0491 59.9614 68.2793 60.3248C68.5619 56.4082 69.1676 52.4916 70.9442 48.9383C72.8016 45.1832 75.1031 41.1858 79.7061 40.4994L79.7465 40.3379C81.2809 33.716 90.7292 32.1816 96.3014 33.7563C103.166 35.6945 108.657 41.4685 116.006 41.8319C116.248 41.8319 116.49 41.953 116.692 42.1145C117.096 42.5183 117.136 43.1643 116.732 43.5681C115.037 45.2236 112.897 46.3542 110.555 46.8387C110.958 47.1617 111.322 47.4847 111.685 47.8481C115.521 51.4014 119.519 54.9142 123.152 58.629C125.777 61.2939 128.402 63.9992 131.188 66.6641C133.853 69.2483 136.316 71.9536 138.738 74.78C139.384 75.5472 143.826 80.0695 143.18 81.2001C142.736 82.0076 138.294 81.1597 137.244 81.0789L135.71 80.9578C140.596 87.0548 144.068 94.3228 146.047 102.196C147.419 107.567 149.156 111.281 154.082 111.281C159.008 111.281 183.679 113.098 200.112 112.008C201.727 111.887 203.746 110.03 203.989 108.253C204.513 104.336 204.796 100.379 204.877 96.4224C205.24 69.5713 189.937 44.5372 169.062 28.5476C146.612 11.3064 118.105 3.59426 90.3255 0.646692C75.628 -0.806903 60.3653 -0.281994 46.7176 6.2188C34.0794 12.2754 23.662 22.814 15.2231 33.7967C10.8623 39.49 7.14754 45.587 4.64413 52.3301C1.9792 59.4365 1.21203 67.0679 1.45429 74.6185Z" fill="#F4F6F9"/>
<path d="M123.514 123.917C123.514 111.441 124.403 99.0446 124.443 86.6487C124.443 84.5894 124.201 80.7131 124.201 80.7131C124.201 80.7131 128.925 80.592 130.621 80.7131C132.841 80.8343 135.022 81.0362 137.243 81.1573C138.292 81.2381 142.734 82.086 143.178 81.2784C143.824 80.1479 139.383 75.6256 138.737 74.8584C136.314 72.032 133.851 69.3267 131.186 66.7425C128.4 64.0776 125.816 61.4126 123.151 58.7073C119.517 54.9926 115.519 51.4797 111.684 47.9265C104.617 41.4257 93.1098 35.0057 83.823 40.2144C78.3316 43.2831 76.5146 50.1069 75.3437 55.8001C74.9399 57.7787 74.6169 59.8379 74.3342 61.9375C69.7312 60.1609 63.2708 58.99 59.6772 62.7855C55.1145 67.55 59.9598 75.1007 65.2089 76.5543C67.8738 77.3214 70.5791 77.806 73.3652 78.0482C73.3652 81.2784 73.3652 85.3162 73.4056 89.6366" stroke="#132144" stroke-width="2.82644" stroke-linecap="round" stroke-linejoin="round"/>
<path d="M67.0671 69.248C67.7939 69.4096 68.6015 69.5711 69.3687 69.6922" stroke="#132144" stroke-width="2.82644" stroke-linecap="round" stroke-linejoin="round"/>
<path d="M97.3914 64.9258V68.2771" stroke="#132144" stroke-width="2.82644" stroke-linecap="round" stroke-linejoin="round"/>
<path d="M107.485 64.9258V68.2771" stroke="#132144" stroke-width="2.82644" stroke-linecap="round" stroke-linejoin="round"/>
<path d="M97.6338 80.8373C99.2489 78.6973 103.327 80.9988 104.942 82.2101" stroke="#132144" stroke-width="2.82644" stroke-linecap="round" stroke-linejoin="round"/>
<path d="M13.688 197.97C20.5926 188.32 27.9817 178.307 36.5014 170.07C43.7693 163.044 50.1086 155.655 57.9419 149.194C60.4453 147.135 66.1385 142.249 68.8035 140.352" stroke="#132144" stroke-width="2.82644" stroke-linecap="round" stroke-linejoin="round"/>
<path d="M120.043 140.634C123.515 140.634 126.947 138.575 129.814 135.547" stroke="#132144" stroke-width="2.82644" stroke-linecap="round" stroke-linejoin="round"/>
<path d="M82.4921 119.76C82.4921 119.76 82.0076 115.399 82.0076 111.483C82.0076 107.566 82.0076 101.711 82.0076 97.3909C82.0076 94.6452 82.694 86.9331 79.5849 85.8025C73.3668 83.5413 71.7113 95.049 71.469 97.3909C70.0962 110.11 68.8445 124.767 68.6426 137.647C68.5618 143.946 68.6022 150.286 68.6426 156.584C68.6829 160.42 68.6022 167.365 68.6022 167.365" stroke="#132144" stroke-width="2.82644" stroke-linecap="round" stroke-linejoin="round"/>
<path d="M108.455 119.315C108.697 117.983 106.234 115.116 104.659 114.47C102.519 113.541 99.4099 113.743 97.2295 114.026C93.5552 114.551 90.8499 115.924 87.337 117.256C85.2374 118.064 81.7649 120.527 81.7649 120.527" stroke="#132144" stroke-width="2.82644" stroke-linecap="round" stroke-linejoin="round"/>
<path d="M117.58 130.664C117.378 126.061 111.967 120.287 107.526 119.802C104.821 119.52 101.106 121.538 98.6025 122.629C96.1798 123.638 91.7383 126.465 91.7383 126.465" stroke="#132144" stroke-width="2.82644" stroke-linecap="round" stroke-linejoin="round"/>
<path d="M99.53 163.205C107.929 164.214 113.137 144.066 105.102 143.985C108.13 145.075 111.28 143.662 112.935 141.038C112.087 143.258 110.795 149.638 114.147 150.405C121.051 151.98 120.526 137.808 119.275 134.416C118.104 131.307 115.843 129.57 112.612 129.369C110.351 129.207 108.05 129.934 105.91 130.499C103.608 131.105 99.9742 133.729 99.9742 133.729" stroke="#132144" stroke-width="2.82644" stroke-linecap="round" stroke-linejoin="round"/>
<path d="M115.198 124.766C115.198 124.766 120.81 124.201 124.202 123.918C125.655 126.058 126.422 127.673 127.432 129.611C128.401 131.469 129.855 135.506 129.855 135.506C129.855 135.506 132.964 137.646 134.256 138.414C149.317 147.539 159.451 154.726 167.688 160.46C175.925 166.193 187.877 177.095 192.319 183.515C198.941 184.727 205.038 187.876 208.874 191.187C212.709 194.498 219.331 202.412 221.593 207.096C223.934 211.901 225.267 215.454 225.55 220.824" stroke="#132144" stroke-width="2.82644" stroke-linecap="round" stroke-linejoin="round"/>
<path d="M101.106 177.175C101.106 177.175 101.348 168.817 100.904 164.133" stroke="#132144" stroke-width="2.82644" stroke-linecap="round" stroke-linejoin="round"/>
<path d="M68.279 166.393C66.6235 166.393 66.6235 170.874 66.0178 175.962C65.6544 179.192 65.2507 188.075 65.2507 191.346C65.2507 192.921 65.0488 196.393 65.9371 197.564C66.5428 198.412 68.5213 199.946 69.3692 200.471C71.1458 201.561 72.7609 202.329 74.6587 203.257C80.473 206.205 87.1757 208.951 93.8784 209.395C96.5433 209.556 100.137 209.476 101.187 208.506C102.237 207.537 101.752 198.735 101.994 193.809C102.237 188.802 102.64 181.898 102.64 177.173C97.9162 178.91 91.2942 178.223 86.2067 177.173C80.1904 175.962 70.1364 171.117 68.279 166.393Z" stroke="#132144" stroke-width="2.82644" stroke-linecap="round" stroke-linejoin="round"/>
<path d="M118.105 207.984C116.086 206.208 112.815 199.424 113.906 197.123C119.639 200.191 115.278 192.802 113.986 190.178C113.461 189.128 110.393 184.081 112.29 182.869C113.34 182.223 115.44 184.161 116.53 184C123.556 182.869 108.374 161.065 107.526 157.916" stroke="#132144" stroke-width="2.82644" stroke-linecap="round" stroke-linejoin="round"/>
<path d="M105.467 211.981C109.666 210.325 114.794 208.67 119.316 207.983C122.667 207.458 126.826 207.579 130.016 209.154C134.094 211.173 136.396 213.192 139.101 216.786C139.788 211.213 143.664 208.549 149.599 210.285C155.535 212.021 159.169 213.838 164.337 218.683C161.995 212.021 170.232 213.515 172.938 213.636C176.572 213.757 183.759 215.655 183.759 219.249C183.759 221.025 175.966 221.106 172.736 217.553C169.505 214 167.446 209.073 175.36 208.549C170.273 208.508 166.881 207.741 164.862 205.561C163.61 204.228 162.884 201.24 163.247 199.383" stroke="#132144" stroke-width="2.82644" stroke-linecap="round" stroke-linejoin="round"/>
<path d="M115.763 275.5C115.844 275.944 116.046 276.146 116.006 276.59C115.804 274.853 116.773 273.4 117.096 271.785C117.701 268.958 117.257 266.172 116.692 263.386C115.965 259.712 115.683 255.27 113.502 252.081C112.008 249.94 111.645 250.183 112.816 247.397C114.108 244.288 115.683 242.026 115.561 238.554C115.36 232.78 113.26 226.077 110.514 220.99C109.222 218.607 108.213 214.973 106.476 213.035C104.983 211.339 103.125 209.563 101.187 208.473" stroke="#132144" stroke-width="2.82644" stroke-linecap="round" stroke-linejoin="round"/>
<path d="M59.073 260.639C60.7285 259.347 59.4364 250.383 59.5171 248.122C59.8402 240.571 60.6073 232.94 61.2938 225.43C62.1013 216.627 62.5051 205.241 65.8968 197.609" stroke="#132144" stroke-width="2.82644" stroke-linecap="round" stroke-linejoin="round"/>
<path d="M32.4638 237.419C30.8891 241.658 29.1932 244.727 26.3668 242.547C23.5404 240.366 25.1151 231.927 25.6804 228.737C26.5687 223.65 29.1125 218.239 33.231 214.847C37.4706 211.375 41.3873 209.881 46.7575 209.881C52.2892 209.881 56.8923 209.72 62.2221 210.85" stroke="#132144" stroke-width="2.82644" stroke-linecap="round" stroke-linejoin="round"/>
<path d="M47.7257 232.414C47.12 234.15 47.12 236.694 47.1604 239.965C47.2008 243.235 51.4 256.035 55.8012 250.544C57.2952 248.686 55.3167 243.276 55.1955 241.015C55.1551 238.794 55.8819 236.573 57.2952 234.837" stroke="#132144" stroke-width="2.82644" stroke-linecap="round" stroke-linejoin="round"/>
<path d="M42.8408 225.873C42.114 228.175 41.0642 230.92 40.7816 233.666C40.2567 238.955 40.2567 243.235 42.2352 248.161C42.8812 249.817 44.456 252.966 46.6363 252.926C49.0994 252.886 49.5435 250.544 49.9473 248.767" stroke="#132144" stroke-width="2.82644" stroke-linecap="round" stroke-linejoin="round"/>
<path d="M42.2351 248.118C43.0023 255.588 37.5513 254.215 35.9362 251.671C30.0007 242.183 32.3022 228.656 38.48 220.863" stroke="#132144" stroke-width="2.82644" stroke-linecap="round" stroke-linejoin="round"/>
<path d="M154.404 262.457C151.053 263.466 146.611 262.214 143.179 261.972C139.505 261.77 135.871 261.205 132.318 260.397C126.342 258.903 120.487 255.875 114.834 253.533" stroke="#132144" stroke-width="2.82644" stroke-linecap="round" stroke-linejoin="round"/>
<path d="M96.9871 203.218V202.531" stroke="#132144" stroke-width="2.82644" stroke-linecap="round" stroke-linejoin="round"/>
<path d="M73.3664 78.0503C71.9935 77.9292 70.6611 77.7677 69.3286 77.5254C69.8131 80.1903 70.5803 82.8149 71.5898 85.3586C71.6705 85.5202 71.7513 85.6817 71.9128 85.8028C72.3569 86.2066 73.0434 86.1258 73.4068 85.6817C73.3664 82.8956 73.3664 80.2711 73.3664 78.0503Z" fill="#132144"/>
<path d="M73.0829 67.1094C73.5675 67.3921 74.2135 67.2709 74.4961 66.7864C76.7169 63.112 80.5528 60.5683 82.289 56.6112C84.0253 52.6542 84.106 49.5048 82.8947 45.5881C85.0751 43.4481 87.2555 42.681 90.1223 43.5693C93.4736 44.5787 97.8748 46.7591 101.388 47.0821C106.717 47.5263 112.37 47.9704 116.772 43.6904C116.933 43.4885 117.054 43.2462 117.054 43.004C117.054 42.4387 116.61 41.9542 116.045 41.9138C108.736 41.5504 103.205 35.7764 96.3404 33.8383C90.728 32.2635 81.2796 33.7575 79.7856 40.4198L79.7452 40.5813C75.1018 41.2677 72.8407 45.2651 70.9833 49.0202C69.2067 52.5735 68.601 56.4901 68.3184 60.4067C69.6104 60.5683 70.9025 60.8509 72.1139 61.2143C72.235 62.9102 72.5176 64.5656 72.6388 66.3019C72.6388 66.5845 72.8003 66.9075 73.0829 67.1094Z" fill="#132144"/>
<path d="M59.6379 239.682C58.0228 239.359 56.7307 239.036 55.8828 237.461" stroke="#132144" stroke-width="2.82644" stroke-linecap="round" stroke-linejoin="round"/>
</g>
<defs>
<clipPath id="clip0">
<rect width="225.549" height="278" fill="white"/>
</clipPath>
</defs>
</svg>
