<svg xmlns="http://www.w3.org/2000/svg" viewBox="0 0 1024 1024">
    <path fill="#FFF" d="M10 10h1004v1004H10z"/>
    <path fill="#E8ECFF" d="M-2-2h1030v1030H-2V-2z"/>
    <path fill="#FDD5C3" d="M332 447c0 111 78 201 174 201 97 0 174-90 174-201s-77-201-174-201c-96 0-174 90-174 201z"/>
    <path fill="#555" d="M329 487s62-61 208-70c0 0 97-10 127-45l20 91s65-164-29-203c0 0-307-97-327 64 0-1-18 69 1 163z"/>
    <path fill="#FDD5C3" d="M447 584h122v115H447V584z"/>
    <path fill="#607BF1" d="M516 697c-176 0-318 107-318 240h636c0-133-142-240-318-240z"/>
</svg>