<svg width="48" height="48" viewBox="0 0 48 48" fill="none" xmlns="http://www.w3.org/2000/svg">
<path d="M31.7013 0H6.82529C6.13272 0 5.57129 0.561429 5.57129 1.65086V47.1429C5.57129 47.4386 6.13272 48 6.82529 48H41.1744C41.867 48 42.4284 47.4386 42.4284 47.1429V11.124C42.4284 10.5274 42.3487 10.3354 42.2082 10.194L32.2344 0.220286C32.093 0.0797143 31.901 0 31.7013 0Z" fill="#E9E9E0"/>
<path d="M32.1426 0.129395V10.2857H42.2989L32.1426 0.129395Z" fill="#D9D7CA"/>
<path d="M15.8574 11.143H10.7146C10.2414 11.143 9.85742 10.759 9.85742 10.2859C9.85742 9.81271 10.2414 9.42871 10.7146 9.42871H15.8574C16.3306 9.42871 16.7146 9.81271 16.7146 10.2859C16.7146 10.759 16.3306 11.143 15.8574 11.143Z" fill="#8697CB"/>
<path d="M18.4288 15.4286H10.7146C10.2414 15.4286 9.85742 15.0446 9.85742 14.5715C9.85742 14.0984 10.2414 13.7144 10.7146 13.7144H18.4288C18.902 13.7144 19.286 14.0984 19.286 14.5715C19.286 15.0446 18.902 15.4286 18.4288 15.4286Z" fill="#8697CB"/>
<path d="M21.8571 15.4287C21.6343 15.4287 21.4114 15.3344 21.2486 15.1801C21.0943 15.0172 21 14.7944 21 14.5715C21 14.3487 21.0943 14.1258 21.2486 13.963C21.5657 13.6458 22.1486 13.6458 22.4657 13.963C22.62 14.1258 22.7143 14.3487 22.7143 14.5715C22.7143 14.7944 22.62 15.0172 22.4657 15.1801C22.3029 15.3344 22.08 15.4287 21.8571 15.4287Z" fill="#8697CB"/>
<path d="M32.143 15.4286H25.2859C24.8127 15.4286 24.4287 15.0446 24.4287 14.5715C24.4287 14.0984 24.8127 13.7144 25.2859 13.7144H32.143C32.6161 13.7144 33.0001 14.0984 33.0001 14.5715C33.0001 15.0446 32.6161 15.4286 32.143 15.4286Z" fill="#8697CB"/>
<path d="M10.7146 28.2856C10.4917 28.2856 10.2689 28.1913 10.106 28.037C9.95171 27.8742 9.85742 27.6513 9.85742 27.4285C9.85742 27.2056 9.95171 26.9827 10.106 26.8199C10.4231 26.5027 11.006 26.5027 11.3231 26.8199C11.4774 26.9827 11.5717 27.197 11.5717 27.4285C11.5717 27.6513 11.4774 27.8742 11.3231 28.037C11.1603 28.1913 10.9374 28.2856 10.7146 28.2856Z" fill="#8697CB"/>
<path d="M20.9994 28.2856H14.1423C13.6692 28.2856 13.2852 27.9016 13.2852 27.4284C13.2852 26.9553 13.6692 26.5713 14.1423 26.5713H20.9994C21.4726 26.5713 21.8566 26.9553 21.8566 27.4284C21.8566 27.9016 21.4726 28.2856 20.9994 28.2856Z" fill="#8697CB"/>
<path d="M37.2853 15.4286H35.571C35.0979 15.4286 34.7139 15.0446 34.7139 14.5715C34.7139 14.0984 35.0979 13.7144 35.571 13.7144H37.2853C37.7584 13.7144 38.1424 14.0984 38.1424 14.5715C38.1424 15.0446 37.7584 15.4286 37.2853 15.4286Z" fill="#8697CB"/>
<path d="M29.5717 19.7143H10.7146C10.2414 19.7143 9.85742 19.3303 9.85742 18.8571C9.85742 18.384 10.2414 18 10.7146 18H29.5717C30.0449 18 30.4289 18.384 30.4289 18.8571C30.4289 19.3303 30.0449 19.7143 29.5717 19.7143Z" fill="#8697CB"/>
<path d="M37.2852 19.7143H32.1423C31.6692 19.7143 31.2852 19.3303 31.2852 18.8571C31.2852 18.384 31.6692 18 32.1423 18H37.2852C37.7583 18 38.1423 18.384 38.1423 18.8571C38.1423 19.3303 37.7583 19.7143 37.2852 19.7143Z" fill="#8697CB"/>
<path d="M14.1431 23.9999H10.7146C10.2414 23.9999 9.85742 23.6159 9.85742 23.1428C9.85742 22.6696 10.2414 22.2856 10.7146 22.2856H14.1431C14.6163 22.2856 15.0003 22.6696 15.0003 23.1428C15.0003 23.6159 14.6163 23.9999 14.1431 23.9999Z" fill="#8697CB"/>
<path d="M26.1424 23.9999H17.571C17.0979 23.9999 16.7139 23.6159 16.7139 23.1428C16.7139 22.6696 17.0979 22.2856 17.571 22.2856H26.1424C26.6156 22.2856 26.9996 22.6696 26.9996 23.1428C26.9996 23.6159 26.6156 23.9999 26.1424 23.9999Z" fill="#8697CB"/>
<path d="M37.2853 23.9999H29.571C29.0979 23.9999 28.7139 23.6159 28.7139 23.1428C28.7139 22.6696 29.0979 22.2856 29.571 22.2856H37.2853C37.7584 22.2856 38.1424 22.6696 38.1424 23.1428C38.1424 23.6159 37.7584 23.9999 37.2853 23.9999Z" fill="#8697CB"/>
<path d="M41.1744 48.0001H6.82529C6.13272 48.0001 5.57129 47.4387 5.57129 46.7461V33.4287H42.4284V46.7461C42.4284 47.4387 41.867 48.0001 41.1744 48.0001Z" fill="#0096E6"/>
<path d="M20.1429 40.8703C20.1429 41.5808 20.0666 42.1886 19.914 42.6926C19.7615 43.1966 19.5686 43.6183 19.3338 43.9586C19.0989 44.2988 18.8358 44.5663 18.5426 44.7617C18.2495 44.9571 17.9666 45.1028 17.6932 45.2014C17.4198 45.2991 17.1695 45.3617 16.9432 45.3891C16.7169 45.4148 16.5489 45.4286 16.44 45.4286H13.1709V36.792H15.7715C16.4983 36.792 17.1369 36.9077 17.6872 37.1374C18.2375 37.3671 18.6952 37.6749 19.0586 38.0571C19.422 38.4394 19.6929 38.8757 19.8729 39.3634C20.0529 39.852 20.1429 40.3543 20.1429 40.8703ZM15.9712 44.3974C16.9243 44.3974 17.6118 44.0931 18.0335 43.4837C18.4552 42.8743 18.666 41.9914 18.666 40.8351C18.666 40.476 18.6232 40.1203 18.5375 39.7688C18.4509 39.4174 18.2855 39.0994 18.0395 38.814C17.7935 38.5286 17.4592 38.298 17.0375 38.1223C16.6158 37.9466 16.0689 37.8583 15.3969 37.8583H14.5766V44.3974H15.9712Z" fill="white"/>
<path d="M28.6929 41.0691C28.6929 41.7959 28.6012 42.4362 28.4178 42.9908C28.2343 43.5454 27.9798 44.0065 27.6558 44.3734C27.3318 44.7411 26.9529 45.0179 26.5192 45.2057C26.0855 45.3934 25.6106 45.4868 25.0955 45.4868C24.5803 45.4868 24.1055 45.3934 23.6718 45.2057C23.238 45.0179 22.8592 44.7411 22.5352 44.3734C22.2112 44.0057 21.9566 43.5454 21.7732 42.9908C21.5898 42.4362 21.498 41.7951 21.498 41.0691C21.498 40.3431 21.5898 39.7037 21.7732 39.1534C21.9566 38.6022 22.2103 38.1437 22.5352 37.7768C22.8592 37.4091 23.238 37.1305 23.6718 36.9385C24.1055 36.7465 24.5803 36.6514 25.0955 36.6514C25.6106 36.6514 26.0855 36.7465 26.5192 36.9385C26.9529 37.1305 27.3318 37.4091 27.6558 37.7768C27.9798 38.1445 28.2335 38.6031 28.4178 39.1534C28.6003 39.7037 28.6929 40.3422 28.6929 41.0691ZM25.0595 44.3391C25.3483 44.3391 25.6235 44.2825 25.8858 44.1694C26.1472 44.0562 26.382 43.8702 26.5886 43.6131C26.7952 43.3551 26.958 43.0174 27.0746 42.5991C27.1912 42.1808 27.2538 41.6717 27.2623 41.0699C27.2546 40.4837 27.1938 39.9857 27.0806 39.5759C26.9675 39.1654 26.8115 38.8277 26.6118 38.5619C26.412 38.2962 26.1858 38.1051 25.932 37.9877C25.6783 37.8702 25.4109 37.8119 25.1289 37.8119C24.84 37.8119 24.564 37.8659 24.3026 37.9757C24.0403 38.0854 23.8063 38.2705 23.5998 38.5319C23.3923 38.7942 23.2303 39.1311 23.1138 39.5459C22.9972 39.9608 22.9338 40.4674 22.926 41.0691C22.9338 41.6554 22.9946 42.1551 23.1078 42.5691C23.2209 42.9831 23.3769 43.3208 23.5766 43.5831C23.7763 43.8454 24.0026 44.0356 24.2563 44.1574C24.5109 44.2782 24.7783 44.3391 25.0595 44.3391Z" fill="white"/>
<path d="M36.5206 44.5499C36.2001 44.8619 35.8366 45.0968 35.4312 45.2528C35.0249 45.4096 34.5878 45.4868 34.1189 45.4868C33.6029 45.4868 33.1289 45.3934 32.6952 45.2057C32.2615 45.0179 31.8826 44.7411 31.5586 44.3734C31.2346 44.0057 30.9801 43.5454 30.7966 42.9908C30.6132 42.4362 30.5215 41.7951 30.5215 41.0691C30.5215 40.3431 30.6132 39.7037 30.7966 39.1534C30.9801 38.6022 31.2338 38.1437 31.5586 37.7768C31.8826 37.4091 32.2632 37.1305 32.7012 36.9385C33.1383 36.7465 33.6115 36.6514 34.1189 36.6514C34.5878 36.6514 35.0249 36.7294 35.4312 36.8854C35.8375 37.0422 36.2001 37.2762 36.5206 37.5882L35.5478 38.4557C35.3523 38.2285 35.1355 38.0648 34.8972 37.9637C34.6589 37.8625 34.4112 37.8111 34.1532 37.8111C33.8643 37.8111 33.5883 37.8651 33.3269 37.9748C33.0646 38.0845 32.8306 38.2697 32.6241 38.5311C32.4166 38.7934 32.2546 39.1302 32.1381 39.5451C32.0215 39.9599 31.9581 40.4665 31.9503 41.0682C31.9581 41.6545 32.0189 42.1542 32.1321 42.5682C32.2452 42.9822 32.4012 43.3199 32.6009 43.5822C32.8006 43.8445 33.0269 44.0348 33.2806 44.1565C33.5343 44.2782 33.8018 44.3382 34.0838 44.3382C34.3658 44.3382 34.6289 44.2868 34.8749 44.1856C35.1209 44.0845 35.3455 43.9199 35.5486 43.6937L36.5206 44.5499Z" fill="white"/>
</svg>
