<svg width="49" height="48" viewBox="0 0 49 48" fill="none" xmlns="http://www.w3.org/2000/svg">
<path d="M32.1339 0H7.25791C6.56533 0 6.00391 0.561429 6.00391 1.65086V47.1429C6.00391 47.4386 6.56533 48 7.25791 48H41.6071C42.2996 48 42.8611 47.4386 42.8611 47.1429V11.124C42.8611 10.5274 42.7813 10.3354 42.6408 10.194L32.6671 0.220286C32.5256 0.0797143 32.3336 0 32.1339 0Z" fill="#E9E9E0"/>
<path d="M32.5752 0.129395V10.2857H42.7315L32.5752 0.129395Z" fill="#D9D7CA"/>
<path d="M17.1587 28.5632C16.8604 28.5632 16.5741 28.4663 16.3298 28.2838C15.4375 27.6143 15.3175 26.8695 15.3741 26.362C15.5301 24.9666 17.2555 23.506 20.5041 22.018C21.7933 19.1929 23.0198 15.712 23.751 12.8038C22.8955 10.942 22.0641 8.52661 22.6701 7.10976C22.8827 6.61347 23.1475 6.2329 23.6421 6.06833C23.8375 6.00318 24.3313 5.9209 24.513 5.9209C24.945 5.9209 25.3247 6.47718 25.5938 6.82004C25.8467 7.14233 26.4201 7.82547 25.2741 12.6503C26.4295 15.0366 28.0667 17.4675 29.6352 19.132C30.759 18.9289 31.7258 18.8252 32.5135 18.8252C33.8558 18.8252 34.6692 19.138 35.001 19.7826C35.2752 20.3158 35.163 20.9389 34.6667 21.634C34.1892 22.3018 33.531 22.6549 32.7638 22.6549C31.7215 22.6549 30.5078 21.9966 29.1544 20.6963C26.7227 21.2046 23.883 22.1115 21.5875 23.1152C20.871 24.6358 20.1844 25.8606 19.545 26.7589C18.6664 27.9889 17.9087 28.5632 17.1587 28.5632ZM19.4404 24.1695C17.6087 25.1989 16.8621 26.0449 16.8081 26.5215C16.7995 26.6003 16.7764 26.8078 17.1775 27.1146C17.3053 27.0743 18.051 26.734 19.4404 24.1695ZM31.1292 20.362C31.8278 20.8995 31.9984 21.1712 32.4552 21.1712C32.6558 21.1712 33.2275 21.1626 33.4924 20.7932C33.6201 20.614 33.6698 20.4992 33.6895 20.4375C33.5841 20.3818 33.4444 20.2686 32.6824 20.2686C32.2495 20.2695 31.7052 20.2883 31.1292 20.362ZM24.7264 14.7203C24.1135 16.8409 23.3044 19.1303 22.4344 21.2038C24.2258 20.5086 26.1733 19.9018 28.0024 19.4723C26.8453 18.1283 25.689 16.45 24.7264 14.7203ZM24.2061 7.46718C24.1221 7.49547 23.0661 8.97318 24.2884 10.2238C25.1018 8.4109 24.243 7.45518 24.2061 7.46718Z" fill="#CC4B4C"/>
<path d="M41.6071 48.0001H7.25791C6.56533 48.0001 6.00391 47.4387 6.00391 46.7461V33.4287H42.8611V46.7461C42.8611 47.4387 42.2996 48.0001 41.6071 48.0001Z" fill="#CC4B4C"/>
<path d="M15.3343 45.4286H13.9277V36.792H16.4117C16.7786 36.792 17.142 36.8503 17.5012 36.9677C17.8603 37.0851 18.1826 37.2608 18.468 37.4948C18.7534 37.7288 18.984 38.0126 19.1597 38.3443C19.3354 38.676 19.4237 39.0488 19.4237 39.4637C19.4237 39.9017 19.3492 40.2977 19.2009 40.6534C19.0526 41.0091 18.8452 41.3083 18.5794 41.55C18.3137 41.7917 17.9932 41.9794 17.6186 42.1123C17.244 42.2451 16.8292 42.3111 16.3766 42.3111H15.3334V45.4286H15.3343ZM15.3343 37.8583V41.28H16.6234C16.7949 41.28 16.9646 41.2508 17.1334 41.1917C17.3014 41.1334 17.4557 41.0374 17.5963 40.9046C17.7369 40.7717 17.85 40.5866 17.9357 40.3483C18.0214 40.11 18.0643 39.8151 18.0643 39.4637C18.0643 39.3231 18.0446 39.1603 18.006 38.9777C17.9666 38.7943 17.8869 38.6186 17.766 38.4506C17.6443 38.2826 17.4746 38.142 17.256 38.0288C17.0374 37.9157 16.7477 37.8591 16.3886 37.8591H15.3343V37.8583Z" fill="white"/>
<path d="M28.049 40.8703C28.049 41.5808 27.9727 42.1886 27.8202 42.6926C27.6676 43.1966 27.4747 43.6183 27.2399 43.9586C27.005 44.2988 26.7419 44.5663 26.4487 44.7617C26.1556 44.9571 25.8727 45.1028 25.5993 45.2014C25.3259 45.2991 25.0756 45.3617 24.8493 45.3891C24.623 45.4148 24.455 45.4286 24.3453 45.4286H21.0762V36.792H23.6776C24.4045 36.792 25.043 36.9077 25.5933 37.1374C26.1436 37.3671 26.6013 37.6749 26.9647 38.0571C27.3282 38.4394 27.599 38.8757 27.779 39.3634C27.959 39.852 28.049 40.3543 28.049 40.8703ZM23.8773 44.3974C24.8305 44.3974 25.5179 44.0931 25.9396 43.4837C26.3613 42.8743 26.5722 41.9914 26.5722 40.8351C26.5722 40.476 26.5293 40.1203 26.4436 39.7688C26.357 39.4174 26.1916 39.0994 25.9456 38.814C25.6996 38.5286 25.3653 38.298 24.9436 38.1223C24.5219 37.9466 23.975 37.8583 23.303 37.8583H22.4827V44.3974H23.8773Z" fill="white"/>
<path d="M31.5176 37.8583V40.5771H35.127V41.538H31.5176V45.4286H30.0879V36.792H35.4896V37.8583H31.5176Z" fill="white"/>
</svg>
