<svg width="20" height="20" viewBox="0 0 20 20" fill="none" xmlns="http://www.w3.org/2000/svg">
<path fill-rule="evenodd" clip-rule="evenodd" d="M4 7.75C4 5.99565 5.39004 4.56596 7.12881 4.50222C7.43832 5.37495 8.27116 6 9.25 6H10.75C11.7288 6 12.5617 5.37496 12.8712 4.50222C14.61 4.56596 16 5.99565 16 7.75V13.75C16 15.5449 14.5449 17 12.75 17H7.25C5.45507 17 4 15.5449 4 13.75V7.75ZM17.5 7.75C17.5 5.16761 15.4392 3.06653 12.8725 3.00155C12.5641 2.12685 11.7302 1.5 10.75 1.5H9.25C8.26976 1.5 7.43592 2.12685 7.12748 3.00155C4.56075 3.06653 2.5 5.16761 2.5 7.75V13.75C2.5 16.3734 4.62665 18.5 7.25 18.5H12.75C15.3734 18.5 17.5 16.3734 17.5 13.75V7.75ZM9.25 3C8.83579 3 8.5 3.33579 8.5 3.75C8.5 4.16421 8.83579 4.5 9.25 4.5H10.75C11.1642 4.5 11.5 4.16421 11.5 3.75C11.5 3.33579 11.1642 3 10.75 3H9.25ZM7.25 8.25C7.25 7.83579 6.91421 7.5 6.5 7.5C6.08579 7.5 5.75 7.83579 5.75 8.25C5.75 8.66421 6.08579 9 6.5 9C6.91421 9 7.25 8.66421 7.25 8.25ZM8.75 8.25C8.75 7.83579 9.08579 7.5 9.5 7.5H13.5C13.9142 7.5 14.25 7.83579 14.25 8.25C14.25 8.66421 13.9142 9 13.5 9H9.5C9.08579 9 8.75 8.66421 8.75 8.25ZM7.25 11.25C7.25 10.8358 6.91421 10.5 6.5 10.5C6.08579 10.5 5.75 10.8358 5.75 11.25C5.75 11.6642 6.08579 12 6.5 12C6.91421 12 7.25 11.6642 7.25 11.25ZM8.75 11.25C8.75 10.8358 9.08579 10.5 9.5 10.5H13.5C13.9142 10.5 14.25 10.8358 14.25 11.25C14.25 11.6642 13.9142 12 13.5 12H9.5C9.08579 12 8.75 11.6642 8.75 11.25ZM6.5 13.5C6.91421 13.5 7.25 13.8358 7.25 14.25C7.25 14.6642 6.91421 15 6.5 15C6.08579 15 5.75 14.6642 5.75 14.25C5.75 13.8358 6.08579 13.5 6.5 13.5ZM9.5 13.5C9.08579 13.5 8.75 13.8358 8.75 14.25C8.75 14.6642 9.08579 15 9.5 15H12C12.4142 15 12.75 14.6642 12.75 14.25C12.75 13.8358 12.4142 13.5 12 13.5H9.5Z" fill="#6F7883"/>
</svg>
