<svg width="16" height="16" viewBox="0 0 16 16" fill="none" xmlns="http://www.w3.org/2000/svg">
<path fill-rule="evenodd" clip-rule="evenodd" d="M8.01992 12.8174L3.42693 8.22442C3.02558 7.82306 2.8001 7.27871 2.8001 6.71111L2.8001 3.26968C2.8001 3.01007 3.01055 2.79961 3.27017 2.79961L6.7116 2.79961C7.2792 2.79961 7.82355 3.02509 8.22491 3.42644L12.8179 8.01943C13.3275 8.52903 13.3275 9.35551 12.8179 9.86512L9.86561 12.8174C9.356 13.327 8.52952 13.327 8.01992 12.8174ZM7.17139 13.6659L2.5784 9.07295C1.952 8.44655 1.6001 7.59697 1.6001 6.71111L1.6001 3.26968C1.6001 2.34732 2.34781 1.59961 3.27017 1.59961L6.7116 1.59961C7.59746 1.59961 8.44704 1.95152 9.07343 2.57791L13.6664 7.1709C14.6447 8.14913 14.6447 9.73541 13.6664 10.7136L10.7141 13.6659C9.7359 14.6442 8.14962 14.6442 7.17139 13.6659ZM5.0001 5.99961C5.55238 5.99961 6.0001 5.55189 6.0001 4.99961C6.0001 4.44732 5.55238 3.99961 5.0001 3.99961C4.44781 3.99961 4.0001 4.44732 4.0001 4.99961C4.0001 5.55189 4.44781 5.99961 5.0001 5.99961Z" fill="#9EA5AF"/>
</svg>
