<svg width="20" height="20" viewBox="0 0 20 20" fill="none" xmlns="http://www.w3.org/2000/svg">
<path fill-rule="evenodd" clip-rule="evenodd" d="M6.5 3H10.75L10.75 5.5C10.75 7.01878 11.9812 8.25 13.5 8.25L16 8.25V14.5C16 15.8807 14.8807 17 13.5 17H6.5C5.11929 17 4 15.8807 4 14.5V5.5C4 4.11929 5.11929 3 6.5 3ZM15.2678 6.38909C15.3793 6.50057 15.4791 6.6215 15.5666 6.75L13.5 6.75C12.8096 6.75 12.25 6.19036 12.25 5.5L12.25 3.43341C12.3785 3.52088 12.4994 3.62075 12.6109 3.73223L15.2678 6.38909ZM10.8431 1.5C11.904 1.5 12.9214 1.92143 13.6716 2.67157L16.3284 5.32843C17.0786 6.07857 17.5 7.09599 17.5 8.15685V14.5C17.5 16.7091 15.7091 18.5 13.5 18.5H6.5C4.29086 18.5 2.5 16.7091 2.5 14.5V5.5C2.5 3.29086 4.29086 1.5 6.5 1.5H10.8431ZM9.25 13.75C9.25 14.1642 9.58579 14.5 10 14.5C10.4142 14.5 10.75 14.1642 10.75 13.75V10.2498C10.7967 10.2849 10.8414 10.3237 10.8839 10.3662L11.9446 11.4268C12.2375 11.7197 12.7123 11.7197 13.0052 11.4268C13.2981 11.1339 13.2981 10.659 13.0052 10.3662L11.9446 9.30549C11.4099 8.77079 10.7097 8.50231 10.0089 8.50005L10 8.5L9.99107 8.50005C9.29027 8.50232 8.59017 8.7708 8.05548 9.30549L6.99482 10.3662C6.70192 10.659 6.70192 11.1339 6.99482 11.4268C7.28771 11.7197 7.76258 11.7197 8.05548 11.4268L9.11614 10.3662C9.1586 10.3237 9.20335 10.2849 9.25 10.2499V13.75Z" fill="#6F7883"/>
</svg>
