<svg width="20" height="20" viewBox="0 0 20 20" fill="none" xmlns="http://www.w3.org/2000/svg">
<path fill-rule="evenodd" clip-rule="evenodd" d="M8.75 1.5C7.7835 1.5 7 2.2835 7 3.25V4.5H3.5H3.25C2.83579 4.5 2.5 4.83579 2.5 5.25C2.5 5.66421 2.83579 6 3.25 6H3.5V14.75C3.5 16.8211 5.17893 18.5 7.25 18.5H12.75C14.8211 18.5 16.5 16.8211 16.5 14.75V6H16.75C17.1642 6 17.5 5.66421 17.5 5.25C17.5 4.83579 17.1642 4.5 16.75 4.5L16.5 4.5H13V3.25C13 2.2835 12.2165 1.5 11.25 1.5H8.75ZM11.5 4.5V3.25C11.5 3.11193 11.3881 3 11.25 3H8.75C8.61193 3 8.5 3.11193 8.5 3.25V4.5H11.5ZM15 6H13H7H5V14.75C5 15.9926 6.00736 17 7.25 17H12.75C13.9926 17 15 15.9926 15 14.75V6ZM9 9.75C9 9.33579 8.66421 9 8.25 9C7.83579 9 7.5 9.33579 7.5 9.75V13.25C7.5 13.6642 7.83579 14 8.25 14C8.66421 14 9 13.6642 9 13.25V9.75ZM12.5 9.75C12.5 9.33579 12.1642 9 11.75 9C11.3358 9 11 9.33579 11 9.75V13.25C11 13.6642 11.3358 14 11.75 14C12.1642 14 12.5 13.6642 12.5 13.25V9.75Z" fill="#FF4759"/>
</svg>
