<svg width="20" height="20" viewBox="0 0 20 20" fill="none" xmlns="http://www.w3.org/2000/svg">
<path d="M9 5C9 5.85 8.35 6.5 7.5 6.5C6.65 6.5 6 5.85 6 5C6 4.15 6.65 3.5 7.5 3.5C8.35 3.5 9 4.15 9 5ZM12.5 6.5C13.35 6.5 14 5.85 14 5C14 4.15 13.35 3.5 12.5 3.5C11.65 3.5 11 4.15 11 5C11 5.85 11.65 6.5 12.5 6.5ZM7.5 8.5C6.65 8.5 6 9.15 6 10C6 10.85 6.65 11.5 7.5 11.5C8.35 11.5 9 10.85 9 10C9 9.15 8.35 8.5 7.5 8.5ZM12.5 8.5C11.65 8.5 11 9.15 11 10C11 10.85 11.65 11.5 12.5 11.5C13.35 11.5 14 10.85 14 10C14 9.15 13.35 8.5 12.5 8.5ZM7.5 13.5C6.65 13.5 6 14.15 6 15C6 15.85 6.65 16.5 7.5 16.5C8.35 16.5 9 15.85 9 15C9 14.15 8.35 13.5 7.5 13.5ZM12.5 13.5C11.65 13.5 11 14.15 11 15C11 15.85 11.65 16.5 12.5 16.5C13.35 16.5 14 15.85 14 15C14 14.15 13.35 13.5 12.5 13.5Z" fill="#6F7883"/>
</svg>
