<svg width="14" height="13" viewBox="0 0 14 13" xmlns="http://www.w3.org/2000/svg">
<path fill-rule="evenodd" clip-rule="evenodd" d="M8.9753 5.07495C8.5392 5.04141 8.15589 4.77324 7.9749 4.37505L7.0001 2.23049L6.0253 4.37505C5.8443 4.77323 5.461 5.04141 5.02489 5.07495L2.26273 5.28743L4.23232 7.47585C4.4993 7.7725 4.60133 8.18247 4.50454 8.56966L3.89773 10.9969L6.46344 9.71403C6.80127 9.54511 7.19892 9.54511 7.53675 9.71403L10.1025 10.9969L9.49566 8.56966C9.39886 8.18247 9.50089 7.7725 9.76787 7.47585L11.7375 5.28743L8.9753 5.07495ZM9.06734 3.87849L7.71146 0.895555C7.43385 0.284812 6.56634 0.284819 6.28874 0.895555L4.93286 3.87849L1.32271 4.15619C0.676191 4.20592 0.368052 4.97604 0.801833 5.45802L3.34037 8.27861L2.51282 11.5888C2.35091 12.2365 3.02323 12.7758 3.62034 12.4772L7.0001 10.7873L10.3799 12.4772C10.977 12.7758 11.6493 12.2365 11.4874 11.5888L10.6598 8.27861L13.1984 5.45802C13.6321 4.97605 13.324 4.20592 12.6775 4.15619L9.06734 3.87849Z"/>
</svg>
