<svg width="18" height="18" viewBox="0 0 18 18" fill="none" xmlns="http://www.w3.org/2000/svg">
<path fill-rule="evenodd" clip-rule="evenodd" d="M5.50001 3.76135C6.53583 3.06924 7.75358 2.69976 8.99934 2.69961C10.6698 2.7016 12.2713 3.36606 13.4525 4.54726C14.6336 5.72844 15.2981 7.32987 15.3001 9.00029C15.3 10.2461 14.9305 11.4639 14.2384 12.4997C13.5461 13.5357 12.5622 14.3432 11.411 14.8201C10.2598 15.2969 8.99311 15.4216 7.77103 15.1786C6.54895 14.9355 5.4264 14.3355 4.54533 13.4544C3.66426 12.5733 3.06424 11.4508 2.82115 10.2287C2.57807 9.0066 2.70283 7.73988 3.17966 6.5887C3.65649 5.43753 4.46398 4.4536 5.50001 3.76135ZM4.74999 2.63887C6.00803 1.79827 7.48707 1.34961 9.0001 1.34961C11.0283 1.3518 12.9729 2.15849 14.407 3.59267C15.8412 5.02684 16.6479 6.97138 16.6501 8.99961C16.6501 10.5126 16.2014 11.9917 15.3608 13.2497C14.5203 14.5078 13.3255 15.4883 11.9276 16.0673C10.5298 16.6463 8.99162 16.7978 7.50766 16.5026C6.02371 16.2074 4.66061 15.4788 3.59073 14.409C2.52086 13.3391 1.79227 11.976 1.49709 10.4921C1.20192 9.0081 1.35341 7.46994 1.93242 6.07208C2.51143 4.67423 3.49195 3.47946 4.74999 2.63887ZM9.0001 6.29961C9.49715 6.29961 9.9001 5.89667 9.9001 5.39961C9.9001 4.90255 9.49715 4.49961 9.0001 4.49961C8.50304 4.49961 8.1001 4.90255 8.1001 5.39961C8.1001 5.89667 8.50304 6.29961 9.0001 6.29961ZM7.6501 8.32461C7.6501 7.95182 7.95231 7.64961 8.3251 7.64961H8.7751C9.64495 7.64961 10.3501 8.35476 10.3501 9.22461V12.8246C10.3501 13.1974 10.0479 13.4996 9.6751 13.4996C9.30231 13.4996 9.0001 13.1974 9.0001 12.8246V9.22461C9.0001 9.10035 8.89936 8.99961 8.7751 8.99961H8.3251C7.95231 8.99961 7.6501 8.6974 7.6501 8.32461Z" fill="#CF9102"/>
</svg>
