<svg width="20" height="20" xmlns="http://www.w3.org/2000/svg">
<path fill-rule="evenodd" clip-rule="evenodd" d="M14.4001 2.2588C14.4004 2.38994 14.3596 2.51667 14.2852 2.61945L14.284 2.62113C14.2704 2.63984 14.2556 2.65775 14.2398 2.67475L11.651 5.43388L12.0873 5.88957C12.3999 6.21533 12.635 6.61605 12.7728 7.0583C12.9107 7.50054 12.9473 7.97151 12.8797 8.43191C12.6852 9.63597 12.2599 10.7844 11.6303 11.8053C11.0007 12.8263 10.1802 13.698 9.2203 14.3658C9.12785 14.4346 9.01783 14.4715 8.90508 14.4716H8.40117C6.9863 14.4854 5.60015 14.046 4.42238 13.2103C3.24461 12.3745 2.32953 11.181 1.79574 9.78445C1.65491 9.41099 1.58881 9.0103 1.60167 8.60805C1.61454 8.20579 1.70609 7.81083 1.87046 7.44845C2.03758 7.0811 2.27495 6.75507 2.56733 6.49131C2.8597 6.22754 3.20062 6.03188 3.56817 5.91689L4.69925 5.5635C5.58987 5.23346 6.4267 4.75732 7.17955 4.15225C7.70118 3.75124 8.33886 3.5593 8.98024 3.61023C9.47398 3.64943 9.94552 3.83063 10.3463 4.13046C10.4662 4.22012 10.5798 4.3204 10.6857 4.43067L10.8602 4.61259L13.4583 1.84358C13.5619 1.73362 13.7021 1.67188 13.8482 1.67188C13.9944 1.67188 14.1346 1.73362 14.2382 1.84358C14.3416 1.9537 14.3998 2.10301 14.4001 2.2588ZM11.2205 6.71945L10.8712 6.35463L10.8698 6.3561L9.81993 5.26161C9.55616 4.9872 9.22347 4.83332 8.88525 4.80646C8.55073 4.7799 8.2095 4.87731 7.91945 5.09711C7.75254 5.23086 7.58188 5.35909 7.40774 5.48166L11.3971 9.47105C11.5264 9.07479 11.6258 8.66641 11.6935 8.24979C11.7336 7.96905 11.7105 7.68257 11.6272 7.41538C11.5432 7.14588 11.402 6.90859 11.2215 6.72052L11.2205 6.71945ZM10.8965 10.6675C10.8069 10.8405 10.7109 11.01 10.6089 11.1755C10.0975 12.0047 9.44393 12.7152 8.68756 13.2716H8.3953L8.38943 13.2716C7.46254 13.2807 6.54627 13.0521 5.71646 12.6044C7.18348 11.873 8.20209 10.6252 8.58699 9.98379C8.75749 9.69965 8.66538 9.33109 8.38124 9.16058C8.09711 8.99008 7.72854 9.08219 7.55804 9.36633C7.18891 9.98144 6.07074 11.2948 4.56183 11.785C4.14392 11.4054 3.77631 10.9638 3.47054 10.4728C3.82095 10.3731 4.15006 10.2163 4.43166 10.0551C4.98338 9.73922 5.46176 9.34256 5.74305 9.06458C5.97875 8.83166 5.981 8.45177 5.74808 8.21607C5.51515 7.98037 5.13526 7.97813 4.89956 8.21105C4.68077 8.42726 4.28398 8.75689 3.83542 9.01371C3.4979 9.20696 3.18399 9.32842 2.92092 9.36715L2.91769 9.35873C2.83351 9.13458 2.79321 8.89172 2.80106 8.64641C2.80892 8.40049 2.86487 8.16134 2.96301 7.94476C3.06373 7.72359 3.20415 7.53296 3.37113 7.38231C3.53804 7.23174 3.72779 7.12431 3.92647 7.06215L5.08693 6.69958L5.11622 6.68873C5.54234 6.53082 5.95712 6.34372 6.35806 6.12903L10.8965 10.6675Z"/>
</svg>
