<svg width="42" height="41" viewBox="0 0 42 41" fill="none" xmlns="http://www.w3.org/2000/svg">
<g filter="url(#filter0_bdi_6236_353328)">
<path d="M29.0483 1.5915C28.8584 1.37448 28.5841 1.25 28.2957 1.25H13.7495C10.2977 1.25 7.49951 4.04822 7.49951 7.5V32.5C7.49951 35.9518 10.2977 38.75 13.7495 38.75H31.2495C34.7013 38.75 37.4995 35.9518 37.4995 32.5V11.6257C37.4995 11.3835 37.4116 11.1495 37.2521 10.9672L29.0483 1.5915Z" fill="#E2E5E7" fill-opacity="0.4"/>
<path d="M29.0483 1.5915C28.8584 1.37448 28.5841 1.25 28.2957 1.25H13.7495C10.2977 1.25 7.49951 4.04822 7.49951 7.5V32.5C7.49951 35.9518 10.2977 38.75 13.7495 38.75H31.2495C34.7013 38.75 37.4995 35.9518 37.4995 32.5V11.6257C37.4995 11.3835 37.4116 11.1495 37.2521 10.9672L29.0483 1.5915Z" fill="url(#paint0_linear_6236_353328)"/>
</g>
<g filter="url(#filter1_bd_6236_353328)">
<path d="M30.417 13.1091C31.641 13.1227 33.3427 13.1286 34.7862 13.1227C35.5255 13.1208 35.9013 12.1427 35.3885 11.5535C33.5341 9.4184 30.2168 5.59738 28.3185 3.41172C27.7934 2.80697 26.875 3.2231 26.875 4.06119V9.187C26.875 11.3377 28.4748 13.1091 30.417 13.1091Z" fill="url(#paint1_linear_6236_353328)"/>
</g>
<path fill-rule="evenodd" clip-rule="evenodd" d="M28.1286 1.7H13.6958C10.4925 1.7 7.8958 4.29675 7.8958 7.5V32.5C7.8958 35.7032 10.4925 38.3 13.6958 38.3H31.1958C34.399 38.3 36.9958 35.7032 36.9958 32.5V11.7197C36.9958 11.5259 36.9255 11.3387 36.7979 11.1929L28.7306 1.9732C28.5787 1.79958 28.3593 1.7 28.1286 1.7ZM28.1286 1.25C28.489 1.25 28.8319 1.4056 29.0693 1.67687L37.1365 10.8965C37.3359 11.1244 37.4458 11.4169 37.4458 11.7197V32.5C37.4458 35.9518 34.6476 38.75 31.1958 38.75H13.6958C10.244 38.75 7.4458 35.9518 7.4458 32.5V7.5C7.4458 4.04822 10.244 1.25 13.6958 1.25H28.1286Z" fill="url(#paint2_linear_6236_353328)"/>
<g filter="url(#filter2_f_6236_353328)">
<path d="M18.9933 12.5L26 12.5C28.5533 12.5 30 13.9467 30 16.5L30 23.5C30 26.0533 28.5533 27.5 26 27.5L18.9933 27.5C16.44 27.5 15 26.0533 15 23.5L15 16.5C15 13.9467 16.44 12.5 18.9933 12.5Z" fill="url(#paint3_linear_6236_353328)" fill-opacity="0.06"/>
</g>
<path d="M7.44141 33.1251H27.1437C28.7216 33.1251 30.0008 31.8458 30.0008 30.2679V28.8394C30.0008 30.4172 28.7216 31.6965 27.1437 31.6965H7.44141L7.44141 33.1251C7.44141 33.1251 7.44141 33.125 7.44141 33.1251Z" fill="#D3D9DF"/>
<path d="M2.5 23.125C2.5 21.3991 3.89911 20 5.625 20H26.875C28.6009 20 30 21.3991 30 23.125V29.375C30 31.1009 28.6009 32.5 26.875 32.5H5.625C3.89911 32.5 2.5 31.1009 2.5 29.375V23.125Z" fill="#FC9F00"/>
<path d="M2.5 23.125C2.5 21.3991 3.89911 20 5.625 20H26.875C28.6009 20 30 21.3991 30 23.125V29.375C30 31.1009 28.6009 32.5 26.875 32.5H5.625C3.89911 32.5 2.5 31.1009 2.5 29.375V23.125Z" fill="url(#paint4_linear_6236_353328)" fill-opacity="0.5"/>
<g filter="url(#filter3_bd_6236_353328)">
<path d="M9.92115 29.375C9.71888 29.375 9.57441 29.3057 9.48772 29.167C9.40104 29.0283 9.40393 28.8607 9.49639 28.6642L11.7849 23.5931C11.86 23.4255 11.9496 23.307 12.0536 23.2377C12.1634 23.1626 12.2877 23.125 12.4263 23.125C12.5593 23.125 12.6777 23.1626 12.7818 23.2377C12.8916 23.307 12.984 23.4255 13.0591 23.5931L15.3563 28.6642C15.4488 28.8664 15.4545 29.0369 15.3736 29.1756C15.2927 29.3085 15.154 29.375 14.9576 29.375C14.7957 29.375 14.6686 29.3374 14.5761 29.2623C14.4895 29.1814 14.4114 29.06 14.3421 28.8982L13.9087 27.8927H10.9267L10.5019 28.8982C10.4268 29.0658 10.3488 29.1872 10.2679 29.2623C10.187 29.3374 10.0714 29.375 9.92115 29.375ZM12.409 24.3993L11.3081 27.0085H13.5272L12.4263 24.3993H12.409Z" fill="url(#paint5_linear_6236_353328)"/>
<path d="M16.8658 29.375C16.496 29.375 16.3111 29.1843 16.3111 28.8029V23.7578C16.3111 23.3822 16.4989 23.1943 16.8745 23.1943H18.9636C19.634 23.1943 20.1512 23.3619 20.5153 23.6971C20.8794 24.0323 21.0614 24.5004 21.0614 25.1014C21.0614 25.7024 20.8794 26.1734 20.5153 26.5144C20.1512 26.8496 19.634 27.0172 18.9636 27.0172H17.4206V28.8029C17.4206 29.1843 17.2357 29.375 16.8658 29.375ZM17.4206 26.1416H18.7903C19.5878 26.1416 19.9865 25.7949 19.9865 25.1014C19.9865 24.4137 19.5878 24.0699 18.7903 24.0699H17.4206V26.1416Z" fill="url(#paint6_linear_6236_353328)"/>
<path d="M22.5207 29.375C22.1508 29.375 21.9659 29.1843 21.9659 28.8029V23.6971C21.9659 23.3157 22.1508 23.125 22.5207 23.125C22.8906 23.125 23.0755 23.3157 23.0755 23.6971V28.8029C23.0755 29.1843 22.8906 29.375 22.5207 29.375Z" fill="url(#paint7_linear_6236_353328)"/>
<path d="M10.0436 28.6984C10.0077 28.7779 9.97787 28.8284 9.95722 28.8586L10.2494 28.2111L10.0436 28.6984ZM14.3678 27.6948L14.3593 27.6749L14.9009 28.8705L14.9012 28.8713C14.8985 28.8709 14.8961 28.8704 14.8939 28.87C14.8716 28.8407 14.839 28.7884 14.8017 28.7013L14.8013 28.7003L14.3678 27.6948ZM12.6037 23.7994L12.6489 23.8993H12.4263H12.409H12.1953L12.2406 23.7988L12.2411 23.7976C12.2909 23.6866 12.3282 23.656 12.3309 23.6538C12.331 23.6537 12.331 23.6537 12.331 23.6537L12.331 23.6537L12.3359 23.6503C12.3589 23.6346 12.3839 23.625 12.4263 23.625C12.4582 23.625 12.4734 23.6318 12.489 23.643L12.5016 23.6521L12.5148 23.6604C12.5147 23.6604 12.5147 23.6604 12.5148 23.6604C12.5161 23.6614 12.5537 23.6878 12.6029 23.7976L12.6029 23.7976L12.6037 23.7994ZM16.9206 26.5172V26.6416V27.0172V28.8029C16.9206 28.8336 16.9186 28.8563 16.9161 28.8723C16.9037 28.8738 16.8871 28.875 16.8658 28.875C16.8446 28.875 16.828 28.8738 16.8156 28.8723C16.8131 28.8563 16.8111 28.8336 16.8111 28.8029V23.7578C16.8111 23.7318 16.8127 23.7122 16.8146 23.6979C16.8289 23.696 16.8485 23.6943 16.8745 23.6943H16.9206V24.0699V26.1416V26.5172ZM19.9666 26.2994C19.9832 26.2863 19.9995 26.2728 20.0155 26.2589C20.3558 25.963 20.4865 25.5448 20.4865 25.1014C20.4865 24.6596 20.355 24.2431 20.014 23.9491C20.0014 23.9383 19.9887 23.9277 19.9758 23.9174C20.0514 23.9615 20.118 24.011 20.1766 24.065C20.4162 24.2856 20.5614 24.6078 20.5614 25.1014C20.5614 25.5937 20.4169 25.9207 20.1751 26.148C20.1144 26.2036 20.0453 26.2544 19.9666 26.2994ZM22.5207 28.875C22.4994 28.875 22.4829 28.8738 22.4704 28.8723C22.468 28.8563 22.4659 28.8336 22.4659 28.8029V23.6971C22.4659 23.6664 22.468 23.6437 22.4704 23.6277C22.4829 23.6262 22.4994 23.625 22.5207 23.625C22.542 23.625 22.5585 23.6262 22.571 23.6277C22.5734 23.6437 22.5755 23.6664 22.5755 23.6971V28.8029C22.5755 28.8336 22.5734 28.8563 22.571 28.8723C22.5585 28.8738 22.542 28.875 22.5207 28.875Z" stroke="url(#paint8_linear_6236_353328)"/>
</g>
<defs>
<filter id="filter0_bdi_6236_353328" x="-1.64334" y="-7.89286" width="48.2857" height="55.7857" filterUnits="userSpaceOnUse" color-interpolation-filters="sRGB">
<feFlood flood-opacity="0" result="BackgroundImageFix"/>
<feGaussianBlur in="BackgroundImage" stdDeviation="4.57143"/>
<feComposite in2="SourceAlpha" operator="in" result="effect1_backgroundBlur_6236_353328"/>
<feColorMatrix in="SourceAlpha" type="matrix" values="0 0 0 0 0 0 0 0 0 0 0 0 0 0 0 0 0 0 127 0" result="hardAlpha"/>
<feOffset dy="0.3"/>
<feGaussianBlur stdDeviation="0.5"/>
<feColorMatrix type="matrix" values="0 0 0 0 0 0 0 0 0 0 0 0 0 0 0 0 0 0 0.12 0"/>
<feBlend mode="normal" in2="effect1_backgroundBlur_6236_353328" result="effect2_dropShadow_6236_353328"/>
<feBlend mode="normal" in="SourceGraphic" in2="effect2_dropShadow_6236_353328" result="shape"/>
<feColorMatrix in="SourceAlpha" type="matrix" values="0 0 0 0 0 0 0 0 0 0 0 0 0 0 0 0 0 0 127 0" result="hardAlpha"/>
<feOffset dx="-0.740741" dy="0.707071"/>
<feGaussianBlur stdDeviation="3.68687"/>
<feComposite in2="hardAlpha" operator="arithmetic" k2="-1" k3="1"/>
<feColorMatrix type="matrix" values="0 0 0 0 0 0 0 0 0 0 0 0 0 0 0 0 0 0 0.0275623 0"/>
<feBlend mode="normal" in2="shape" result="effect3_innerShadow_6236_353328"/>
</filter>
<filter id="filter1_bd_6236_353328" x="21.1607" y="-2.58929" width="20.1786" height="21.4286" filterUnits="userSpaceOnUse" color-interpolation-filters="sRGB">
<feFlood flood-opacity="0" result="BackgroundImageFix"/>
<feGaussianBlur in="BackgroundImage" stdDeviation="2.85714"/>
<feComposite in2="SourceAlpha" operator="in" result="effect1_backgroundBlur_6236_353328"/>
<feColorMatrix in="SourceAlpha" type="matrix" values="0 0 0 0 0 0 0 0 0 0 0 0 0 0 0 0 0 0 127 0" result="hardAlpha"/>
<feOffset dx="1.90476" dy="1.90476"/>
<feGaussianBlur stdDeviation="1.90476"/>
<feColorMatrix type="matrix" values="0 0 0 0 0.690196 0 0 0 0 0.717647 0 0 0 0 0.741176 0 0 0 0.6 0"/>
<feBlend mode="normal" in2="effect1_backgroundBlur_6236_353328" result="effect2_dropShadow_6236_353328"/>
<feBlend mode="normal" in="SourceGraphic" in2="effect2_dropShadow_6236_353328" result="shape"/>
</filter>
<filter id="filter2_f_6236_353328" x="9" y="6.5" width="27" height="27" filterUnits="userSpaceOnUse" color-interpolation-filters="sRGB">
<feFlood flood-opacity="0" result="BackgroundImageFix"/>
<feBlend mode="normal" in="SourceGraphic" in2="BackgroundImageFix" result="shape"/>
<feGaussianBlur stdDeviation="3" result="effect1_foregroundBlur_6236_353328"/>
</filter>
<filter id="filter3_bd_6236_353328" x="2.26121" y="15.9614" width="27.9778" height="20.5772" filterUnits="userSpaceOnUse" color-interpolation-filters="sRGB">
<feFlood flood-opacity="0" result="BackgroundImageFix"/>
<feGaussianBlur in="BackgroundImage" stdDeviation="3.5818"/>
<feComposite in2="SourceAlpha" operator="in" result="effect1_backgroundBlur_6236_353328"/>
<feColorMatrix in="SourceAlpha" type="matrix" values="0 0 0 0 0 0 0 0 0 0 0 0 0 0 0 0 0 0 127 0" result="hardAlpha"/>
<feOffset dx="1" dy="1"/>
<feGaussianBlur stdDeviation="1"/>
<feColorMatrix type="matrix" values="0 0 0 0 0.984314 0 0 0 0 0.74902 0 0 0 0 0.141176 0 0 0 1 0"/>
<feBlend mode="normal" in2="effect1_backgroundBlur_6236_353328" result="effect2_dropShadow_6236_353328"/>
<feBlend mode="normal" in="SourceGraphic" in2="effect2_dropShadow_6236_353328" result="shape"/>
</filter>
<linearGradient id="paint0_linear_6236_353328" x1="16.8718" y1="-7.32184" x2="-10.657" y2="18.7322" gradientUnits="userSpaceOnUse">
<stop stop-color="#F1F1F1"/>
<stop offset="1" stop-color="#FBFBFB"/>
</linearGradient>
<linearGradient id="paint1_linear_6236_353328" x1="35.0046" y1="4.9308" x2="25.2555" y2="5.20893" gradientUnits="userSpaceOnUse">
<stop stop-color="white"/>
<stop offset="1" stop-color="white" stop-opacity="0.2"/>
</linearGradient>
<linearGradient id="paint2_linear_6236_353328" x1="16.8181" y1="-7.32184" x2="-10.7107" y2="18.7322" gradientUnits="userSpaceOnUse">
<stop stop-color="#F2F2F2"/>
<stop offset="1" stop-color="#E6E6E6"/>
</linearGradient>
<linearGradient id="paint3_linear_6236_353328" x1="2.46084" y1="5.53226" x2="26.8415" y2="20.3628" gradientUnits="userSpaceOnUse">
<stop stop-color="#FACC15"/>
<stop offset="1" stop-color="#FACC15"/>
</linearGradient>
<linearGradient id="paint4_linear_6236_353328" x1="52.9885" y1="14.1936" x2="31.0467" y2="43.5569" gradientUnits="userSpaceOnUse">
<stop stop-color="#FFC001"/>
<stop offset="1" stop-color="#FFDA47"/>
</linearGradient>
<linearGradient id="paint5_linear_6236_353328" x1="23.0755" y1="31.6071" x2="2.01421" y2="16.17" gradientUnits="userSpaceOnUse">
<stop stop-color="white"/>
<stop offset="1" stop-color="white" stop-opacity="0.4"/>
</linearGradient>
<linearGradient id="paint6_linear_6236_353328" x1="23.0755" y1="31.6071" x2="2.01421" y2="16.17" gradientUnits="userSpaceOnUse">
<stop stop-color="white"/>
<stop offset="1" stop-color="white" stop-opacity="0.4"/>
</linearGradient>
<linearGradient id="paint7_linear_6236_353328" x1="23.0755" y1="31.6071" x2="2.01421" y2="16.17" gradientUnits="userSpaceOnUse">
<stop stop-color="white"/>
<stop offset="1" stop-color="white" stop-opacity="0.4"/>
</linearGradient>
<linearGradient id="paint8_linear_6236_353328" x1="11.5978" y1="23.8531" x2="14.2506" y2="31.0293" gradientUnits="userSpaceOnUse">
<stop stop-color="white" stop-opacity="0.25"/>
<stop offset="1" stop-color="white" stop-opacity="0"/>
</linearGradient>
</defs>
</svg>
