<svg width="20" height="20"  xmlns="http://www.w3.org/2000/svg">
<path fill-rule="evenodd" clip-rule="evenodd" d="M7.25 1.5C4.62665 1.5 2.5 3.62665 2.5 6.25V12C2.5 12.8284 3.17157 13.5 4 13.5V6.25C4 4.45507 5.45507 3 7.25 3H13.5C13.5 2.17157 12.8284 1.5 12 1.5H7.25ZM8.25 4.5C6.73122 4.5 5.5 5.73122 5.5 7.25V15.75C5.5 17.2688 6.73122 18.5 8.25 18.5H14.75C16.2688 18.5 17.5 17.2688 17.5 15.75V7.25C17.5 5.73122 16.2688 4.5 14.75 4.5H8.25ZM7 7.25C7 6.55964 7.55964 6 8.25 6H14.75C15.4404 6 16 6.55964 16 7.25V15.75C16 16.4404 15.4404 17 14.75 17H8.25C7.55964 17 7 16.4404 7 15.75V7.25Z" />
</svg>
