<svg width="16" height="16" viewBox="0 0 16 16" fill="none" xmlns="http://www.w3.org/2000/svg">
<path fill-rule="evenodd" clip-rule="evenodd" d="M7.99961 3C7.66824 3 7.39961 3.26863 7.39961 3.6V11.6C7.36247 11.5721 7.32683 11.5412 7.29302 11.5074L3.61606 7.83042C3.38175 7.5961 3.00185 7.5961 2.76753 7.83042C2.53322 8.06473 2.53322 8.44463 2.76753 8.67894L6.44449 12.3559C7.30364 13.215 8.6966 13.215 9.55576 12.3559L13.2327 8.67894C13.467 8.44463 13.467 8.06473 13.2327 7.83042C12.9984 7.5961 12.6185 7.5961 12.3842 7.83042L8.70723 11.5074C8.6731 11.5415 8.63712 11.5726 8.59961 11.6008V3.6C8.59961 3.26863 8.33098 3 7.99961 3Z" fill="#9DA5AF"/>
</svg>
