<svg width="20" height="20"  xmlns="http://www.w3.org/2000/svg">
<path fill-rule="evenodd" clip-rule="evenodd" d="M1.2002 3.6C1.2002 3.26863 1.46882 3 1.8002 3H14.2002C14.5316 3 14.8002 3.26863 14.8002 3.6C14.8002 3.93137 14.5316 4.2 14.2002 4.2H1.8002C1.46882 4.2 1.2002 3.93137 1.2002 3.6ZM3.2002 8C3.2002 7.66863 3.46882 7.4 3.8002 7.4H12.2002C12.5316 7.4 12.8002 7.66863 12.8002 8C12.8002 8.33137 12.5316 8.6 12.2002 8.6H3.8002C3.46882 8.6 3.2002 8.33137 3.2002 8ZM5.80019 11.8C5.46882 11.8 5.2002 12.0686 5.2002 12.4C5.2002 12.7314 5.46882 13 5.80019 13H10.2002C10.5316 13 10.8002 12.7314 10.8002 12.4C10.8002 12.0686 10.5316 11.8 10.2002 11.8H5.80019Z" />
</svg>
