<svg width="20" height="20" viewBox="0 0 20 20" fill="none" xmlns="http://www.w3.org/2000/svg">
<path fill-rule="evenodd" clip-rule="evenodd" d="M2 15.0386C2 14.1483 2.35367 13.2945 2.9832 12.665L12.9892 2.65895C13.8678 1.78035 15.2923 1.78035 16.1709 2.65895L17.341 3.82907C18.2196 4.70766 18.2196 6.13215 17.341 7.01075L7.33489 17.0169C6.70541 17.6464 5.85168 18 4.96148 18H3.54881C2.69342 18 2 17.3066 2 16.4512L2 15.0386ZM15.3982 6.83233L16.2804 5.95009C16.5732 5.65728 16.5732 5.18254 16.2804 4.88972L15.1103 3.71961C14.8175 3.4268 14.3427 3.4268 14.0499 3.71961L13.1677 4.60185L15.3982 6.83233ZM12.107 5.66251L14.3375 7.89299L6.27426 15.9562C5.92609 16.3044 5.45385 16.5 4.96148 16.5H3.54881C3.5393 16.5 3.53402 16.4984 3.53027 16.4968C3.52552 16.4948 3.5198 16.4912 3.5143 16.4857C3.50879 16.4802 3.50523 16.4745 3.50322 16.4697C3.50163 16.466 3.5 16.4607 3.5 16.4512L3.5 15.0386C3.5 14.5462 3.69565 14.0739 4.04386 13.7257L12.107 5.66251Z" fill="#6F7883"/>
</svg>
