<svg width="20" height="20" xmlns="http://www.w3.org/2000/svg">
<path fill-rule="evenodd" clip-rule="evenodd" d="M10.5303 1.09858C10.2374 0.805683 9.76256 0.805683 9.46967 1.09858C9.17678 1.39147 9.17678 1.86634 9.46967 2.15924L10.3174 3.00694C8.9687 2.94982 7.62119 3.25763 6.42131 3.90911C4.85194 4.76121 3.63811 6.14531 2.99815 7.81248C2.35818 9.47964 2.33409 11.3204 2.93019 13.0038C3.52629 14.6871 4.70347 16.1025 6.25 16.9954C7.79652 17.8883 9.61089 18.2001 11.3668 17.8746C13.1226 17.5492 14.7048 16.6079 15.8286 15.2201C16.9524 13.8323 17.5442 12.0891 17.4974 10.3039C17.4507 8.51875 16.7685 6.80885 15.5736 5.48176C15.2964 5.17394 14.8222 5.14909 14.5144 5.42625C14.2066 5.70341 14.1817 6.17763 14.4589 6.48546C15.4148 7.54713 15.9605 8.91505 15.9979 10.3432C16.0353 11.7713 15.5619 13.1659 14.6629 14.2762C13.7638 15.3864 12.4981 16.1394 11.0934 16.3998C9.68872 16.6601 8.23722 16.4107 7 15.6964C5.76278 14.9821 4.82103 13.8498 4.34415 12.5031C3.86727 11.1564 3.88655 9.68376 4.39852 8.35003C4.91049 7.0163 5.88155 5.90901 7.13705 5.22733C8.11152 4.69824 9.2077 4.4525 10.303 4.50788L9.46967 5.34122C9.17678 5.63411 9.17678 6.10898 9.46967 6.40188C9.76256 6.69477 10.2374 6.69477 10.5303 6.40188L11.9445 4.98766C12.628 4.30425 12.628 3.19621 11.9445 2.51279L10.5303 1.09858Z" />
</svg>
