<svg width="16" height="16" viewBox="0 0 16 16"  xmlns="http://www.w3.org/2000/svg">
<path fill-rule="evenodd" clip-rule="evenodd" d="M13.58 2.41971C12.4866 1.32624 10.7137 1.32624 9.62023 2.41971L2.9355 9.10445C2.85599 9.18396 2.80346 9.28023 2.77791 9.38189L1.62108 13.6424C1.56472 13.85 1.62377 14.0718 1.77585 14.2239C1.92793 14.376 2.14977 14.435 2.35733 14.3787L6.62826 13.219C6.73224 13.1908 6.82469 13.1358 6.89788 13.0617L13.58 6.37951C14.6735 5.28604 14.6735 3.51318 13.58 2.41971ZM5.31474 12.3322L3.66753 10.685L3.05357 12.9462L5.31474 12.3322ZM6.47104 11.7915L12.7315 5.53098C13.3563 4.90614 13.3563 3.89308 12.7315 3.26824C12.1067 2.6434 11.0936 2.6434 10.4688 3.26824L4.20829 9.52871L6.47104 11.7915Z" />
</svg>
