<svg width="16" height="16" viewBox="0 0 16 16" fill="none" xmlns="http://www.w3.org/2000/svg">
<path fill-rule="evenodd" clip-rule="evenodd" d="M5.8001 2.80078C5.13736 2.80078 4.6001 3.33804 4.6001 4.00078H11.4001C11.4001 3.33804 10.8628 2.80078 10.2001 2.80078H5.8001ZM1.6001 7.40078C1.6001 6.18575 2.58507 5.20078 3.8001 5.20078H12.2001C13.4151 5.20078 14.4001 6.18575 14.4001 7.40078V11.0008C14.4001 12.2158 13.4151 13.2008 12.2001 13.2008H3.8001C2.58507 13.2008 1.6001 12.2158 1.6001 11.0008V7.40078ZM3.8001 6.40078C3.24781 6.40078 2.8001 6.8485 2.8001 7.40078V11.0008C2.8001 11.5531 3.24781 12.0008 3.8001 12.0008H12.2001C12.7524 12.0008 13.2001 11.5531 13.2001 11.0008V7.40078C13.2001 6.8485 12.7524 6.40078 12.2001 6.40078H3.8001ZM4.4001 8.60078C4.06873 8.60078 3.8001 8.86941 3.8001 9.20078C3.8001 9.53215 4.06873 9.80078 4.4001 9.80078H8.0001C8.33147 9.80078 8.6001 9.53215 8.6001 9.20078C8.6001 8.86941 8.33147 8.60078 8.0001 8.60078H4.4001ZM10.4001 8.60078C10.0687 8.60078 9.8001 8.86941 9.8001 9.20078C9.8001 9.53215 10.0687 9.80078 10.4001 9.80078H11.6001C11.9315 9.80078 12.2001 9.53215 12.2001 9.20078C12.2001 8.86941 11.9315 8.60078 11.6001 8.60078H10.4001Z" fill="#8B5CF6"/>
</svg>
