<svg width="20" height="20"  xmlns="http://www.w3.org/2000/svg">
<path fill-rule="evenodd" clip-rule="evenodd" d="M12.0558 3.08276C11.6594 2.87077 11.274 2.78208 10.4132 2.76576H5.58605C4.72524 2.78208 4.3398 2.87077 3.94341 3.08276C3.57067 3.28211 3.28162 3.57115 3.08227 3.94389C2.87028 4.34029 2.78159 4.72572 2.76527 5.58653V10.4137C2.78159 11.2745 2.87028 11.6599 3.08227 12.0563C3.28162 12.429 3.57067 12.7181 3.94341 12.9174C4.3398 13.1294 4.72524 13.2181 5.58605 13.2344H10.4132C11.274 13.2181 11.6594 13.1294 12.0558 12.9174C12.4286 12.7181 12.7176 12.429 12.9169 12.0563C13.1289 11.6599 13.2176 11.2745 13.2339 10.4137V5.58653C13.2176 4.72572 13.1289 4.34029 12.9169 3.94389C12.7176 3.57115 12.4286 3.28211 12.0558 3.08276ZM10.284 1.6001C10.3279 1.60056 10.3709 1.60119 10.4132 1.60199L10.4352 1.60242C11.476 1.62365 12.0306 1.74947 12.6047 2.05649C13.1802 2.3643 13.6354 2.81948 13.9432 3.39504C14.2502 3.96912 14.3761 4.52371 14.3973 5.56447L14.3977 5.58653C14.3985 5.62878 14.3991 5.67182 14.3996 5.71568V10.2845C14.3991 10.3284 14.3985 10.3714 14.3977 10.4137L14.3973 10.4357C14.3761 11.4765 14.2502 12.0311 13.9432 12.6052C13.6354 13.1807 13.1802 13.6359 12.6047 13.9437C12.0306 14.2507 11.476 14.3766 10.4352 14.3978L10.4132 14.3982C10.3709 14.399 10.3279 14.3996 10.284 14.4001H5.7152C5.67133 14.3996 5.62829 14.399 5.58605 14.3982L5.56399 14.3978C4.52322 14.3766 3.96864 14.2507 3.39455 13.9437C2.819 13.6359 2.36382 13.1807 2.05601 12.6052C1.74898 12.0311 1.62316 11.4765 1.60193 10.4357L1.6015 10.4137C1.6007 10.3714 1.60007 10.3284 1.59961 10.2845V5.71568C1.60007 5.67182 1.6007 5.62878 1.6015 5.58653L1.60193 5.56447C1.62316 4.52371 1.74898 3.96912 2.05601 3.39504C2.36382 2.81948 2.819 2.3643 3.39455 2.05649C3.96864 1.74947 4.52322 1.62365 5.56399 1.60242L5.58605 1.60199C5.62829 1.60119 5.67133 1.60056 5.7152 1.6001H10.284ZM8.59902 5.71437C8.59902 5.38331 8.33065 5.11494 7.9996 5.11494C7.66854 5.11494 7.40017 5.38331 7.40017 5.71437V7.40066H5.71388C5.38283 7.40066 5.11445 7.66903 5.11445 8.00008C5.11445 8.33114 5.38283 8.59951 5.71388 8.59951H7.40017V10.2858C7.40017 10.6169 7.66854 10.8852 7.9996 10.8852C8.33065 10.8852 8.59902 10.6169 8.59902 10.2858V8.59951H10.2853C10.6164 8.59951 10.8847 8.33114 10.8847 8.00008C10.8847 7.66903 10.6164 7.40066 10.2853 7.40066H8.59902V5.71437Z" />
</svg>
