<svg width="20" height="20"  xmlns="http://www.w3.org/2000/svg">
<g filter="url(#filter0_d_6586_63561)">
<path d="M4 8C4 5.23858 6.23858 3 9 3V3C11.7614 3 14 5.23858 14 8V8C14 10.7614 11.7614 13 9 13V13C6.23858 13 4 10.7614 4 8V8Z" fill="#818CF8"/>
<path d="M9 12C6.79086 12 5 10.2091 5 8H3C3 11.3137 5.68629 14 9 14V12ZM13 8C13 10.2091 11.2091 12 9 12V14C12.3137 14 15 11.3137 15 8H13ZM9 4C11.2091 4 13 5.79086 13 8H15C15 4.68629 12.3137 2 9 2V4ZM9 2C5.68629 2 3 4.68629 3 8H5C5 5.79086 6.79086 4 9 4V2Z" fill="#6467FA"/>
</g>
<defs>
<filter id="filter0_d_6586_63561" x="0" y="0" width="18" height="18" filterUnits="userSpaceOnUse" color-interpolation-filters="sRGB">
<feFlood flood-opacity="0" result="BackgroundImageFix"/>
<feColorMatrix in="SourceAlpha" type="matrix" values="0 0 0 0 0 0 0 0 0 0 0 0 0 0 0 0 0 0 127 0" result="hardAlpha"/>
<feOffset dy="1"/>
<feGaussianBlur stdDeviation="2"/>
<feComposite in2="hardAlpha" operator="out"/>
<feColorMatrix type="matrix" values="0 0 0 0 0.501961 0 0 0 0 0.517647 0 0 0 0 0.976471 0 0 0 1 0"/>
<feBlend mode="normal" in2="BackgroundImageFix" result="effect1_dropShadow_6586_63561"/>
<feBlend mode="normal" in="SourceGraphic" in2="effect1_dropShadow_6586_63561" result="shape"/>
</filter>
</defs>
</svg>
