<svg width="16" height="16" xmlns="http://www.w3.org/2000/svg">
<path fill-rule="evenodd" clip-rule="evenodd" d="M7 1.2002C6.2268 1.2002 5.6 1.827 5.6 2.6002V3.6002H2.8H2.6C2.26863 3.6002 2 3.86882 2 4.2002C2 4.53157 2.26863 4.80019 2.6 4.80019H2.8V11.8002C2.8 13.4571 4.14315 14.8002 5.8 14.8002H10.2C11.8569 14.8002 13.2 13.4571 13.2 11.8002V4.80019H13.4C13.7314 4.80019 14 4.53157 14 4.2002C14 3.86882 13.7314 3.6002 13.4 3.6002L13.2 3.6002H10.4V2.6002C10.4 1.827 9.7732 1.2002 9 1.2002H7ZM6.8 2.6002C6.8 2.48974 6.88954 2.4002 7 2.4002H9C9.11046 2.4002 9.2 2.48974 9.2 2.6002V3.60019H6.8V2.6002ZM4 11.8002V4.8002H12V11.8002C12 12.7943 11.1941 13.6002 10.2 13.6002H5.8C4.80589 13.6002 4 12.7943 4 11.8002ZM7.2 10.6002V7.80019C7.2 7.46882 6.93137 7.20019 6.6 7.20019C6.26863 7.20019 6 7.46882 6 7.80019V10.6002C6 10.9316 6.26863 11.2002 6.6 11.2002C6.93137 11.2002 7.2 10.9316 7.2 10.6002ZM10 10.6002V7.80019C10 7.46882 9.73137 7.20019 9.4 7.20019C9.06863 7.20019 8.8 7.46882 8.8 7.80019V10.6002C8.8 10.9316 9.06863 11.2002 9.4 11.2002C9.73137 11.2002 10 10.9316 10 10.6002Z" />
</svg>
