<svg width="20" height="21" xmlns="http://www.w3.org/2000/svg">
<path fill-rule="evenodd" clip-rule="evenodd" d="M10 17.5C13.866 17.5 17 14.366 17 10.5C17 6.63401 13.866 3.5 10 3.5C6.13401 3.5 3 6.63401 3 10.5C3 14.366 6.13401 17.5 10 17.5ZM10 19C14.6944 19 18.5 15.1944 18.5 10.5C18.5 5.80558 14.6944 2 10 2C5.30558 2 1.5 5.80558 1.5 10.5C1.5 15.1944 5.30558 19 10 19Z" />
<path fill-rule="evenodd" clip-rule="evenodd" d="M13.2803 8.09467C13.5732 8.38756 13.5732 8.86244 13.2803 9.15533L9.53033 12.9053C9.23744 13.1982 8.76256 13.1982 8.46967 12.9053L6.71967 11.1553C6.42678 10.8624 6.42678 10.3876 6.71967 10.0947C7.01256 9.80178 7.48744 9.80178 7.78033 10.0947L9 11.3143L12.2197 8.09467C12.5126 7.80178 12.9874 7.80178 13.2803 8.09467Z"/>
</svg>
