<svg width="24" height="24" viewBox="0 0 24 24" fill="none" xmlns="http://www.w3.org/2000/svg">
<path d="M10.994 3.01684C10.0889 2.95224 9.18026 3.07397 8.32347 3.37441C7.46654 3.67485 6.67948 4.14755 6.00961 4.76337C5.33973 5.37934 4.80111 6.12553 4.42567 6.95683C4.05023 7.78798 3.84559 8.6871 3.82406 9.59985C3.80297 10.4886 3.9559 11.3727 4.27377 12.2018C3.61327 12.7236 3.0972 13.4081 2.77509 14.1893C2.43729 15.0088 2.32509 15.9048 2.44989 16.7829L2.45136 16.7925L2.45297 16.8023C2.64764 17.9846 3.25555 19.0591 4.16888 19.83C5.08075 20.5995 6.23651 21.0151 7.42728 20.9996H10.1884C10.6854 20.9996 11.0884 20.5966 11.0884 20.0996C11.0884 19.6025 10.6854 19.1996 10.1884 19.1996L7.42113 19.1994L7.40809 19.1997C6.65091 19.2105 5.91351 18.947 5.32992 18.4544C4.74852 17.9638 4.35785 17.278 4.2307 16.5195C4.15306 15.9622 4.22528 15.3943 4.43915 14.8755C4.65448 14.3536 5.00472 13.9015 5.45194 13.5662L5.46219 13.5584L5.47245 13.5504C5.76058 13.321 5.96361 13.0028 6.05165 12.6469C6.13822 12.2969 6.10936 11.9281 5.96932 11.5958C5.72543 10.9752 5.60765 10.3107 5.62347 9.64247C5.63944 8.9704 5.79003 8.30873 6.06615 7.69775C6.23314 7.32817 6.44379 6.98173 6.69266 6.66606C6.85526 6.45981 7.03412 6.26659 7.22792 6.08847C7.71849 5.63744 8.29374 5.29218 8.91893 5.07304C9.54398 4.8539 10.2064 4.76527 10.866 4.8123C11.5256 4.85932 12.1694 5.04111 12.7583 5.34696C13.3472 5.65282 13.8692 6.0766 14.2926 6.59311C14.7159 7.10961 15.0316 7.70815 15.22 8.35253L15.2227 8.36147C15.3058 8.6351 15.4555 8.88442 15.659 9.08642C15.8626 9.28842 16.1138 9.43666 16.3901 9.51679L16.4078 9.52192L16.4257 9.52631C17.3342 9.74985 18.1422 10.2791 18.7162 11.0292C19.832 12.6656 19.9971 14.2645 19.6139 15.5865C19.2238 16.9318 18.2466 18.0571 16.965 18.6798C16.518 18.8969 16.3316 19.4355 16.5489 19.8826C16.7661 20.3297 17.3046 20.516 17.7516 20.2988C19.4679 19.4648 20.8036 17.9467 21.3427 16.0878C21.887 14.2101 21.5998 12.0507 20.1884 9.9933L20.1764 9.97572L20.1637 9.95888C19.3574 8.89438 18.2198 8.1331 16.9331 7.79809C16.6753 6.94086 16.2512 6.14325 15.6847 5.45214C15.1075 4.7477 14.3942 4.16835 13.588 3.74955C12.7816 3.33075 11.8992 3.08129 10.994 3.01684Z" fill="#6F7883"/>
<path d="M16.5764 15.7607C16.2248 16.1121 15.655 16.1121 15.3036 15.7607L14.7187 15.1758V20.1C14.7187 20.597 14.3157 21 13.8187 21C13.3217 21 12.9187 20.597 12.9187 20.1V15.1756L12.3336 15.7607C11.9822 16.1121 11.4124 16.1121 11.061 15.7607C10.7094 15.4091 10.7094 14.8393 11.061 14.4879L12.3336 13.2151C13.1538 12.3949 14.4834 12.3949 15.3036 13.2151L16.5764 14.4879C16.9278 14.8393 16.9278 15.4091 16.5764 15.7607Z" fill="#6F7883"/>
</svg>
