<svg width="16" height="16" viewBox="0 0 16 16" fill="none" xmlns="http://www.w3.org/2000/svg">
<path fill-rule="evenodd" clip-rule="evenodd" d="M10.8001 6.8001C10.8001 9.00924 9.00924 10.8001 6.8001 10.8001C4.59096 10.8001 2.8001 9.00924 2.8001 6.8001C2.8001 4.59096 4.59096 2.8001 6.8001 2.8001C9.00924 2.8001 10.8001 4.59096 10.8001 6.8001ZM10.0284 10.8769C9.1415 11.5801 8.01984 12.0001 6.8001 12.0001C3.92822 12.0001 1.6001 9.67198 1.6001 6.8001C1.6001 3.92822 3.92822 1.6001 6.8001 1.6001C9.67198 1.6001 12.0001 3.92822 12.0001 6.8001C12.0001 8.01986 11.5801 9.14152 10.8769 10.0284L14.2243 13.3758C14.4586 13.6102 14.4586 13.9901 14.2243 14.2244C13.99 14.4587 13.6101 14.4587 13.3758 14.2244L10.0284 10.8769Z" fill="#9DA5AF"/>
</svg>
