<svg width="18" height="18" viewBox="0 0 18 18" fill="none" xmlns="http://www.w3.org/2000/svg">
<g filter="url(#filter0_d_9709_8200)">
<circle cx="9" cy="8" r="5" fill="#40E5E5"/>
<circle cx="9" cy="8" r="4.5" stroke="#18DBD5"/>
</g>
<path d="M9 12C6.79086 12 5 10.2091 5 8H3C3 11.3137 5.68629 14 9 14V12ZM13 8C13 10.2091 11.2091 12 9 12V14C12.3137 14 15 11.3137 15 8H13ZM9 4C11.2091 4 13 5.79086 13 8H15C15 4.68629 12.3137 2 9 2V4ZM9 2C5.68629 2 3 4.68629 3 8H5C5 5.79086 6.79086 4 9 4V2Z" fill="#18DBD5"/>
<defs>
<filter id="filter0_d_9709_8200" x="0" y="0" width="18" height="18" filterUnits="userSpaceOnUse" color-interpolation-filters="sRGB">
<feFlood flood-opacity="0" result="BackgroundImageFix"/>
<feColorMatrix in="SourceAlpha" type="matrix" values="0 0 0 0 0 0 0 0 0 0 0 0 0 0 0 0 0 0 127 0" result="hardAlpha"/>
<feOffset dy="1"/>
<feGaussianBlur stdDeviation="2"/>
<feComposite in2="hardAlpha" operator="out"/>
<feColorMatrix type="matrix" values="0 0 0 0 0.2576 0 0 0 0 0.92 0 0 0 0 0.894936 0 0 0 1 0"/>
<feBlend mode="normal" in2="BackgroundImageFix" result="effect1_dropShadow_9709_8200"/>
<feBlend mode="normal" in="SourceGraphic" in2="effect1_dropShadow_9709_8200" result="shape"/>
</filter>
</defs>
</svg>
