<svg width="20" height="20" viewBox="0 0 20 20" fill="none" xmlns="http://www.w3.org/2000/svg">
<path fill-rule="evenodd" clip-rule="evenodd" d="M5.75 3.5C4.50736 3.5 3.5 4.50736 3.5 5.75V14.25C3.5 15.4926 4.50736 16.5 5.75 16.5H14.25C15.4926 16.5 16.5 15.4926 16.5 14.25V11C16.5 10.5858 16.8358 10.25 17.25 10.25C17.6642 10.25 18 10.5858 18 11V14.25C18 16.3211 16.3211 18 14.25 18H5.75C3.67893 18 2 16.3211 2 14.25V5.75C2 3.67893 3.67893 2 5.75 2H9C9.41421 2 9.75 2.33579 9.75 2.75C9.75 3.16421 9.41421 3.5 9 3.5H5.75ZM7.46991 9.71991C7.17702 10.0128 7.17702 10.4877 7.46991 10.7806L9.46973 12.7804C9.76263 13.0733 10.2375 13.0733 10.5304 12.7804L12.5302 10.7806C12.8231 10.4877 12.8231 10.0128 12.5302 9.71991C12.2373 9.42702 11.7624 9.42702 11.4696 9.71991L10.75 10.4395V9.26152C10.75 6.14347 13.322 3.5 16.2143 3.5H17.25C17.6642 3.5 18 3.16421 18 2.75C18 2.33579 17.6642 2 17.25 2H16.2143C12.4283 2 9.25 5.38186 9.25 9.26152V10.4393L8.53057 9.71991C8.23768 9.42702 7.76281 9.42702 7.46991 9.71991Z" fill="#6F7883"/>
</svg>
