<svg width="28" height="28" viewBox="0 0 28 28" fill="none" xmlns="http://www.w3.org/2000/svg">
<path fill-rule="evenodd" clip-rule="evenodd" d="M22.5 14C22.5 18.6944 18.6944 22.5 14 22.5C9.30558 22.5 5.5 18.6944 5.5 14C5.5 9.30558 9.30558 5.5 14 5.5C18.6944 5.5 22.5 9.30558 22.5 14ZM13.6869 14.8075H11.3286C11.1392 14.8075 11 14.6785 11 14.5003C11 14.4016 11.0348 14.3144 11.1121 14.2196L14.9278 9.67916C15.2371 9.31123 15.7204 9.55399 15.5425 10.0092L14.3131 13.1954H16.6714C16.8608 13.1954 17 13.3244 17 13.4989C17 13.5975 16.9613 13.6885 16.884 13.7796L13.0722 18.32C12.759 18.6879 12.2758 18.4489 12.4536 17.99L13.6869 14.8075Z" fill="#AB4BF5"/>
</svg>
