<svg width="20" height="20" xmlns="http://www.w3.org/2000/svg"><path d="M10 1.5a8.5 8.5 0 110 17 8.5 8.5 0 010-17zm-2.992 12H3.937a7.01 7.01 0 004.555 3.337A14.334 14.334 0 017.008 13.5zm9.055 0h-3.07a14.348 14.348 0 01-1.484 3.336 7.007 7.007 0 004.554-3.336zm-4.643 0H8.58c.331.985.804 1.96 1.42 2.924.616-.965 1.09-1.94 1.42-2.924zM6.664 8H3.29A7.001 7.001 0 003 10a7 7 0 00.29 2.001h3.374a12.261 12.261 0 010-4zm5.15 0H8.186a10.768 10.768 0 000 4.001h3.626a10.772 10.772 0 000-4.001zm4.896 0h-3.374a12.258 12.258 0 010 4l3.374.001A7 7 0 0017 10c0-.695-.101-1.366-.29-2zM8.491 3.164l-.128.029A7.012 7.012 0 003.936 6.5h3.071c.333-1.13.828-2.243 1.484-3.337zm1.51.412A13.199 13.199 0 008.58 6.5h2.84A13.336 13.336 0 0010 3.576zm1.507-.413l.052.086a14.303 14.303 0 011.433 3.252h3.071a7.01 7.01 0 00-4.556-3.338z"/></svg>