<svg width="16" height="16" viewBox="0 0 16 16" xmlns="http://www.w3.org/2000/svg">
<path fill-rule="evenodd" clip-rule="evenodd" d="M3 8.0004C3 8.33177 3.26863 8.6004 3.6 8.6004L11.6 8.6004C11.5721 8.63754 11.5412 8.67317 11.5074 8.70699L7.83042 12.3839C7.5961 12.6183 7.5961 12.9982 7.83042 13.2325C8.06473 13.4668 8.44463 13.4668 8.67894 13.2325L12.3559 9.55552C13.215 8.69637 13.215 7.3034 12.3559 6.44425L8.67894 2.7673C8.44463 2.53299 8.06473 2.53299 7.83042 2.7673C7.5961 3.00162 7.5961 3.38152 7.83042 3.61583L11.5074 7.29278C11.5415 7.32691 11.5726 7.36289 11.6008 7.4004L3.6 7.4004C3.26863 7.4004 3 7.66903 3 8.0004Z" />
</svg>
