<svg xmlns="http://www.w3.org/2000/svg" viewBox="0 0 265.7 264.7">
  <defs>
    <linearGradient id="a" x1=".9" x2=".1" y1=".2" y2=".8" gradientUnits="objectBoundingBox">
      <stop offset="0" stop-color="#b89ef8"/>
      <stop offset="1" stop-color="#6243f5"/>
    </linearGradient>
  </defs>
  <g data-name="组 5430" transform="translate(3036 -14323)">
    <rect width="264.7" height="264.7" fill="url(#a)" data-name="矩形 3052" rx="18.8" transform="translate(-3035 14323)"/>
    <circle cx="6.9" cy="6.9" r="6.9" fill="#fff" data-name="椭圆 635" opacity=".1" transform="translate(-3018 14330)"/>
    <circle cx="6.9" cy="6.9" r="6.9" fill="#fff" data-name="椭圆 636" opacity=".1" transform="translate(-2994 14330)"/>
    <circle cx="6.9" cy="6.9" r="6.9" fill="#fff" data-name="椭圆 637" opacity=".1" transform="translate(-2970 14330)"/>
    <circle cx="6.9" cy="6.9" r="6.9" fill="#fff" data-name="椭圆 638" opacity=".1" transform="translate(-2946 14330)"/>
    <circle cx="6.9" cy="6.9" r="6.9" fill="#fff" data-name="椭圆 639" opacity=".1" transform="translate(-2922 14330)"/>
    <circle cx="6.9" cy="6.9" r="6.9" fill="#fff" data-name="椭圆 640" opacity=".1" transform="translate(-2898 14330)"/>
    <circle cx="6.9" cy="6.9" r="6.9" fill="#fff" data-name="椭圆 641" opacity=".1" transform="translate(-2873 14330)"/>
    <circle cx="6.9" cy="6.9" r="6.9" fill="#fff" data-name="椭圆 642" opacity=".1" transform="translate(-2849 14330)"/>
    <circle cx="6.9" cy="6.9" r="6.9" fill="#fff" data-name="椭圆 643" opacity=".1" transform="translate(-2825 14330)"/>
    <circle cx="6.9" cy="6.9" r="6.9" fill="#fff" data-name="椭圆 644" opacity=".1" transform="translate(-2801 14330)"/>
    <circle cx="6.9" cy="6.9" r="6.9" fill="#fff" data-name="椭圆 647" opacity=".1" transform="translate(-3018 14353)"/>
    <circle cx="6.9" cy="6.9" r="6.9" fill="#fff" data-name="椭圆 648" opacity=".1" transform="translate(-2994 14353)"/>
    <circle cx="6.9" cy="6.9" r="6.9" fill="#fff" data-name="椭圆 649" transform="translate(-2970 14353)"/>
    <circle cx="6.9" cy="6.9" r="6.9" fill="#fff" data-name="椭圆 650" opacity=".1" transform="translate(-2946 14353)"/>
    <circle cx="6.9" cy="6.9" r="6.9" fill="#fff" data-name="椭圆 651" opacity=".1" transform="translate(-2922 14353)"/>
    <circle cx="6.9" cy="6.9" r="6.9" fill="#fff" data-name="椭圆 652" opacity=".1" transform="translate(-2898 14353)"/>
    <circle cx="6.9" cy="6.9" r="6.9" fill="#fff" data-name="椭圆 653" opacity=".1" transform="translate(-2873 14353)"/>
    <circle cx="6.9" cy="6.9" r="6.9" fill="#fff" data-name="椭圆 654" opacity=".1" transform="translate(-2849 14353)"/>
    <circle cx="6.9" cy="6.9" r="6.9" fill="#fff" data-name="椭圆 655" opacity=".1" transform="translate(-2825 14353)"/>
    <circle cx="6.9" cy="6.9" r="6.9" fill="#fff" data-name="椭圆 656" opacity=".1" transform="translate(-2801 14353)"/>
    <circle cx="6.9" cy="6.9" r="6.9" fill="#fff" data-name="椭圆 659" opacity=".1" transform="translate(-3018 14377)"/>
    <circle cx="6.9" cy="6.9" r="6.9" fill="#fff" data-name="椭圆 660" opacity=".1" transform="translate(-2994 14377)"/>
    <circle cx="6.9" cy="6.9" r="6.9" fill="#fff" data-name="椭圆 661" transform="translate(-2970 14377)"/>
    <circle cx="6.9" cy="6.9" r="6.9" fill="#fff" data-name="椭圆 662" opacity=".1" transform="translate(-2946 14377)"/>
    <circle cx="6.9" cy="6.9" r="6.9" fill="#fff" data-name="椭圆 663" opacity=".1" transform="translate(-2922 14377)"/>
    <circle cx="6.9" cy="6.9" r="6.9" fill="#fff" data-name="椭圆 664" opacity=".1" transform="translate(-2898 14377)"/>
    <circle cx="6.9" cy="6.9" r="6.9" fill="#fff" data-name="椭圆 665" opacity=".1" transform="translate(-2873 14377)"/>
    <circle cx="6.9" cy="6.9" r="6.9" fill="#fff" data-name="椭圆 666" opacity=".1" transform="translate(-2849 14377)"/>
    <circle cx="6.9" cy="6.9" r="6.9" fill="#fff" data-name="椭圆 667" opacity=".1" transform="translate(-2825 14377)"/>
    <circle cx="6.9" cy="6.9" r="6.9" fill="#fff" data-name="椭圆 668" opacity=".1" transform="translate(-2801 14377)"/>
    <circle cx="6.9" cy="6.9" r="6.9" fill="#fff" data-name="椭圆 671" transform="translate(-3018 14401)"/>
    <circle cx="6.9" cy="6.9" r="6.9" fill="#fff" data-name="椭圆 672" transform="translate(-2994 14401)"/>
    <circle cx="6.9" cy="6.9" r="6.9" fill="#fff" data-name="椭圆 673" transform="translate(-2970 14401)"/>
    <circle cx="6.9" cy="6.9" r="6.9" fill="#fff" data-name="椭圆 674" transform="translate(-2946 14401)"/>
    <circle cx="6.9" cy="6.9" r="6.9" fill="#fff" data-name="椭圆 675" transform="translate(-2922 14401)"/>
    <circle cx="6.9" cy="6.9" r="6.9" fill="#fff" data-name="椭圆 676" opacity=".1" transform="translate(-2898 14401)"/>
    <circle cx="6.9" cy="6.9" r="6.9" fill="#fff" data-name="椭圆 677" opacity=".1" transform="translate(-2873 14401)"/>
    <circle cx="6.9" cy="6.9" r="6.9" fill="#fff" data-name="椭圆 678" opacity=".1" transform="translate(-2849 14401)"/>
    <circle cx="6.9" cy="6.9" r="6.9" fill="#fff" data-name="椭圆 679" opacity=".1" transform="translate(-2825 14401)"/>
    <circle cx="6.9" cy="6.9" r="6.9" fill="#fff" data-name="椭圆 680" opacity=".1" transform="translate(-2801 14401)"/>
    <circle cx="6.9" cy="6.9" r="6.9" fill="#fff" data-name="椭圆 683" opacity=".1" transform="translate(-3018 14425)"/>
    <circle cx="6.9" cy="6.9" r="6.9" fill="#fff" data-name="椭圆 684" opacity=".1" transform="translate(-2994 14425)"/>
    <circle cx="6.9" cy="6.9" r="6.9" fill="#fff" data-name="椭圆 685" transform="translate(-2970 14425)"/>
    <circle cx="6.9" cy="6.9" r="6.9" fill="#fff" data-name="椭圆 686" opacity=".1" transform="translate(-2946 14425)"/>
    <circle cx="6.9" cy="6.9" r="6.9" fill="#fff" data-name="椭圆 687" opacity=".1" transform="translate(-2922 14425)"/>
    <circle cx="6.9" cy="6.9" r="6.9" fill="#fff" data-name="椭圆 688" opacity=".1" transform="translate(-2898 14425)"/>
    <circle cx="6.9" cy="6.9" r="6.9" fill="#fff" data-name="椭圆 689" opacity=".1" transform="translate(-2873 14425)"/>
    <circle cx="6.9" cy="6.9" r="6.9" fill="#fff" data-name="椭圆 690" opacity=".1" transform="translate(-2849 14425)"/>
    <circle cx="6.9" cy="6.9" r="6.9" fill="#fff" data-name="椭圆 691" opacity=".1" transform="translate(-2825 14425)"/>
    <circle cx="6.9" cy="6.9" r="6.9" fill="#fff" data-name="椭圆 692" opacity=".1" transform="translate(-2801 14425)"/>
    <circle cx="6.9" cy="6.9" r="6.9" fill="#fff" data-name="椭圆 695" opacity=".1" transform="translate(-3018 14448)"/>
    <circle cx="6.9" cy="6.9" r="6.9" fill="#fff" data-name="椭圆 696" opacity=".1" transform="translate(-2994 14448)"/>
    <circle cx="6.9" cy="6.9" r="6.9" fill="#fff" data-name="椭圆 697" transform="translate(-2970 14448)"/>
    <circle cx="6.9" cy="6.9" r="6.9" fill="#fff" data-name="椭圆 698" opacity=".1" transform="translate(-2946 14448)"/>
    <circle cx="6.9" cy="6.9" r="6.9" fill="#fff" data-name="椭圆 699" opacity=".1" transform="translate(-2922 14448)"/>
    <circle cx="6.9" cy="6.9" r="6.9" fill="#fff" data-name="椭圆 700" opacity=".1" transform="translate(-2898 14448)"/>
    <circle cx="6.9" cy="6.9" r="6.9" fill="#fff" data-name="椭圆 701" opacity=".1" transform="translate(-2873 14448)"/>
    <circle cx="6.9" cy="6.9" r="6.9" fill="#fff" data-name="椭圆 702" opacity=".1" transform="translate(-2849 14448)"/>
    <circle cx="6.9" cy="6.9" r="6.9" fill="#fff" data-name="椭圆 703" opacity=".1" transform="translate(-2825 14448)"/>
    <circle cx="6.9" cy="6.9" r="6.9" fill="#fff" data-name="椭圆 704" opacity=".1" transform="translate(-2801 14448)"/>
    <circle cx="6.9" cy="6.9" r="6.9" fill="#fff" data-name="椭圆 707" opacity=".1" transform="translate(-3018 14472)"/>
    <circle cx="6.9" cy="6.9" r="6.9" fill="#fff" data-name="椭圆 708" opacity=".1" transform="translate(-2994 14472)"/>
    <circle cx="6.9" cy="6.9" r="6.9" fill="#fff" data-name="椭圆 709" opacity=".1" transform="translate(-2970 14472)"/>
    <circle cx="6.9" cy="6.9" r="6.9" fill="#fff" data-name="椭圆 710" opacity=".1" transform="translate(-2946 14472)"/>
    <circle cx="6.9" cy="6.9" r="6.9" fill="#fff" data-name="椭圆 711" opacity=".1" transform="translate(-2922 14472)"/>
    <circle cx="6.9" cy="6.9" r="6.9" fill="#fff" data-name="椭圆 712" opacity=".1" transform="translate(-2898 14472)"/>
    <circle cx="6.9" cy="6.9" r="6.9" fill="#fff" data-name="椭圆 713" opacity=".1" transform="translate(-2873 14472)"/>
    <circle cx="6.9" cy="6.9" r="6.9" fill="#fff" data-name="椭圆 714" opacity=".1" transform="translate(-2849 14472)"/>
    <circle cx="6.9" cy="6.9" r="6.9" fill="#fff" data-name="椭圆 715" opacity=".1" transform="translate(-2825 14472)"/>
    <circle cx="6.9" cy="6.9" r="6.9" fill="#fff" data-name="椭圆 716" opacity=".1" transform="translate(-2801 14472)"/>
    <circle cx="6.9" cy="6.9" r="6.9" fill="#fff" data-name="椭圆 719" opacity=".1" transform="translate(-3018 14496)"/>
    <circle cx="6.9" cy="6.9" r="6.9" fill="#fff" data-name="椭圆 720" opacity=".1" transform="translate(-2994 14496)"/>
    <circle cx="6.9" cy="6.9" r="6.9" fill="#fff" data-name="椭圆 721" opacity=".1" transform="translate(-2970 14496)"/>
    <circle cx="6.9" cy="6.9" r="6.9" fill="#fff" data-name="椭圆 722" opacity=".1" transform="translate(-2946 14496)"/>
    <circle cx="6.9" cy="6.9" r="6.9" fill="#fff" data-name="椭圆 723" opacity=".1" transform="translate(-2922 14496)"/>
    <circle cx="6.9" cy="6.9" r="6.9" fill="#fff" data-name="椭圆 724" opacity=".1" transform="translate(-2898 14496)"/>
    <circle cx="6.9" cy="6.9" r="6.9" fill="#fff" data-name="椭圆 725" opacity=".1" transform="translate(-2873 14496)"/>
    <circle cx="6.9" cy="6.9" r="6.9" fill="#fff" data-name="椭圆 726" opacity=".1" transform="translate(-2849 14496)"/>
    <circle cx="6.9" cy="6.9" r="6.9" fill="#fff" data-name="椭圆 727" opacity=".1" transform="translate(-2825 14496)"/>
    <circle cx="6.9" cy="6.9" r="6.9" fill="#fff" data-name="椭圆 728" opacity=".1" transform="translate(-2801 14496)"/>
    <circle cx="6.9" cy="6.9" r="6.9" fill="#fff" data-name="椭圆 731" opacity=".1" transform="translate(-3018 14520)"/>
    <circle cx="6.9" cy="6.9" r="6.9" fill="#fff" data-name="椭圆 732" opacity=".1" transform="translate(-2994 14520)"/>
    <circle cx="6.9" cy="6.9" r="6.9" fill="#fff" data-name="椭圆 733" opacity=".1" transform="translate(-2970 14520)"/>
    <circle cx="6.9" cy="6.9" r="6.9" fill="#fff" data-name="椭圆 734" opacity=".1" transform="translate(-2946 14520)"/>
    <circle cx="6.9" cy="6.9" r="6.9" fill="#fff" data-name="椭圆 735" opacity=".1" transform="translate(-2922 14520)"/>
    <circle cx="6.9" cy="6.9" r="6.9" fill="#fff" data-name="椭圆 736" transform="translate(-2898 14520)"/>
    <circle cx="6.9" cy="6.9" r="6.9" fill="#fff" data-name="椭圆 737" transform="translate(-2873 14520)"/>
    <circle cx="6.9" cy="6.9" r="6.9" fill="#fff" data-name="椭圆 738" transform="translate(-2849 14520)"/>
    <circle cx="6.9" cy="6.9" r="6.9" fill="#fff" data-name="椭圆 739" transform="translate(-2825 14520)"/>
    <circle cx="6.9" cy="6.9" r="6.9" fill="#fff" data-name="椭圆 740" transform="translate(-2801 14520)"/>
    <circle cx="6.9" cy="6.9" r="6.9" fill="#fff" data-name="椭圆 743" opacity=".1" transform="translate(-3018 14544)"/>
    <circle cx="6.9" cy="6.9" r="6.9" fill="#fff" data-name="椭圆 744" opacity=".1" transform="translate(-2994 14544)"/>
    <circle cx="6.9" cy="6.9" r="6.9" fill="#fff" data-name="椭圆 745" opacity=".1" transform="translate(-2970 14544)"/>
    <circle cx="6.9" cy="6.9" r="6.9" fill="#fff" data-name="椭圆 746" opacity=".1" transform="translate(-2946 14544)"/>
    <circle cx="6.9" cy="6.9" r="6.9" fill="#fff" data-name="椭圆 747" opacity=".1" transform="translate(-2922 14544)"/>
    <circle cx="6.9" cy="6.9" r="6.9" fill="#fff" data-name="椭圆 748" opacity=".1" transform="translate(-2898 14544)"/>
    <circle cx="6.9" cy="6.9" r="6.9" fill="#fff" data-name="椭圆 749" opacity=".1" transform="translate(-2873 14544)"/>
    <circle cx="6.9" cy="6.9" r="6.9" fill="#fff" data-name="椭圆 750" opacity=".1" transform="translate(-2849 14544)"/>
    <circle cx="6.9" cy="6.9" r="6.9" fill="#fff" data-name="椭圆 751" opacity=".1" transform="translate(-2825 14544)"/>
    <circle cx="6.9" cy="6.9" r="6.9" fill="#fff" data-name="椭圆 752" opacity=".1" transform="translate(-2801 14544)"/>
    <path fill="#fff" stroke="rgba(0,0,0,0)" stroke-miterlimit="10" d="M-3031 14580h0a19 19 0 01-4-11v-2a7 7 0 014 13zm-4-23h0v-13a7 7 0 110 13zm0-23h0v-14a7 7 0 010 14zm0-24h0v-14a7 7 0 010 14zm0-24h0v-14a7 7 0 110 14zm0-24h0v-14a7 7 0 010 14zm0-24h0v-13a7 7 0 110 13zm0-23h0v-14a7 7 0 010 14zm0-24h0v-14a7 7 0 010 14zm0-24h0v-14a7 7 0 110 14zm0-24h0v-1a19 19 0 014-11 7 7 0 01-4 12z" data-name="减去 4" opacity=".1"/>
    <circle cx="6.9" cy="6.9" r="6.9" fill="#fff" data-name="椭圆 755" opacity=".1" transform="translate(-3018 14567)"/>
    <circle cx="6.9" cy="6.9" r="6.9" fill="#fff" data-name="椭圆 756" opacity=".1" transform="translate(-2994 14567)"/>
    <circle cx="6.9" cy="6.9" r="6.9" fill="#fff" data-name="椭圆 757" opacity=".1" transform="translate(-2970 14567)"/>
    <circle cx="6.9" cy="6.9" r="6.9" fill="#fff" data-name="椭圆 758" opacity=".1" transform="translate(-2946 14567)"/>
    <circle cx="6.9" cy="6.9" r="6.9" fill="#fff" data-name="椭圆 759" opacity=".1" transform="translate(-2922 14567)"/>
    <circle cx="6.9" cy="6.9" r="6.9" fill="#fff" data-name="椭圆 760" opacity=".1" transform="translate(-2898 14567)"/>
    <circle cx="6.9" cy="6.9" r="6.9" fill="#fff" data-name="椭圆 761" opacity=".1" transform="translate(-2873 14567)"/>
    <circle cx="6.9" cy="6.9" r="6.9" fill="#fff" data-name="椭圆 762" opacity=".1" transform="translate(-2849 14567)"/>
    <circle cx="6.9" cy="6.9" r="6.9" fill="#fff" data-name="椭圆 763" opacity=".1" transform="translate(-2825 14567)"/>
    <circle cx="6.9" cy="6.9" r="6.9" fill="#fff" data-name="椭圆 764" opacity=".1" transform="translate(-2801 14567)"/>
    <path fill="#fff" stroke="rgba(0,0,0,0)" stroke-miterlimit="10" d="M-2774 14580h0a7 7 0 014-13v2a19 19 0 01-4 11zm4-23h0a7 7 0 110-13v13zm0-23h0a7 7 0 010-14v14zm0-24h0a7 7 0 010-14v14zm0-24h0a7 7 0 110-14v14zm0-24h0a7 7 0 010-14v14zm0-24h0a7 7 0 110-13v13zm0-23h0a7 7 0 010-14v14zm0-24h0a7 7 0 010-14v14zm0-24h0a7 7 0 110-14v14zm0-24h0a7 7 0 01-4-12 19 19 0 014 11v1z" data-name="减去 5" opacity=".1"/>
  </g>
</svg>