<svg width="1922" height="1081" viewBox="0 0 1922 1081" fill="none" xmlns="http://www.w3.org/2000/svg">
<rect width="1921.43" height="1080.29" fill="#F9FAFB"/>
<g clip-path="url(#clip0)">
<g opacity="0.8">
<path opacity="0.25" d="M312.641 257.989C325.275 259.54 334.26 271.031 332.71 283.655C331.16 296.279 319.662 305.256 307.028 303.704C294.394 302.153 285.409 290.662 286.959 278.038C288.509 265.414 300.007 256.438 312.641 257.989Z" fill="#E5E7EB"/>
<path opacity="0.6" d="M247.632 287.481C250.657 287.852 252.809 290.604 252.438 293.628C252.067 296.651 249.313 298.801 246.287 298.43C243.261 298.058 241.109 295.306 241.481 292.282C241.852 289.259 244.606 287.109 247.632 287.481Z" fill="#E5E7EB"/>
<path opacity="0.45" fill-rule="evenodd" clip-rule="evenodd" d="M290.324 218.879C296.376 219.622 300.681 225.127 299.938 231.175C299.196 237.221 293.687 241.521 287.635 240.778C281.583 240.035 277.28 234.53 278.022 228.484C278.765 222.436 284.272 218.136 290.324 218.879Z" fill="#E5E7EB"/>
<path opacity="0.8" d="M310.663 280.2L366.184 304.718" stroke="#E5E7EB" stroke-width="1.739" stroke-linecap="round" stroke-linejoin="round"/>
<path opacity="0.7" d="M286.558 284.35L248.861 292.445" stroke="#E0B4B7" stroke-width="0.703" stroke-linecap="round" stroke-linejoin="round" stroke-dasharray="1.41 2.11"/>
<path opacity="0.8" d="M310.339 279.785L293.686 239.575" stroke="#D1D5DB" stroke-width="0.703" stroke-linecap="round" stroke-linejoin="round" stroke-dasharray="1.41 2.11"/>
<g opacity="0.8">
<path opacity="0.45" d="M369.665 300.2C374.579 298.114 380.251 300.404 382.335 305.314C384.42 310.224 382.126 315.895 377.212 317.98C372.299 320.066 366.626 317.777 364.542 312.867C362.458 307.957 364.751 302.286 369.665 300.2Z" fill="#E5E7EB"/>
<path opacity="0.8" fill-rule="evenodd" clip-rule="evenodd" d="M364.542 312.867C362.458 307.959 364.752 302.287 369.665 300.202C374.579 298.116 380.251 300.405 382.335 305.314L364.542 312.867Z" fill="#E5E7EB"/>
</g>
</g>
<path opacity="0.25" d="M379.696 765.294C396.646 766.777 409.184 781.73 407.699 798.693C406.215 815.656 391.272 828.205 374.321 826.722C357.371 825.239 344.834 810.286 346.318 793.323C347.802 776.36 362.746 763.811 379.696 765.294Z" fill="#E5E7EB"/>
<path opacity="0.3" d="M378.999 773.257C391.555 774.356 400.842 785.432 399.743 797.997C398.643 810.562 387.574 819.858 375.018 818.759C362.462 817.661 353.175 806.585 354.274 794.019C355.374 781.454 366.443 772.159 378.999 773.257Z" fill="#E5E7EB"/>
<path opacity="0.4" d="M547.25 669.91C561.06 671.118 571.276 683.303 570.067 697.124C568.857 710.946 556.681 721.171 542.871 719.963C529.06 718.755 518.844 706.571 520.053 692.749C521.263 678.927 533.439 668.702 547.25 669.91Z" stroke="#E5E7EB"/>
<path opacity="0.5" d="M378.004 784.632C384.281 785.181 388.925 790.72 388.375 797.003C387.825 803.285 382.291 807.933 376.013 807.384C369.736 806.835 365.092 801.296 365.642 795.014C366.192 788.731 371.726 784.083 378.004 784.632Z" fill="#D1D5DB"/>
<path fill-rule="evenodd" clip-rule="evenodd" d="M378.004 784.632L376.013 807.383C369.736 806.834 365.091 801.296 365.641 795.014C366.19 788.732 371.726 784.083 378.004 784.632Z" fill="#D1D5DB"/>
<g opacity="0.45">
<path opacity="0.45" d="M545.657 688.111C549.424 688.441 552.21 691.764 551.881 695.534C551.551 699.303 548.23 702.092 544.463 701.763C540.696 701.433 537.91 698.11 538.24 694.34C538.569 690.57 541.89 687.782 545.657 688.111Z" fill="#E6A1A6"/>
<path opacity="0.45" fill-rule="evenodd" clip-rule="evenodd" d="M545.657 688.111C541.89 687.782 538.569 690.571 538.239 694.34C538.081 696.15 538.647 697.948 539.814 699.34C540.981 700.731 542.653 701.603 544.462 701.762L545.656 688.111L545.657 688.111Z" fill="#E6A1A6"/>
</g>
<path d="M586.748 696.291C587.689 696.373 588.386 697.204 588.304 698.147C588.221 699.089 587.391 699.786 586.449 699.704C585.507 699.621 584.81 698.791 584.893 697.848C584.975 696.906 585.806 696.209 586.748 696.291Z" fill="#E5E7EB"/>
<path opacity="0.35" d="M549.211 654.034C550.153 654.117 550.85 654.947 550.767 655.89C550.685 656.832 549.854 657.529 548.913 657.447C547.971 657.365 547.274 656.534 547.356 655.591C547.439 654.649 548.269 653.952 549.211 654.034Z" fill="#E0B4B7"/>
<path opacity="0.35" d="M543.111 730.301C544.367 730.411 545.295 731.519 545.186 732.776C545.076 734.032 543.969 734.962 542.713 734.852C541.457 734.742 540.528 733.634 540.638 732.378C540.748 731.121 541.855 730.191 543.111 730.301Z" fill="#E0B4B7"/>
<path opacity="0.8" d="M376.959 795.125L536.279 699.765" stroke="#E5E7EB"/>
<g opacity="0.8">
<path opacity="0.8" d="M1373.39 824.584C1379.81 825.832 1383.99 832.094 1382.73 838.573C1381.47 845.051 1375.25 849.292 1368.83 848.044C1362.42 846.797 1358.24 840.534 1359.5 834.056C1360.76 827.578 1366.98 823.337 1373.39 824.584Z" stroke="#E5E7EB" stroke-width="0.941"/>
<g opacity="0.8">
<path opacity="0.45" d="M1372.81 827.422C1377.67 828.367 1380.84 833.111 1379.88 838.019C1378.93 842.927 1374.22 846.139 1369.35 845.194C1364.49 844.249 1361.32 839.505 1362.28 834.597C1363.23 829.689 1367.95 826.477 1372.81 827.422Z" fill="#D1D5DB"/>
<path opacity="0.8" fill-rule="evenodd" clip-rule="evenodd" d="M1372.81 827.422C1377.67 828.367 1380.84 833.111 1379.88 838.019C1378.93 842.927 1374.22 846.139 1369.35 845.194L1372.81 827.422Z" fill="#D1D5DB"/>
</g>
<path opacity="0.8" d="M1360.16 841.934L1326.05 856.905" stroke="#E5E7EB" stroke-width="0.941"/>
<path opacity="0.8" d="M1323.87 854.521C1325.74 854.884 1326.96 856.711 1326.59 858.6C1326.22 860.49 1324.41 861.727 1322.54 861.363C1320.67 860.999 1319.45 859.172 1319.81 857.283C1320.18 855.393 1322 854.157 1323.87 854.521Z" stroke="#E5E7EB" stroke-width="0.941"/>
<path opacity="0.8" d="M1334.97 794.798C1336.58 795.11 1337.62 796.676 1337.31 798.296C1336.99 799.916 1335.44 800.976 1333.83 800.664C1332.23 800.352 1331.18 798.786 1331.5 797.167C1331.81 795.547 1333.37 794.486 1334.97 794.798Z" fill="#F7E1AD"/>
<path opacity="0.8" d="M1363.05 826.887L1336.48 799.634" stroke="#E5E7EB" stroke-width="0.941"/>
</g>
<g opacity="0.33">
<g opacity="0.33">
<path opacity="0.45" d="M1606.57 415.432C1605.98 422.224 1599.99 427.248 1593.2 426.654C1586.4 426.06 1581.38 420.072 1581.97 413.281C1582.57 406.489 1588.56 401.465 1595.35 402.059C1602.14 402.653 1607.16 408.641 1606.57 415.432Z" fill="#D1D5DB"/>
<path opacity="0.33" fill-rule="evenodd" clip-rule="evenodd" d="M1595.35 402.06C1602.14 402.654 1607.16 408.64 1606.57 415.433C1605.97 422.224 1599.99 427.247 1593.2 426.653L1595.35 402.06Z" fill="#D1D5DB"/>
</g>
<path opacity="0.33" d="M1655.58 437.492C1658.94 438.084 1661.18 441.285 1660.59 444.642C1659.99 447.998 1656.79 450.24 1653.44 449.648C1650.08 449.056 1647.84 445.855 1648.43 442.498C1649.02 439.142 1652.22 436.9 1655.58 437.492Z" fill="#E5E7EB"/>
<path opacity="0.33" d="M1453.22 461.975L1578.88 419.336M1593.97 431.484L1592.94 507.809L1593.97 431.484Z" stroke="#D1D5DB" stroke-width="1.167"/>
<path opacity="0.33" d="M1600.17 398.748L1652.95 288.509L1495.34 351.033L1580.16 405.394" stroke="#E5E7EB" stroke-width="1.167"/>
<path opacity="0.6" d="M1612.99 423.095L1648.14 440.568" stroke="#E0B4B7" stroke-width="1.167"/>
<path opacity="0.33" d="M1657.17 449.801L1683.51 503.834" stroke="#D1D5DB" stroke-width="1.167"/>
<path opacity="0.33" d="M1730.34 408.883L1660.51 441.495" stroke="#E5E7EB" stroke-width="1.167"/>
<path opacity="0.33" d="M1594.85 508.256C1599.88 509.144 1603.24 513.945 1602.36 518.981C1601.47 524.016 1596.67 527.378 1591.63 526.49C1586.59 525.603 1583.23 520.801 1584.12 515.766C1585.01 510.73 1589.81 507.368 1594.85 508.256Z" fill="#C1D1E0"/>
<path opacity="0.33" d="M1497.14 344.377C1500.17 344.91 1502.18 347.791 1501.65 350.812C1501.12 353.833 1498.24 355.851 1495.22 355.318C1492.19 354.785 1490.18 351.904 1490.71 348.883C1491.24 345.862 1494.12 343.845 1497.14 344.377Z" fill="#C1D1E0"/>
<path opacity="0.33" d="M1444.96 455.505C1450 456.393 1453.36 461.195 1452.47 466.23C1451.58 471.265 1446.78 474.627 1441.75 473.739C1436.71 472.852 1433.35 468.05 1434.24 463.015C1435.12 457.979 1439.93 454.617 1444.96 455.505Z" fill="#D1DEED" fill-opacity="0.6"/>
<path opacity="0.33" d="M1688.84 504.775C1692.2 505.367 1694.44 508.568 1693.85 511.925C1693.25 515.282 1690.05 517.523 1686.7 516.931C1683.34 516.339 1681.1 513.138 1681.69 509.782C1682.28 506.425 1685.48 504.184 1688.84 504.775Z" fill="#D1DEED" fill-opacity="0.6"/>
<path opacity="0.33" d="M1654.81 281.93C1657.83 282.463 1659.85 285.344 1659.31 288.365C1658.78 291.386 1655.9 293.404 1652.88 292.871C1649.86 292.338 1647.84 289.457 1648.37 286.436C1648.9 283.415 1651.79 281.397 1654.81 281.93Z" fill="#E0B4B7"/>
</g>
</g>
<defs>
<clipPath id="clip0">
<rect width="1440" height="644.35" fill="white" transform="matrix(1 0 0 -1 241 862.285)"/>
</clipPath>
</defs>
</svg>
