<svg width="33" height="32" viewBox="0 0 33 32" fill="none" xmlns="http://www.w3.org/2000/svg">
<path fill-rule="evenodd" clip-rule="evenodd" d="M12.5079 5.00121C7.04191 4.92086 2.5 8.83967 2.5 13.4615C2.5 16.1293 3.78609 18.4438 6.27559 20.143C6.27559 20.143 5.36319 23.0808 5.37616 23.1397C5.38914 23.1987 5.58772 23.3144 5.65683 23.2766C5.72593 23.2388 8.95508 21.3599 8.95508 21.3599C11.2693 22.135 12.6809 21.9443 12.9219 21.9117C12.9386 21.9095 12.9497 21.908 12.9551 21.9076C12.7081 21.2021 12.5462 20.1035 12.7305 19.068C13.6953 13.6488 19.3821 11.9631 22.4989 12.251C21.6382 8.33736 17.8998 5.08043 12.5079 5.00121ZM8.70869 9.44921C7.99165 9.44921 7.4105 10.0164 7.4105 10.7161C7.4105 11.4158 7.99165 11.983 8.70869 11.983C9.42572 11.983 10.007 11.4158 10.007 10.7161C10.007 10.0164 9.42572 9.44921 8.70869 9.44921ZM16.5682 9.44921C15.8513 9.44921 15.2701 10.0164 15.2701 10.7161C15.2701 11.4158 15.8513 11.983 16.5682 11.983C17.2853 11.983 17.8666 11.4158 17.8666 10.7161C17.8666 10.0164 17.2854 9.44921 16.5682 9.44921Z" fill="#31CE6F"/>
<path fill-rule="evenodd" clip-rule="evenodd" d="M30.5 19.8925C30.5 15.9331 26.5754 12.9003 22.0224 12.9003C17.2016 12.9003 13.3566 16.0016 13.3566 19.9608C13.3566 23.9273 17.0138 27.2109 22.0279 27.2378C23.0372 27.2433 24.5403 26.9902 25.5539 26.5771C25.5539 26.5771 27.977 28.0105 28.1127 27.9999C28.2483 27.9893 28.3178 27.8845 28.3232 27.7946C28.3286 27.7047 27.5512 25.4673 27.5512 25.4673C29.6318 23.8776 30.5 22.1259 30.5 19.8925ZM18.8494 16.1855C18.215 16.1855 17.7008 16.6881 17.7008 17.3083C17.7008 17.9282 18.215 18.431 18.8494 18.431C19.4838 18.431 19.998 17.9284 19.998 17.3083C19.998 16.6881 19.4838 16.1855 18.8494 16.1855ZM24.9913 16.1855C24.3569 16.1855 23.8427 16.6881 23.8427 17.3083C23.8427 17.9282 24.3569 18.431 24.9913 18.431C25.6258 18.431 26.14 17.9284 26.14 17.3083C26.14 16.6881 25.6258 16.1855 24.9913 16.1855Z" fill="#31CE6F"/>
</svg>
